<?xml version="1.0" encoding="utf-8"?>
<svg id="Layer_10" data-name="Layer 10" xmlns="http://www.w3.org/2000/svg" width="100.392" height="75.983"
     viewBox="0 0 100.392 75.983">
    <path id="Path_53849" data-name="Path 53849"
          d="M163.479,189.876c.473.037,2.31,0,2.31,0,.867,0,.525-.469.422-.586a6.269,6.269,0,0,0-6.306-2.306c-.7.107-.463.5-.262.652C160.562,188.333,162.477,189.861,163.479,189.876Z"
          transform="translate(-128.302 -150.356)" fill="#022e46"/>
    <path id="Path_53850" data-name="Path 53850"
          d="M193.747,189.876c.473.037,2.312,0,2.312,0,.867,0,.525-.469.422-.586a6.269,6.269,0,0,0-6.306-2.306c-.7.107-.463.5-.262.652C190.83,188.333,192.749,189.861,193.747,189.876Z"
          transform="translate(-152.66 -150.356)" fill="#022e46"/>
    <path id="Path_53851" data-name="Path 53851"
          d="M224,189.876c.473.037,2.312,0,2.312,0,.867,0,.525-.469.422-.586a6.269,6.269,0,0,0-6.306-2.306c-.7.107-.463.5-.262.652C221.082,188.333,223,189.861,224,189.876Z"
          transform="translate(-177.003 -150.356)" fill="#022e46"/>
    <path id="Path_53852" data-name="Path 53852"
          d="M254.249,189.876c.473.037,2.31,0,2.31,0,.867,0,.525-.469.422-.586a6.269,6.269,0,0,0-6.306-2.306c-.7.107-.463.5-.262.652C251.339,188.333,253.253,189.861,254.249,189.876Z"
          transform="translate(-201.345 -150.356)" fill="#022e46"/>
    <path id="Path_53853" data-name="Path 53853"
          d="M284.512,189.876c.473.037,2.31,0,2.31,0,.867,0,.525-.469.422-.586a6.269,6.269,0,0,0-6.306-2.306c-.693.107-.463.5-.262.652C281.594,188.333,283.514,189.861,284.512,189.876Z"
          transform="translate(-225.699 -150.356)" fill="#022e46"/>
    <path id="Path_53854" data-name="Path 53854"
          d="M314.759,189.876c.473.037,2.31,0,2.31,0,.867,0,.525-.469.422-.586a6.269,6.269,0,0,0-6.306-2.306c-.7.107-.463.5-.262.652C311.843,188.333,313.763,189.861,314.759,189.876Z"
          transform="translate(-250.038 -150.356)" fill="#022e46"/>
    <path id="Path_53855" data-name="Path 53855"
          d="M283.117,111.375c1.392,1.135,3.244,2.437,3.63,4.119a3.709,3.709,0,0,1-.244,2.988,2.972,2.972,0,0,0-1.295.209,2.022,2.022,0,0,1-1.172.238c-.391-.125-.34-.221-.34-.221a2.737,2.737,0,0,0,.961-2.529c-.326-1.5-1.535-2.187-2.148-2.816-2.082-1.758-3.2-3.386-3.138-5.029,0-2.72,1.8-4.3,3.154-4.4a2.322,2.322,0,0,1,2.072-1.326c1.049,0,1.627.959,1.627,2.105s.225,3.57,2.25,2.836a2.975,2.975,0,0,1-2.273,1.435c-.418,0-1.986.15-2.761-2.472-.18-.568-.391-1.471-.918-1.471C280.98,105.012,278.687,107.775,283.117,111.375Z"
          transform="translate(-224.811 -82.566)" fill="#022e46"/>
    <path id="Path_53856" data-name="Path 53856"
          d="M148.388,36.947a3.515,3.515,0,0,0-2.72-2.695,7.619,7.619,0,0,1-.141-1.4,7.939,7.939,0,0,1,1,.115c.3.078.781.391.891.168s-.111-.2-.111-.414.375-.045.375-.367-.375-.125-.375-.359.291-.287.143-.492-.586.176-.922.232a6.736,6.736,0,0,1-.976.043v-.014a6.073,6.073,0,0,1,.045-.976c.059-.332.469-.793.228-.926s-.26.143-.492.143-.041-.375-.353-.375-.135.375-.367.375-.219-.246-.418-.115.09.586.168.9a7.868,7.868,0,0,1,.117,1h-.027a6.569,6.569,0,0,1-.976-.043c-.332-.057-.767-.449-.93-.232s.148.262.148.492-.375.043-.375.359.375.131.375.367-.238.215-.113.414.586-.09.9-.168a7.869,7.869,0,0,1,1-.115,8.1,8.1,0,0,1-.17,1.392,3.515,3.515,0,0,0-2.777,2.675c-.182.066-.365.238-.391.662a.647.647,0,0,0,.353.7,3.515,3.515,0,0,0,6.919-.012.689.689,0,0,0,.324-.685A.631.631,0,0,0,148.388,36.947Zm-1.016,1.033H142.49a.334.334,0,1,1,0-.668h1.892a.234.234,0,0,0,.227-.252V35.243a.334.334,0,0,1,.668,0v1.818a.24.24,0,0,0,.232.258h1.863a.334.334,0,0,1,0,.668Z"
          transform="translate(-113.576 -23.838)" fill="#022e46"/>
    <path id="Path_53857" data-name="Path 53857"
          d="M205.575,128.838a6.265,6.265,0,0,1,4.033-1.719,8.427,8.427,0,0,0,2.412-.178c.793-.2,1.7-.68,1.844-.461a9.558,9.558,0,0,0,1.83,2.824,17.473,17.473,0,0,1,3.254,4.527,6.193,6.193,0,0,1,.666,3.515c-.1.369-.781.553-1.072.627a2.437,2.437,0,0,1-1.539-.256,6.343,6.343,0,0,0-2.519-.244c-.535.033-1.293.158-1.4.033a7.644,7.644,0,0,0-1.551-1.66c-1.078-.822-3.007-1.6-3.906-2.265a5.291,5.291,0,0,1-1.855-2.015c-.238-.824-.627-.812-1.031-.781-.283.029-.738.2-.873-.082A7.1,7.1,0,0,1,205.575,128.838Z"
          transform="translate(-164.047 -101.73)" fill="#022e46"/>
    <path id="Path_53858" data-name="Path 53858"
          d="M236.26,10.177c-.223.092-.615-.5-.549-1.4s.156-.926.266-1.139c.164-.32.613-.742.453-.93s-.342-.049-.6-.115-.541-1.277-.414-1.658.453-.822.312-.955c-.24-.242-.67.166-.736-.2-.045-.252-.2-.445-.07-.627a1.3,1.3,0,0,0,.143-.656c-.072-.309-.41-.092-.7-.309S233.143.919,232.893.8,231.805.54,231.62.348s-.271-.459-.7-.32c-.3.1-.508.254-.715.182s-.473-.391-.746-.148c-.18.139-.332.434-.555.4a2.72,2.72,0,0,0-1.418.346c-.174.139-.236.391-.057.359.42-.061.869-.014.711.336-.1.217-.371.269-.781.441-.2.074-.531.209-.781.3a1.988,1.988,0,0,0-.914.8c-.223.391-2.515,1.086-2.992,1.322s-.758.352-.812.6-.172.484-.012.738.012.338-.031.586A1.333,1.333,0,0,0,222.49,7.4a1.559,1.559,0,0,0,1.295.076c.56-.23,1.638-.676,2.037-.459s.492.883.348,1.449a.508.508,0,0,1-.67.336c-.16-.029-.352-.543-.728-.732s-1.119-.232-3.371-.2c-1.433.033-1.328-.371-1.348-.586s-.117-.336-.373-.24a.865.865,0,0,0-.48,1.308c.3.566,1.638.314,1.992.2a8.464,8.464,0,0,1,2.715-.248c.426.168.277.586-.029.586-.242,0-.406-.414-.748-.314s-.2.391-.48.682a.814.814,0,0,0,.109,1.193,2.285,2.285,0,0,0,.826.414.436.436,0,0,1,.344.359c.031.152.328.15.434.023.2-.227.725-.9,1.392-.9s.863-.057,1.084.131a1.626,1.626,0,0,0,1.021.312,8.549,8.549,0,0,0,2.9-.215c.764-.316,2.23-1.387,2.482-1.219s.24.283.271.668-.018,3.537.945,3.761,1.267-.238,1.367-.416c.158-.275-.043-.154-.283-.418-.2-.223-.4-1.051-.066-1.355s1.033-.615,1.139-1.09C236.689,10.152,236.41,10.115,236.26,10.177Zm-9-5.285a.586.586,0,0,1-.605-.557.611.611,0,0,1,1.219,0,.586.586,0,0,1-.613.557Z"
          transform="translate(-176.277 0.028)" fill="#022e46"/>
    <path id="Path_53859" data-name="Path 53859"
          d="M245.888,67.383c-.094-.133.047-.338.539-.738a4.008,4.008,0,0,1,2.961-1.275,10.708,10.708,0,0,0,3.421-.232c1.2-.406,1.732-1.187,2.068-1.021s.35.855.049,1.6c-.424,1.025-1.953,1.644-4.009,1.6-2.246-.051-2.888-.094-3.484-.031C246.257,67.395,245.944,67.471,245.888,67.383Z"
          transform="translate(-197.847 -51.571)" fill="#022e46"/>
    <path id="Path_53860" data-name="Path 53860"
          d="M176.745,56.279c.074.262.184.228.391.424s.3,1.094.477,1.379.574.039.84.16.139.439.35.586.391,0,.637,0,.162.238.33.357.738.121.957.264.65.529.976-.088a9.177,9.177,0,0,1,1.441-1.379c.205-.143.527-.338.242-.672s-2.285-.668-2.734-.832-1.322-1.615-1.678-1.783a6.665,6.665,0,0,0-2.246-.455c-.742.025-.781.227-.781.227-.213.314.045.547.2.715A4.957,4.957,0,0,1,176.745,56.279Z"
          transform="translate(-141.521 -43.642)" fill="#022e46"/>
    <path id="Path_53861" data-name="Path 53861"
          d="M213.717,74.652a34.744,34.744,0,0,1-3.593-.336,4.35,4.35,0,0,0-3.3,1.306c-.531.359-.379.586-.379.586.17.293,1.355-.061,2.148-.012a13.422,13.422,0,0,0,2.656.355,4.193,4.193,0,0,0,2.845-1.662C214.264,74.7,214.12,74.58,213.717,74.652Z"
          transform="translate(-166.114 -59.784)" fill="#022e46"/>
    <path id="Path_53862" data-name="Path 53862"
          d="M220.437,66.765a7.269,7.269,0,0,1,1.929.07,8.929,8.929,0,0,0,2.66.064c.644-.119,1.693-.586,1.451-.83s-.549.1-1.379-.168a7.6,7.6,0,0,0-2.179-.5c-2.052-.2-3.388.976-3.32,1.156C219.693,66.773,220.057,66.786,220.437,66.765Z"
          transform="translate(-176.712 -52.605)" fill="#022e46"/>
    <path id="Path_53863" data-name="Path 53863"
          d="M240.639,54.418c.275.084.859.164,1.773.416a11.29,11.29,0,0,0,4.22.406,4.052,4.052,0,0,0,3.125-1.685,1.277,1.277,0,0,0-.021-1.342c-.17-.166-.264-.236-.7.049a7.232,7.232,0,0,1-3.216.887,12.621,12.621,0,0,0-3.919.2c-1.289.2-2.2.74-2.121.885S240.326,54.322,240.639,54.418Z"
          transform="translate(-192.951 -41.894)" fill="#022e46"/>
    <path id="Path_53864" data-name="Path 53864"
          d="M236.786,78.675c-.109-.217-1,.365-1.779.639a8.738,8.738,0,0,1-3.57.35,13.592,13.592,0,0,0-4.722.23c-2.134.445-3.794,2.576-3.546,2.789.141.123.547-.215,1.014-.449a9.073,9.073,0,0,1,3.125-.523,35.853,35.853,0,0,1,3.7.519,5.1,5.1,0,0,0,4.052-1.074C236.487,80.163,236.9,78.9,236.786,78.675Z"
          transform="translate(-179.567 -63.267)" fill="#022e46"/>
    <path id="Path_53865" data-name="Path 53865"
          d="M157.448,90.876c1.34.055,1.607.244,1.894-.264s.125-1.107.916-1.845c.512-.475.82-.637.506-.863s-1.213.3-2.074.2a21.341,21.341,0,0,0-2.992-.027,33.555,33.555,0,0,0-3.71.73,18.142,18.142,0,0,1-2.148-.344,8.239,8.239,0,0,0-1.771-.039,20.856,20.856,0,0,1-2.236.254c-.353-.066-.889-.062-.976.219-.117.373.143.353.656.676s1.242,1.562,1.812,1.91a4.257,4.257,0,0,0,2.42.027,11.25,11.25,0,0,1,2.326-.139,23.743,23.743,0,0,0,2.787-.287A10.046,10.046,0,0,1,157.448,90.876Z"
          transform="translate(-116.544 -70.685)" fill="#022e46"/>
    <path id="Path_53866" data-name="Path 53866"
          d="M197.486,107.1c.361-.752.7-.935.621-1.221-.055-.228-1.931.219-2.605.76a3.572,3.572,0,0,0-1.277,2.164c-.064.7-.519.894-.293,1.183s1.078-.182,2.1-.945A4.109,4.109,0,0,0,197.486,107.1Z"
          transform="translate(-156.008 -85.147)" fill="#022e46"/>
    <path id="Path_53867" data-name="Path 53867"
          d="M201.618,115.691c-.129-.131-.883.2-1.67.719a5.122,5.122,0,0,0-1.67,1.773,3.62,3.62,0,0,1-.976,1.279c-.219.123-.336.145-.309.266.037.182,1.285.236,2.187-.266a3.5,3.5,0,0,0,1.439-1.818,8.006,8.006,0,0,1,.908-1.486C201.79,115.892,201.665,115.746,201.618,115.691Z"
          transform="translate(-158.52 -93.069)" fill="#022e46"/>
    <path id="Path_53868" data-name="Path 53868"
          d="M224.425,97.959c-.81-.055-2.459-.27-4.039-.486a6.983,6.983,0,0,0-4.251.933c-.976.6-2.056,2.168-1.855,2.343.123.117.285.068.691-.143a5.638,5.638,0,0,1,1.678-.551,19.123,19.123,0,0,1,3.683.154,9.059,9.059,0,0,0,4.841-1.017c1.34-.627,1.929-1.4,1.789-1.629A11.464,11.464,0,0,1,224.425,97.959Z"
          transform="translate(-172.413 -78.393)" fill="#022e46"/>
    <path id="Path_53869" data-name="Path 53869"
          d="M224.569,111.938a19.67,19.67,0,0,1-3.3.137,4.6,4.6,0,0,0-3.586,1.092c-.574.484-1.252,1.812-1.049,1.888.268.1.693-.746,1.758-.754a15.979,15.979,0,0,0,2.7.25,6.665,6.665,0,0,0,3.011-1.1c1.248-1.033,2.316-1.654,2.287-1.928S225.883,111.827,224.569,111.938Z"
          transform="translate(-174.302 -89.684)" fill="#022e46"/>
    <path id="Path_53870" data-name="Path 53870" d="M155.28,268.19" transform="translate(-124.956 -215.81)"
          fill="#022e46"/>
    <path id="Path_53871" data-name="Path 53871" d="M358.3,268.19" transform="translate(-288.328 -215.81)"
          fill="#022e46"/>
    <path id="Path_53872" data-name="Path 53872"
          d="M150.023,223.769h0v-.016l-.029-.051a23.384,23.384,0,0,1-2.119-4.808,8.815,8.815,0,0,0-.633-1.6c-.762-1.332-2.8-1.412-4.005-1.041a21.458,21.458,0,0,0-5.046,2.929,1.9,1.9,0,0,0-.2-1.135,19.2,19.2,0,0,1-1.689-4.343,7.518,7.518,0,0,0-.639-1.785c-.568-1-1.912-1.4-3.994-1.189a24.26,24.26,0,0,0-5.1,1.346c-.644.219-1.312.447-1.953.643-.518.158-.992.307-1.435.447a21.2,21.2,0,0,1-6.956,1.355,16.976,16.976,0,0,1-6.462-1.193c-.564-.184-1.2-.391-1.91-.607-.637-.2-1.3-.422-1.953-.643a24.022,24.022,0,0,0-5.1-1.346c-2.082-.2-3.425.2-3.994,1.189a7.878,7.878,0,0,0-.639,1.785,19.214,19.214,0,0,1-1.687,4.339,1.9,1.9,0,0,0-.2,1.139,21.27,21.27,0,0,0-5.046-2.929c-1.2-.371-3.244-.293-4.005,1.041a8.816,8.816,0,0,0-.633,1.6A23.377,23.377,0,0,1,82.5,223.7l-.027.049v.016h0a2.8,2.8,0,0,0,.846,3.621,2.32,2.32,0,0,0,1.344.43,2.347,2.347,0,0,0,.4-.035,2.322,2.322,0,0,0,1.513-.957,1.953,1.953,0,0,0,.246-.482h0a1.953,1.953,0,0,0,.068-.24l.644-2.285.81.391a21.977,21.977,0,0,0,4.539,1.865,5.1,5.1,0,0,0,3.591-.412,2.209,2.209,0,0,0,.976-1.443.63.63,0,0,1,.021-.121h0a.727.727,0,0,1,.016-.111,16.177,16.177,0,0,0,.184-1.937,11.546,11.546,0,0,1,.666-3.837,10.817,10.817,0,0,1,2.64,1.273c3.515,2.218,9.022,4.865,15.258,4.865s11.739-2.646,15.262-4.867a10.8,10.8,0,0,1,2.636-1.271,11.546,11.546,0,0,1,.666,3.837,16.181,16.181,0,0,0,.184,1.935.284.284,0,0,0,.016.113h0a.509.509,0,0,0,.021.121,2.209,2.209,0,0,0,.976,1.443,5.107,5.107,0,0,0,3.591.412,21.977,21.977,0,0,0,4.539-1.865l.81-.391.643,2.283a1.955,1.955,0,0,0,.068.242h0a1.953,1.953,0,0,0,.246.482,2.322,2.322,0,0,0,1.513.957,2.353,2.353,0,0,0,.4.035,2.32,2.32,0,0,0,1.344-.43A2.8,2.8,0,0,0,150.023,223.769Zm-64.094,2.115-.029.1a.976.976,0,0,1-.133.277,1.367,1.367,0,0,1-1.9.326,1.828,1.828,0,0,1-.551-2.361l.027-.049a1.378,1.378,0,0,1,.084-.133,2.4,2.4,0,0,1,1.281-.916l-.391.85h0l-.033.08-.016.035h0l-.248.586.531.375a.7.7,0,0,1,.976-.168A.992.992,0,0,1,85.929,225.884Zm.439-1.562a1.969,1.969,0,0,0-.275-.238,1.67,1.67,0,0,0-.617-.27l.33-.73a6.518,6.518,0,0,1,.824.312Zm10.167-.525c-.014.076-.023.154-.039.229a1.248,1.248,0,0,1-.564.826,4.221,4.221,0,0,1-2.855.273,21.1,21.1,0,0,1-4.3-1.785,14.147,14.147,0,0,0-2.992-1.262h-.029a3.378,3.378,0,0,0-1.367.141,25.1,25.1,0,0,0,1.172-3.015,8.251,8.251,0,0,1,.553-1.42c.461-.807,1.99-.863,2.871-.586a21.846,21.846,0,0,1,5.56,3.431c1.73,1.439,2.056,2.506,1.988,3.168Zm.2-2.295a7.19,7.19,0,0,0-.531-.646h0c-.887-1.053-1.172-2.006-.746-2.49A2.217,2.217,0,0,1,97.385,218a11.641,11.641,0,0,0-.656,3.505Zm34.25-2.84c-3.41,2.148-8.733,4.714-14.736,4.714s-11.327-2.564-14.733-4.712a8.35,8.35,0,0,0-5.435-1.64,21.925,21.925,0,0,0,1.047-3.054,7.362,7.362,0,0,1,.545-1.562c.355-.621,1.41-.865,3.05-.7A23.456,23.456,0,0,1,105.6,213c.652.223,1.326.451,1.976.65.7.215,1.334.42,1.894.6a17.867,17.867,0,0,0,6.782,1.24,22.172,22.172,0,0,0,7.226-1.4c.441-.139.914-.287,1.43-.445.65-.2,1.324-.43,1.976-.65a23.514,23.514,0,0,1,4.882-1.3c1.64-.162,2.695.08,3.05.7a7.358,7.358,0,0,1,.547,1.562,21.936,21.936,0,0,0,1.047,3.054,8.336,8.336,0,0,0-5.433,1.64Zm4.125-.668a2.2,2.2,0,0,1,1.929.369c.426.484.139,1.437-.746,2.49h0a7.244,7.244,0,0,0-.533.646,11.628,11.628,0,0,0-.652-3.5Zm8.61,5.341a21.563,21.563,0,0,1-4.3,1.785,4.21,4.21,0,0,1-2.855-.273,1.248,1.248,0,0,1-.576-.826c-.016-.074-.025-.152-.039-.228-.066-.662.26-1.719,2.015-3.181a21.643,21.643,0,0,1,5.554-3.427c.881-.271,2.408-.215,2.871.586a8.257,8.257,0,0,1,.553,1.42,25.138,25.138,0,0,0,1.172,3.015,3.375,3.375,0,0,0-1.367-.141h-.029a14.762,14.762,0,0,0-3,1.273Zm2.964-.254.33.73a1.67,1.67,0,0,0-.617.27,1.978,1.978,0,0,0-.275.238l-.26-.926a6.562,6.562,0,0,1,.82-.311Zm1.935,3.515a1.367,1.367,0,0,1-1.9-.328.976.976,0,0,1-.133-.279l-.029-.1a.992.992,0,0,1,.391-1,.7.7,0,0,1,.976.168l.531-.375-.391-.9-.287-.637a2.4,2.4,0,0,1,1.281.914,1.376,1.376,0,0,1,.084.133l.027.047a1.826,1.826,0,0,1-.555,2.359Z"
          transform="translate(-66.093 -169.53)" fill="#022e46"/>
    <path id="Path_53873" data-name="Path 53873"
          d="M205.374,237.969h-.021a2.108,2.108,0,0,1-.478-.146,1.721,1.721,0,0,1-1.09-1.517c-.039-.2-.066-.434-.094-.658-.021-.178-.043-.344-.066-.488-.037-.234-.088-.277-.295-.363a.623.623,0,0,0-.152-.051c-.01,0-.02.014-.049.086l-.355.871c-.281.691-.238.715.039.871l.158.09v.016a.215.215,0,0,1-.025.184.154.154,0,0,1-.115.082H202.8c-.293-.135-.586-.266-.894-.391s-.611-.24-.926-.353h-.014v-.01a.176.176,0,0,1-.023-.164.178.178,0,0,1,.117-.127h.014l.172.045a.882.882,0,0,0,.207.039c.127,0,.211-.1.432-.637l1.014-2.5c.27-.664.271-.7.01-.836l-.186-.1v-.018a.207.207,0,0,1,.016-.176.16.16,0,0,1,.109-.086h.023a16.949,16.949,0,0,1,1.6.586,3.067,3.067,0,0,1,1.221.781,1.2,1.2,0,0,1,.2,1.293,1.328,1.328,0,0,1-1.3.781v.105a8.287,8.287,0,0,0,.475,2.185.888.888,0,0,0,.361.379h.014v.014a.2.2,0,0,1-.057.211Zm-1.25-5.437c-.059,0-.086.049-.164.24l-.586,1.416c-.074.182-.074.182.2.295a.87.87,0,0,0,1.3-.549.955.955,0,0,0-.5-1.32A.933.933,0,0,0,204.124,232.532Z"
          transform="translate(-161.695 -186.39)" fill="#022e46"/>
    <path id="Path_53874" data-name="Path 53874"
          d="M236.77,245.394h-.012c-.33-.055-.67-.1-1.008-.143s-.7-.074-1.029-.1H234.7a.156.156,0,0,1-.061-.127.219.219,0,0,1,.068-.176l.014-.01h.2c.338,0,.391,0,.482-.781l.332-2.832c.092-.781.041-.781-.287-.873l-.182-.047-.01-.014a.219.219,0,0,1-.025-.2.154.154,0,0,1,.088-.109h.023c.326.055.672.1,1.023.143s.684.072,1.014.1h.021a.154.154,0,0,1,.061.127.219.219,0,0,1-.068.176l-.014.01h-.2c-.338,0-.391,0-.482.781l-.334,2.832c-.092.781-.041.781.287.873l.182.047.01.014a.219.219,0,0,1,.025.2.156.156,0,0,1-.088.109Z"
          transform="translate(-188.815 -193.117)" fill="#022e46"/>
    <path id="Path_53875" data-name="Path 53875"
          d="M258.353,244.127h-.012a.17.17,0,0,1-.092-.137.184.184,0,0,1,.039-.166l.021-.012.316-.07c.33-.062.391-.072.3-.853l-.328-3.3c-.027-.277-.039-.277-.1-.277h-.082l-.428.043c-.668.068-.861.154-1.076.781l-.012.018a.2.2,0,0,1-.143.049.207.207,0,0,1-.2-.088v-.033c.086-.412.152-.889.18-1.172v-.018a.147.147,0,0,1,.119-.064.145.145,0,0,1,.123.041v.018c.027.088.057.127.225.127.1,0,.23-.014.408-.031l3.111-.316c.381-.039.457-.072.519-.227v-.014h.014a.256.256,0,0,1,.109-.047.168.168,0,0,1,.146.045l.014.016v.021a5.309,5.309,0,0,0,0,1.209v.031a.211.211,0,0,1-.2.1.215.215,0,0,1-.115-.031l-.016-.01v-.018c-.129-.471-.244-.619-.713-.619a3.713,3.713,0,0,0-.371.023l-.436.045c-.158.016-.158.016-.129.3l.336,3.295c.08.781.131.781.467.781h.295l.014.012a.219.219,0,0,1,.064.176.156.156,0,0,1-.062.125h-.023c-.467.031-.8.059-1.121.092s-.658.074-1.172.143Z"
          transform="translate(-206.457 -191.819)" fill="#022e46"/>
    <path id="Path_53876" data-name="Path 53876"
          d="M290.645,236.345a.144.144,0,0,1-.135-.133h0l.014-.051c.059-.219.217-.8.311-1.322l.541-2.91a8.045,8.045,0,0,0,.137-.885.921.921,0,0,0-.18.064l-.814.346c-.523.223-.781.408-.869.623a1.679,1.679,0,0,0-.088.623v.029a.232.232,0,0,1-.318.055l-.012-.012v-.018c-.021-.139-.039-.277-.059-.414-.039-.291-.076-.566-.133-.838v-.031a.154.154,0,0,1,.184-.078l.021.016a.137.137,0,0,0,.117.059h0a2.068,2.068,0,0,0,.6-.205l1.775-.756a7.657,7.657,0,0,0,.742-.348h.039a.154.154,0,0,1,.146.123v.035c-.105.246-.332,1.476-.408,1.881l-.391,2.105a7.745,7.745,0,0,0-.166,1.082s0,.014.039.014a.525.525,0,0,0,.152-.037c.148-.055.311-.115.781-.318a2.645,2.645,0,0,0,1.076-.633,1.368,1.368,0,0,0,.178-.889v-.031a.248.248,0,0,1,.2-.094.158.158,0,0,1,.125.051l.01.02a3.683,3.683,0,0,1,.148,1.265v.029l-.027.01c-.391.146-.781.309-1.252.51l-1.758.744a7.132,7.132,0,0,0-.693.318Z"
          transform="translate(-232.594 -185.207)" fill="#022e46"/>
    <path id="Path_53877" data-name="Path 53877" d="M257.54,276.38" transform="translate(-207.245 -222.401)"
          fill="#022e46"/>
    <path id="Path_53878" data-name="Path 53878" d="M257.54,276.38" transform="translate(-207.245 -222.401)"
          fill="#022e46"/>
    <path id="Path_53879" data-name="Path 53879" d="M258.33,281.69" transform="translate(-207.881 -226.674)"
          fill="#022e46"/>
    <path id="Path_53880" data-name="Path 53880" d="M254.85,277.55h0Z" transform="translate(-205.081 -223.342)"
          fill="#022e46"/>
    <path id="Path_53881" data-name="Path 53881" d="M254.84,277.56h0Z" transform="translate(-205.073 -223.35)"
          fill="#022e46"/>
    <path id="Path_53882" data-name="Path 53882" d="M1.7,362.1H0v-.875H4.361v.875h-1.7V366.6H1.7Z"
          transform="translate(0 -290.68)" fill="#022e46"/>
    <path id="Path_53883" data-name="Path 53883"
          d="M37.61,361.23h.943v2.234h2.566V361.23h.943V366.6h-.943v-2.265H38.555V366.6H37.61Z"
          transform="translate(-30.265 -290.68)" fill="#022e46"/>
    <path id="Path_53884" data-name="Path 53884"
          d="M77.7,361.23h3.984v.844H78.645v1.4H81.34v.84H78.645v1.443h3.078v.844H77.7Z"
          transform="translate(-62.526 -290.68)" fill="#022e46"/>
    <path id="Path_53885" data-name="Path 53885"
          d="M133.86,361.23h2.394a2.148,2.148,0,0,1,1.551.537,1.625,1.625,0,0,1,.445,1.16v.016a1.611,1.611,0,0,1-1.281,1.627l1.451,2.035h-1.113l-1.32-1.873h-1.182V366.6h-.943Zm2.326,2.664c.676,0,1.105-.353,1.105-.9v-.016c0-.576-.414-.891-1.113-.891h-1.367v1.8Z"
          transform="translate(-107.719 -290.68)" fill="#022e46"/>
    <path id="Path_53886" data-name="Path 53886" d="M172.77,361.23h.943V366.6h-.943Z"
          transform="translate(-139.03 -290.68)" fill="#022e46"/>
    <path id="Path_53887" data-name="Path 53887" d="M194.915,362.1h-1.7v-.875h4.361v.875h-1.7V366.6h-.951Z"
          transform="translate(-155.478 -290.68)" fill="#022e46"/>
    <path id="Path_53888" data-name="Path 53888"
          d="M229.37,365.9l3.17-3.837h-3.07v-.836h4.3v.7l-3.17,3.837h3.17v.836h-4.4Z"
          transform="translate(-184.577 -290.68)" fill="#022e46"/>
    <path id="Path_53889" data-name="Path 53889" d="M290.13,361.23h.951v4.513h2.826v.859h-3.769Z"
          transform="translate(-233.471 -290.68)" fill="#022e46"/>
    <path id="Path_53890" data-name="Path 53890"
          d="M321.88,363.7v-.012a2.81,2.81,0,0,1,5.618-.016v.016a2.81,2.81,0,0,1-5.618.016Zm4.628,0v-.012a1.841,1.841,0,0,0-1.826-1.912,1.806,1.806,0,0,0-1.8,1.892v.02a1.841,1.841,0,0,0,1.828,1.912,1.811,1.811,0,0,0,1.8-1.9Z"
          transform="translate(-259.02 -290.453)" fill="#022e46"/>
    <path id="Path_53891" data-name="Path 53891"
          d="M366.73,361.23h.875l2.879,3.711V361.23h.93V366.6h-.781l-2.963-3.822V366.6h-.93Z"
          transform="translate(-295.112 -290.68)" fill="#022e46"/>
    <path id="Path_53892" data-name="Path 53892"
          d="M408,361.23h2a2.678,2.678,0,0,1,2.855,2.672v.018A2.694,2.694,0,0,1,410,366.606h-2Zm2,4.513a1.751,1.751,0,0,0,1.865-1.812v-.012A1.763,1.763,0,0,0,410,362.093h-1.06v3.654Z"
          transform="translate(-328.322 -290.68)" fill="#022e46"/>
    <path id="Path_53893" data-name="Path 53893"
          d="M445.234,363.919v-.012a2.81,2.81,0,0,1,5.615-.02v.02a2.81,2.81,0,0,1-5.618.016Zm4.628,0v-.012A1.841,1.841,0,0,0,448.034,362a1.815,1.815,0,0,0-1.812,1.9v.016a1.827,1.827,0,1,0,3.65.012Z"
          transform="translate(-358.282 -290.668)" fill="#022e46"/>
    <path id="Path_53894" data-name="Path 53894"
          d="M490.1,361.23h.875l2.879,3.711V361.23h.928V366.6H494l-2.963-3.822V366.6H490.1Z"
          transform="translate(-394.389 -290.68)" fill="#022e46"/>
</svg>
