<?xml version="1.0" encoding="utf-8"?>
<svg id="Group_44" data-name="Group 44" xmlns="http://www.w3.org/2000/svg" width="15.785" height="15.785" viewBox="0 0 15.785 15.785">
    <path id="Path_100" data-name="Path 100" d="M209.833,119.268c2.107,0,2.357.008,3.189.046a4.367,4.367,0,0,1,1.465.272,2.615,2.615,0,0,1,1.5,1.5,4.365,4.365,0,0,1,.272,1.465c.038.832.046,1.082.046,3.189s-.008,2.357-.046,3.189a4.367,4.367,0,0,1-.272,1.465,2.615,2.615,0,0,1-1.5,1.5,4.375,4.375,0,0,1-1.465.272c-.832.038-1.082.046-3.189.046s-2.357-.008-3.189-.046a4.375,4.375,0,0,1-1.465-.272,2.615,2.615,0,0,1-1.5-1.5,4.366,4.366,0,0,1-.272-1.465c-.038-.832-.046-1.082-.046-3.189s.008-2.357.046-3.189a4.364,4.364,0,0,1,.272-1.465,2.614,2.614,0,0,1,1.5-1.5,4.367,4.367,0,0,1,1.465-.272c.832-.038,1.082-.046,3.189-.046m0-1.422c-2.143,0-2.412.009-3.254.047a5.791,5.791,0,0,0-1.916.367,4.036,4.036,0,0,0-2.308,2.308,5.8,5.8,0,0,0-.367,1.916c-.038.842-.047,1.111-.047,3.254s.009,2.412.047,3.254a5.8,5.8,0,0,0,.367,1.916,4.036,4.036,0,0,0,2.308,2.308,5.789,5.789,0,0,0,1.916.367c.842.038,1.111.047,3.254.047s2.412-.009,3.254-.047a5.789,5.789,0,0,0,1.916-.367,4.036,4.036,0,0,0,2.308-2.308,5.8,5.8,0,0,0,.367-1.916c.038-.842.047-1.111.047-3.254s-.009-2.412-.047-3.254a5.8,5.8,0,0,0-.367-1.916A4.036,4.036,0,0,0,215,118.26a5.791,5.791,0,0,0-1.916-.367c-.842-.038-1.111-.047-3.254-.047Z" transform="translate(-201.941 -117.846)" fill="#666666"/>
    <path id="Path_101" data-name="Path 101" d="M221.614,133.466a4.053,4.053,0,1,0,4.053,4.053A4.053,4.053,0,0,0,221.614,133.466Zm0,6.684a2.631,2.631,0,1,1,2.631-2.631A2.631,2.631,0,0,1,221.614,140.15Z" transform="translate(-213.722 -129.627)" fill="#666666"/>
    <circle id="Ellipse_6" data-name="Ellipse 6" cx="0.947" cy="0.947" r="0.947" transform="translate(11.158 2.732)" fill="#666666"/>
</svg>