<?xml version="1.0" encoding="utf-8"?>
<svg xmlns="http://www.w3.org/2000/svg" width="20.149" height="20.149" viewBox="0 0 20.149 20.149">
    <path id="Path_104" data-name="Path 104"
          d="M18.657,0H1.487A1.471,1.471,0,0,0,0,1.453V18.7a1.472,1.472,0,0,0,1.487,1.455H18.658A1.475,1.475,0,0,0,20.149,18.7V1.453A1.473,1.473,0,0,0,18.657,0ZM5.982,17.17H2.988V7.555H5.982ZM4.483,6.235a1.733,1.733,0,1,1,0-3.465h0a1.733,1.733,0,0,1,0,3.465ZM17.175,17.171H14.189V12.494c0-1.115-.02-2.55-1.553-2.55-1.555,0-1.795,1.215-1.795,2.468v4.756H7.856V7.555h0l0,0v0h2.862V8.87h.04a3.144,3.144,0,0,1,2.833-1.553c3.026,0,3.585,1.992,3.585,4.58Z"
          transform="translate(0 -0.002)" fill="#EAEAEA"/>
</svg>
