<svg xmlns="http://www.w3.org/2000/svg" viewBox="0 0 40.1 39.57">
    <defs>
        <style>.cls-1{fill:#ffffff;}</style>
    </defs>
    <g id="Layer_2" data-name="Layer 2">
        <g id="Layer_10" data-name="Layer 10">
            <path id="Path_53849" data-name="Path 53849" class="cls-1" d="M7.73,39.57H10c.9,0,.5-.5.4-.6a6.33,6.33,0,0,0-6.3-2.3c-.7.1-.5.5-.3.7C4.83,38.07,6.73,39.57,7.73,39.57Z"/>
            <path id="Path_53850" data-name="Path 53850" class="cls-1" d="M13.63,39.57h2.3c.9,0,.5-.5.4-.6a6.33,6.33,0,0,0-6.3-2.3c-.7.1-.5.5-.3.7C10.73,38.07,12.63,39.57,13.63,39.57Z"/>
            <path id="Path_53851" data-name="Path 53851" class="cls-1" d="M19.53,39.57h2.3c.9,0,.5-.5.4-.6a6.33,6.33,0,0,0-6.3-2.3c-.7.1-.5.5-.3.7C16.63,38.07,18.53,39.57,19.53,39.57Z"/>
            <path id="Path_53852" data-name="Path 53852" class="cls-1" d="M25.43,39.57h2.3c.9,0,.5-.5.4-.6a6.33,6.33,0,0,0-6.3-2.3c-.7.1-.5.5-.3.7C22.53,38.07,24.43,39.57,25.43,39.57Z"/>
            <path id="Path_53853" data-name="Path 53853" class="cls-1" d="M31.33,39.57h2.3c.9,0,.5-.5.4-.6a6.33,6.33,0,0,0-6.3-2.3c-.7.1-.5.5-.3.7C28.43,38.07,30.33,39.57,31.33,39.57Z"/>
            <path id="Path_53854" data-name="Path 53854" class="cls-1" d="M37.23,39.57h2.3c.9,0,.5-.5.4-.6a6.33,6.33,0,0,0-6.3-2.3c-.7.1-.5.5-.3.7C34.33,38.07,36.23,39.57,37.23,39.57Z"/>
            <path id="Path_53855" data-name="Path 53855" class="cls-1"
                  d="M30.83,28.87c1.4,1.1,3.2,2.4,3.6,4.1a3.89,3.89,0,0,1-.2,3,3,3,0,0,0-1.3.2,1.72,1.72,0,0,1-1.2.2c-.4-.1-.3-.2-.3-.2a3,3,0,0,0,1-2.5c-.3-1.5-1.5-2.2-2.1-2.8-2.1-1.8-3.2-3.4-3.1-5,0-2.7,1.8-4.3,3.2-4.4a2.33,2.33,0,0,1,2.1-1.3c1,0,1.6,1,1.6,2.1s.2,3.6,2.2,2.8a3,3,0,0,1-2.3,1.4c-.4,0-2,.2-2.8-2.5-.2-.6-.4-1.5-.9-1.5C28.73,22.47,26.43,25.27,30.83,28.87Z"/>
            <path id="Path_53856" data-name="Path 53856" class="cls-1"
                  d="M7.33,13.17a3.55,3.55,0,0,0-2.7-2.7,6.15,6.15,0,0,1-.1-1.4c.3,0,.7.1,1,.1s.8.4.9.2-.1-.2-.1-.4.4,0,.4-.4-.4-.1-.4-.4.3-.3.1-.5-.6.2-.9.3a3.35,3.35,0,0,1-1,0h0V7c.1-.3.5-.8.2-.9s-.2.2-.4.2,0-.4-.4-.4-.1.4-.4.4-.2-.2-.4-.1.1.6.2.9a3.4,3.4,0,0,1,.1,1h-1c-.3-.1-.8-.4-.9-.2s.1.3.1.5-.4,0-.4.4.4.1.4.4-.2,0-.1.2.6-.1.9-.2a3.4,3.4,0,0,1,1-.1,6.75,6.75,0,0,1-.2,1.4,3.53,3.53,0,0,0-2.8,2.7c-.2.1-.4.2-.4.7a.57.57,0,0,0,.4.7,3.46,3.46,0,0,0,4.1,2.8,3.52,3.52,0,0,0,2.8-2.8.61.61,0,0,0,.3-.7A.52.52,0,0,0,7.33,13.17Zm-1,1H1.43a.3.3,0,0,1,0-.6h1.9a.22.22,0,0,0,.2-.2h0v-1.8a.32.32,0,0,1,.3-.3.27.27,0,0,1,.3.3v1.8c0,.1.1.2.2.3h1.9a.32.32,0,0,1,.3.3c.1.1,0,.2-.2.2Z"/>
            <path id="Path_53857" data-name="Path 53857" class="cls-1"
                  d="M14,27.17a6,6,0,0,1,4-1.7,6.52,6.52,0,0,0,2.4-.2c.8-.2,1.7-.7,1.8-.5a10.31,10.31,0,0,0,1.8,2.8,20.85,20.85,0,0,1,3.3,4.5,6.15,6.15,0,0,1,.7,3.5c-.1.4-.8.6-1.1.6a2,2,0,0,1-1.5-.3,7.07,7.07,0,0,0-2.5-.2c-.5,0-1.3.2-1.4,0a8.52,8.52,0,0,0-1.6-1.7c-1.1-.8-3-1.6-3.9-2.3a6.06,6.06,0,0,1-1.9-2c-.2-.8-.6-.8-1-.8s-.7.2-.9-.1C12.83,28.37,13.43,27.67,14,27.17Z"/>
            <path id="Path_53858" data-name="Path 53858" class="cls-1"
                  d="M32.53,10.27c-.2.1-.6-.5-.5-1.4s.2-.9.3-1.1.6-.7.5-.9-.3,0-.6-.1-.7-1.4-.6-1.7.5-.8.3-1-.7.2-.7-.2-.2-.4-.1-.6a.82.82,0,0,0,.1-.7c-.1-.3-.4-.1-.7-.3S29.33,1,29,.87a5,5,0,0,1-1.3-.5c-.2-.2-.3-.5-.7-.3s-.5.3-.7.2-.5-.4-.7-.1c-.2.1-.3.4-.6.4a3.19,3.19,0,0,0-1.4.3c-.1.2-.1.4.1.4.4-.1.9,0,.7.3s-.4.3-.8.4a6.89,6.89,0,0,1-.8.3,1.76,1.76,0,0,0-.9.8c-.2.4-2.5,1.1-3,1.3s-.8.4-.8.7-.2.5,0,.7,0,.3,0,.6a1.23,1.23,0,0,0,.7,1.1,2,2,0,0,0,1.3.1c.6-.2,1.6-.7,2-.5s.5.9.3,1.4a.62.62,0,0,1-.6.4h0c-.2,0-.4-.5-.7-.7S20,8,17.73,8c-1.4,0-1.3-.4-1.3-.6s-.2-.3-.5-.2a.86.86,0,0,0-.6,1.1.35.35,0,0,0,.1.2c.3.6,1.6.3,2,.2a8.22,8.22,0,0,1,2.7-.2c.4.2.3.6,0,.6s-.4-.4-.7-.3-.2.3-.5.6a.71.71,0,0,0,.1,1.1h.1a2,2,0,0,0,.8.4c.2,0,.3.2.3.4s.3.1.4,0,.7-.9,1.4-.9.9-.1,1.1.1a1.93,1.93,0,0,0,1,.3,9.25,9.25,0,0,0,2.9-.2c.8-.3,2.2-1.4,2.5-1.2s.2.3.3.7,0,3.5.9,3.8a1.06,1.06,0,0,0,1.4-.4c.2-.3,0-.2-.3-.4s-.4-1.1-.1-1.4,1-.6,1.1-1.1C32.93,10.27,32.63,10.17,32.53,10.27Zm-9-5.3a.58.58,0,0,1-.6-.6.67.67,0,0,1,.7-.6c.3,0,.5.3.6.6a.73.73,0,0,1-.7.6Z"/>
            <path id="Path_53859" data-name="Path 53859" class="cls-1"
                  d="M20.53,15.87c-.1-.1,0-.3.5-.7a4.16,4.16,0,0,1,3-1.3,13,13,0,0,0,3.4-.2c1.2-.4,1.7-1.2,2.1-1s.4.9,0,1.6c-.4,1-2,1.6-4,1.6a18.06,18.06,0,0,0-3.5,0C20.93,15.87,20.63,16,20.53,15.87Z"/>
            <path id="Path_53860" data-name="Path 53860" class="cls-1"
                  d="M7.73,12.67c.1.3.2.2.4.4s.3,1.1.5,1.4.6,0,.8.2.1.4.4.6.4,0,.6,0,.2.2.3.4.7.1,1,.3.6.5,1-.1a9.27,9.27,0,0,1,1.4-1.4c.2-.1.5-.3.2-.7s-2.3-.7-2.7-.8-1.3-1.6-1.7-1.8a8.73,8.73,0,0,0-2.2-.5c-.7,0-.8.2-.8.2-.2.3,0,.5.2.7A3,3,0,0,1,7.73,12.67Z"/>
            <path id="Path_53861" data-name="Path 53861" class="cls-1"
                  d="M20.13,15c-1.2,0-2.4-.2-3.6-.3a4.22,4.22,0,0,0-3.3,1.3c-.5.4-.4.6-.4.6.2.3,1.4-.1,2.1,0a25.12,25.12,0,0,0,2.7.4,3.67,3.67,0,0,0,2.8-1.7C20.73,15,20.53,14.87,20.13,15Z"/>
            <path id="Path_53862" data-name="Path 53862" class="cls-1"
                  d="M16.23,14.27a6.08,6.08,0,0,1,1.9.1,8.17,8.17,0,0,0,2.7.1c.6-.1,1.7-.6,1.5-.8s-.5.1-1.4-.2a7.85,7.85,0,0,0-2.2-.5c-2.1-.2-3.4,1-3.3,1.2S15.83,14.27,16.23,14.27Z"/>
            <path id="Path_53863" data-name="Path 53863" class="cls-1"
                  d="M20.23,12.57c.3.1.9.2,1.8.4a12,12,0,0,0,4.2.4,4.24,4.24,0,0,0,3.1-1.7,1.48,1.48,0,0,0,0-1.3c-.2-.2-.3-.2-.7,0a9,9,0,0,1-3.2.9,12.8,12.8,0,0,0-3.9.2c-1.3.2-2.2.7-2.1.9S19.93,12.47,20.23,12.57Z"/>
            <path id="Path_53864" data-name="Path 53864" class="cls-1"
                  d="M29.73,15.47c-.1-.2-1,.4-1.8.6a7.39,7.39,0,0,1-3.6.3,14.73,14.73,0,0,0-4.7.2c-2.1.4-3.8,2.6-3.5,2.8.1.1.5-.2,1-.4a8.4,8.4,0,0,1,3.1-.5c1.2.1,2.5.3,3.7.5a5.6,5.6,0,0,0,4.1-1.1A3.24,3.24,0,0,0,29.73,15.47Z"/>
            <path id="Path_53865" data-name="Path 53865" class="cls-1"
                  d="M13.43,20.27c1.3.1,1.6.2,1.9-.3s.1-1.1.9-1.8c.5-.5.8-.6.5-.9s-1.2.3-2.1.2a15,15,0,0,0-3,0c-1.2.2-2.5.4-3.7.7l-2.1-.3a5.44,5.44,0,0,0-1.8,0l-2.2.3c-.4-.1-.9-.1-1,.2s.1.4.7.7,1.2,1.6,1.8,1.9a3.93,3.93,0,0,0,2.4,0,8.88,8.88,0,0,1,2.3-.1,13.33,13.33,0,0,0,2.8-.3A5.82,5.82,0,0,1,13.43,20.27Z"/>
            <path id="Path_53866" data-name="Path 53866" class="cls-1" d="M14,22.07c.4-.8.7-.9.6-1.2a4.11,4.11,0,0,0-2.6.8,3.55,3.55,0,0,0-1.3,2.2c-.1.7-.5.9-.3,1.2s1.1-.2,2.1-.9A6.85,6.85,0,0,0,14,22.07Z"/>
            <path id="Path_53867" data-name="Path 53867" class="cls-1"
                  d="M15.63,22.67a3.48,3.48,0,0,0-1.7.7,4.9,4.9,0,0,0-1.7,1.8,4.12,4.12,0,0,1-1,1.3c-.2.1-.3.1-.3.3s1.3.2,2.2-.3a3.1,3.1,0,0,0,1.4-1.8,11.91,11.91,0,0,1,.9-1.5C15.83,22.87,15.63,22.77,15.63,22.67Z"/>
            <path id="Path_53868" data-name="Path 53868" class="cls-1"
                  d="M24.53,19.67c-.8-.1-2.5-.3-4-.5a8,8,0,0,0-4.3.9c-1,.6-2.1,2.2-1.9,2.3s.3.1.7-.1a4.92,4.92,0,0,1,1.7-.6,15.33,15.33,0,0,1,3.7.2,8.68,8.68,0,0,0,4.8-1c1.3-.6,1.9-1.4,1.8-1.6A18.66,18.66,0,0,1,24.53,19.67Z"/>
            <path id="Path_53869" data-name="Path 53869" class="cls-1"
                  d="M22.83,22.37a18.21,18.21,0,0,1-3.3.1,4.36,4.36,0,0,0-3.6,1.1c-.6.5-1.3,1.8-1,1.9s.7-.7,1.8-.8a12.29,12.29,0,0,0,2.7.2,6.42,6.42,0,0,0,3-1.1,17.53,17.53,0,0,0,2.3-1.9C24.73,21.67,24.13,22.17,22.83,22.37Z"/>
        </g>
    </g>
</svg>