<svg xmlns="http://www.w3.org/2000/svg" viewBox="0 0 68.22 58.29"><defs><style>.cls-1{fill:#022e46;}</style></defs><g id="Layer_2" data-name="Layer 2"><g id="Layer_10" data-name="Layer 10"><path id="Path_53849" data-name="Path 53849" class="cls-1" d="M19.14,39.52c.47,0,2.31,0,2.31,0,.86,0,.52-.47.42-.59a6.28,6.28,0,0,0-6.31-2.3c-.7.1-.46.5-.26.65C16.22,38,18.13,39.5,19.14,39.52Z"/><path id="Path_53850" data-name="Path 53850" class="cls-1" d="M25.05,39.52c.47,0,2.31,0,2.31,0,.86,0,.52-.47.42-.59a6.28,6.28,0,0,0-6.31-2.3c-.7.1-.46.5-.26.65C22.13,38,24.05,39.5,25.05,39.52Z"/><path id="Path_53851" data-name="Path 53851" class="cls-1" d="M31,39.52c.47,0,2.31,0,2.31,0,.86,0,.52-.47.42-.59a6.28,6.28,0,0,0-6.31-2.3c-.7.1-.46.5-.26.65C28,38,30,39.5,31,39.52Z"/><path id="Path_53852" data-name="Path 53852" class="cls-1" d="M36.86,39.52c.48,0,2.31,0,2.31,0,.87,0,.53-.47.42-.59a6.25,6.25,0,0,0-6.3-2.3c-.7.1-.46.5-.26.65C34,38,35.87,39.5,36.86,39.52Z"/><path id="Path_53853" data-name="Path 53853" class="cls-1" d="M42.77,39.52c.47,0,2.31,0,2.31,0,.87,0,.53-.47.42-.59a6.25,6.25,0,0,0-6.3-2.3c-.7.1-.47.5-.26.65C39.85,38,41.77,39.5,42.77,39.52Z"/><path id="Path_53854" data-name="Path 53854" class="cls-1" d="M48.68,39.52c.47,0,2.31,0,2.31,0,.87,0,.52-.47.42-.59a6.26,6.26,0,0,0-6.3-2.3c-.7.1-.47.5-.27.65C45.76,38,47.68,39.5,48.68,39.52Z"/><path id="Path_53855" data-name="Path 53855" class="cls-1" d="M42.26,28.81c1.4,1.13,3.25,2.44,3.63,4.12a3.68,3.68,0,0,1-.24,3,3,3,0,0,0-1.29.2,2,2,0,0,1-1.18.24c-.39-.12-.34-.22-.34-.22a2.71,2.71,0,0,0,1-2.53c-.32-1.5-1.53-2.18-2.14-2.81-2.09-1.76-3.2-3.39-3.14-5,0-2.72,1.8-4.3,3.15-4.4A2.33,2.33,0,0,1,43.74,20c1,0,1.63,1,1.63,2.11s.23,3.57,2.25,2.83a3,3,0,0,1-2.27,1.44c-.42,0-2,.15-2.76-2.47-.18-.57-.39-1.48-.92-1.48C40.13,22.45,37.83,25.21,42.26,28.81Z"/><path id="Path_53856" data-name="Path 53856" class="cls-1" d="M18.77,13.11a3.52,3.52,0,0,0-2.72-2.7A7.3,7.3,0,0,1,15.91,9a8.27,8.27,0,0,1,1,.12c.3.08.78.39.89.17s-.11-.2-.11-.42.37,0,.37-.36-.37-.13-.37-.36.29-.29.14-.5-.58.18-.92.24a8,8,0,0,1-1,0h0A6.37,6.37,0,0,1,16,7c.06-.33.47-.79.23-.93s-.26.15-.49.15-.05-.38-.36-.38-.13.38-.36.38-.22-.25-.42-.12.09.59.17.9a8.49,8.49,0,0,1,.11,1h0a6.38,6.38,0,0,1-1,0c-.33-.06-.77-.45-.93-.23s.15.26.15.49-.38,0-.38.36.38.13.38.36-.24.22-.12.42.59-.09.9-.17a7,7,0,0,1,1-.11,7.33,7.33,0,0,1-.17,1.39,3.52,3.52,0,0,0-2.77,2.67.66.66,0,0,0-.39.66.63.63,0,0,0,.35.7,3.51,3.51,0,0,0,6.92,0,.68.68,0,0,0,.32-.68A.62.62,0,0,0,18.77,13.11Zm-1,1H12.87a.34.34,0,0,1,0-.67h1.89a.23.23,0,0,0,.23-.24h0V11.4a.34.34,0,0,1,.67,0v1.82a.24.24,0,0,0,.22.26h1.87a.34.34,0,1,1,0,.67Z"/><path id="Path_53857" data-name="Path 53857" class="cls-1" d="M25.49,27.11a6.25,6.25,0,0,1,4-1.72,8.13,8.13,0,0,0,2.41-.18c.79-.2,1.7-.68,1.85-.46a9.19,9.19,0,0,0,1.83,2.82,17.73,17.73,0,0,1,3.25,4.53,6.3,6.3,0,0,1,.67,3.52c-.1.36-.79.55-1.08.62A2.44,2.44,0,0,1,36.91,36a6.28,6.28,0,0,0-2.51-.25c-.54,0-1.3.16-1.4,0a7.69,7.69,0,0,0-1.56-1.66c-1.07-.83-3-1.6-3.9-2.27a5.28,5.28,0,0,1-1.86-2c-.23-.83-.62-.82-1-.79s-.74.2-.87-.08A6.89,6.89,0,0,1,25.49,27.11Z"/><path id="Path_53858" data-name="Path 53858" class="cls-1" d="M43.94,10.2c-.22.1-.61-.5-.55-1.4s.16-.92.27-1.13.61-.75.45-.93-.34,0-.6-.12S43,5.34,43.1,5s.45-.82.31-1-.67.16-.74-.2-.2-.45-.07-.63a1.26,1.26,0,0,0,.15-.66c-.08-.3-.41-.09-.7-.3S40.82,1,40.57.83A7,7,0,0,1,39.3.38c-.18-.2-.27-.46-.7-.32s-.51.25-.71.18-.48-.39-.75-.15-.33.43-.55.4a2.61,2.61,0,0,0-1.42.35c-.18.13-.24.39-.06.35.42-.06.87,0,.71.34S35.45,1.8,35,2l-.78.3a2,2,0,0,0-.91.8c-.23.39-2.52,1.09-3,1.32s-.75.36-.81.6-.17.49,0,.74,0,.34,0,.59a1.34,1.34,0,0,0,.67,1.11,1.55,1.55,0,0,0,1.3.07c.56-.23,1.63-.67,2-.46s.5.89.35,1.45a.51.51,0,0,1-.63.35h0c-.16,0-.35-.54-.73-.73s-1.12-.23-3.37-.2c-1.43,0-1.33-.37-1.35-.59s-.11-.33-.37-.24a.87.87,0,0,0-.59,1.07.88.88,0,0,0,.11.24c.3.57,1.64.31,2,.2a8.61,8.61,0,0,1,2.72-.25c.42.17.28.59,0,.59s-.41-.42-.75-.32-.2.39-.48.69a.82.82,0,0,0,.06,1.15l.05,0a2.31,2.31,0,0,0,.83.41.45.45,0,0,1,.34.36c0,.15.33.15.43,0s.73-.9,1.4-.9.86,0,1.08.14a1.7,1.7,0,0,0,1,.31,8.59,8.59,0,0,0,2.9-.22c.77-.31,2.23-1.38,2.48-1.22s.24.29.27.67,0,3.54,1,3.76,1.27-.24,1.37-.41,0-.16-.29-.42-.4-1.05-.06-1.36,1-.61,1.14-1.09S44.09,10.14,43.94,10.2Zm-9-5.28a.58.58,0,0,1-.6-.56A.6.6,0,0,1,35,3.8a.62.62,0,0,1,.57.56.59.59,0,0,1-.62.56Z"/><path id="Path_53859" data-name="Path 53859" class="cls-1" d="M32,15.81c-.09-.13,0-.34.54-.74a4,4,0,0,1,3-1.27,10.64,10.64,0,0,0,3.42-.23c1.2-.41,1.73-1.19,2.07-1s.35.85,0,1.6c-.43,1-2,1.64-4,1.6-2.25-.06-2.89-.1-3.49,0C32.37,15.82,32.06,15.9,32,15.81Z"/><path id="Path_53860" data-name="Path 53860" class="cls-1" d="M19.18,12.64c.08.26.19.22.39.42s.3,1.09.48,1.38.57,0,.84.16.14.44.35.59.39,0,.64,0,.16.23.33.35.74.12.95.27.65.53,1-.09a9.4,9.4,0,0,1,1.44-1.38c.21-.14.53-.34.24-.67s-2.28-.67-2.73-.83-1.32-1.62-1.68-1.79a6.67,6.67,0,0,0-2.24-.45c-.75,0-.79.22-.79.22-.21.32.05.55.2.72A4.7,4.7,0,0,1,19.18,12.64Z"/><path id="Path_53861" data-name="Path 53861" class="cls-1" d="M31.56,14.87A33.27,33.27,0,0,1,28,14.53a4.33,4.33,0,0,0-3.3,1.31c-.53.36-.38.58-.38.58.17.3,1.35-.06,2.15,0a13.2,13.2,0,0,0,2.65.36,4.22,4.22,0,0,0,2.85-1.67C32.11,14.92,32,14.8,31.56,14.87Z"/><path id="Path_53862" data-name="Path 53862" class="cls-1" d="M27.68,14.16a7.32,7.32,0,0,1,1.93.07,8.79,8.79,0,0,0,2.66.06c.65-.12,1.7-.58,1.45-.83s-.55.1-1.38-.16a7.07,7.07,0,0,0-2.17-.5c-2.06-.2-3.39,1-3.32,1.15S27.3,14.18,27.68,14.16Z"/><path id="Path_53863" data-name="Path 53863" class="cls-1" d="M31.65,12.52c.27.09.86.17,1.77.42a11.36,11.36,0,0,0,4.22.41,4.08,4.08,0,0,0,3.12-1.69,1.27,1.27,0,0,0,0-1.34c-.17-.17-.26-.24-.7,0a7.21,7.21,0,0,1-3.21.88,12.9,12.9,0,0,0-3.92.2c-1.29.2-2.2.74-2.12.89S31.33,12.43,31.65,12.52Z"/><path id="Path_53864" data-name="Path 53864" class="cls-1" d="M41.18,15.41c-.11-.22-1,.36-1.78.64a8.8,8.8,0,0,1-3.57.35,13.38,13.38,0,0,0-4.72.23c-2.14.44-3.8,2.57-3.55,2.79s.55-.22,1-.45a9.07,9.07,0,0,1,3.13-.53c1.24.11,2.48.29,3.7.52a5.1,5.1,0,0,0,4.05-1.07C40.88,16.9,41.29,15.63,41.18,15.41Z"/><path id="Path_53865" data-name="Path 53865" class="cls-1" d="M24.86,20.19c1.34.06,1.61.24,1.9-.26s.12-1.11.91-1.85c.51-.47.82-.64.51-.86s-1.21.3-2.08.2a21.3,21.3,0,0,0-3,0,35.76,35.76,0,0,0-3.71.73,17.48,17.48,0,0,1-2.15-.34,8,8,0,0,0-1.77,0,20.84,20.84,0,0,1-2.23.25c-.36-.06-.89-.06-1,.22s.14.35.66.68,1.24,1.56,1.81,1.91a4.24,4.24,0,0,0,2.42,0,11.35,11.35,0,0,1,2.33-.13,23.6,23.6,0,0,0,2.78-.29A10.23,10.23,0,0,1,24.86,20.19Z"/><path id="Path_53866" data-name="Path 53866" class="cls-1" d="M25.44,22c.36-.75.7-.93.62-1.22s-1.93.22-2.61.76a3.57,3.57,0,0,0-1.27,2.17c-.07.7-.52.89-.3,1.18s1.08-.18,2.1-.95A4.09,4.09,0,0,0,25.44,22Z"/><path id="Path_53867" data-name="Path 53867" class="cls-1" d="M27.06,22.62c-.13-.13-.89.2-1.67.72a5.14,5.14,0,0,0-1.67,1.77,3.54,3.54,0,0,1-1,1.28c-.22.13-.34.15-.31.27s1.29.23,2.19-.27a3.47,3.47,0,0,0,1.44-1.82A8.06,8.06,0,0,1,27,23.09C27.23,22.82,27.1,22.68,27.06,22.62Z"/><path id="Path_53868" data-name="Path 53868" class="cls-1" d="M36,19.57c-.81-.06-2.46-.27-4-.49a7,7,0,0,0-4.25.93c-1,.6-2.06,2.17-1.85,2.35s.28.06.69-.15a5.75,5.75,0,0,1,1.67-.55,19,19,0,0,1,3.69.16,9.15,9.15,0,0,0,4.84-1c1.34-.63,1.93-1.4,1.79-1.63A11.49,11.49,0,0,1,36,19.57Z"/><path id="Path_53869" data-name="Path 53869" class="cls-1" d="M34.23,22.25a19.19,19.19,0,0,1-3.3.14,4.64,4.64,0,0,0-3.59,1.09c-.57.49-1.25,1.81-1.05,1.89s.69-.75,1.76-.75a16.24,16.24,0,0,0,2.7.25,6.77,6.77,0,0,0,3-1.1c1.25-1,2.32-1.66,2.29-1.93S35.54,22.14,34.23,22.25Z"/><path id="Path_53872" data-name="Path 53872" class="cls-1" d="M67.89,54.24h0v0l0,0a22.92,22.92,0,0,1-2.12-4.81,9.49,9.49,0,0,0-.63-1.6c-.76-1.33-2.8-1.41-4-1a21.54,21.54,0,0,0-5,2.93,1.92,1.92,0,0,0-.2-1.13,19,19,0,0,1-1.69-4.35,7.42,7.42,0,0,0-.64-1.78c-.57-1-1.91-1.4-4-1.19a23.84,23.84,0,0,0-5.1,1.35c-.64.21-1.31.44-2,.64l-1.43.45a21.5,21.5,0,0,1-7,1.35,17,17,0,0,1-6.46-1.19l-1.91-.61c-.64-.2-1.3-.42-1.95-.64a23.84,23.84,0,0,0-5.1-1.35c-2.09-.2-3.43.2-4,1.19A8.13,8.13,0,0,0,14,44.18a19.15,19.15,0,0,1-1.68,4.33,1.81,1.81,0,0,0-.2,1.14A21.4,21.4,0,0,0,7.1,46.72c-1.2-.37-3.24-.29-4,1.05a8.87,8.87,0,0,0-.63,1.6,23.5,23.5,0,0,1-2.09,4.8l0,0h0a2.81,2.81,0,0,0,.84,3.63,2.35,2.35,0,0,0,1.35.43,2.71,2.71,0,0,0,.4,0,2.29,2.29,0,0,0,1.51-1,1.69,1.69,0,0,0,.25-.48h0a2.17,2.17,0,0,0,.07-.24l.64-2.28.81.39a21.89,21.89,0,0,0,4.54,1.86,5.08,5.08,0,0,0,3.59-.41,2.25,2.25,0,0,0,1-1.44.5.5,0,0,1,0-.12h0a.37.37,0,0,1,0-.11,18.19,18.19,0,0,0,.19-1.94,11.4,11.4,0,0,1,.66-3.84A10.71,10.71,0,0,1,18.84,50c3.52,2.22,9,4.87,15.26,4.87S45.84,52.17,49.36,50A10.89,10.89,0,0,1,52,48.68a11.4,11.4,0,0,1,.66,3.84,17.76,17.76,0,0,0,.19,1.93.49.49,0,0,0,0,.12h0a.53.53,0,0,0,0,.12,2.2,2.2,0,0,0,1,1.44,5.09,5.09,0,0,0,3.59.41A21.89,21.89,0,0,0,62,54.68l.81-.39.64,2.28a2.17,2.17,0,0,0,.07.24h0a1.69,1.69,0,0,0,.25.48,2.29,2.29,0,0,0,1.51,1,2.71,2.71,0,0,0,.4,0A2.35,2.35,0,0,0,67,57.86,2.81,2.81,0,0,0,67.89,54.24ZM3.79,56.35l0,.1a.92.92,0,0,1-.14.28,1.37,1.37,0,0,1-1.9.33,1.83,1.83,0,0,1-.55-2.36l0-.05a1,1,0,0,1,.08-.14,2.4,2.4,0,0,1,1.28-.91l-.39.85h0l0,.08,0,0h0l-.24.59.53.37a.69.69,0,0,1,1-.16h0A1,1,0,0,1,3.79,56.35Zm.44-1.56A1.55,1.55,0,0,0,4,54.55a1.8,1.8,0,0,0-.62-.27l.33-.73a6.45,6.45,0,0,1,.83.32Zm10.17-.52a2.23,2.23,0,0,1,0,.23,1.23,1.23,0,0,1-.56.82,4.21,4.21,0,0,1-2.86.27,21.2,21.2,0,0,1-4.3-1.78,14,14,0,0,0-3-1.26h0a3.36,3.36,0,0,0-1.37.14,25.19,25.19,0,0,0,1.18-3A8.17,8.17,0,0,1,4,48.25c.46-.8,2-.86,2.87-.58a21.67,21.67,0,0,1,5.56,3.43c1.73,1.44,2.06,2.5,2,3.17Zm.2-2.3a6.42,6.42,0,0,0-.53-.64h0c-.89-1.06-1.17-2-.75-2.49a2.22,2.22,0,0,1,1.93-.37,11.66,11.66,0,0,0-.66,3.5Zm34.25-2.84c-3.41,2.15-8.73,4.72-14.74,4.72s-11.32-2.57-14.73-4.72A8.4,8.4,0,0,0,14,47.49a21.92,21.92,0,0,0,1-3.05,7.81,7.81,0,0,1,.55-1.56c.35-.62,1.41-.87,3.05-.7a23.57,23.57,0,0,1,4.88,1.29c.65.22,1.32.45,2,.65s1.34.42,1.9.6A17.84,17.84,0,0,0,34.12,46a22,22,0,0,0,7.22-1.4l1.43-.45c.65-.2,1.33-.43,2-.65a24.24,24.24,0,0,1,4.88-1.3c1.64-.16,2.7.08,3,.7a7.32,7.32,0,0,1,.55,1.57,20.73,20.73,0,0,0,1.05,3,8.42,8.42,0,0,0-5.44,1.64ZM53,48.46a2.2,2.2,0,0,1,1.92.37c.43.49.14,1.44-.74,2.49h0a6.54,6.54,0,0,0-.53.65,11.66,11.66,0,0,0-.66-3.5Zm8.61,5.34a21.82,21.82,0,0,1-4.3,1.79,4.21,4.21,0,0,1-2.86-.27,1.3,1.3,0,0,1-.58-.83l0-.23c-.07-.66.26-1.72,2-3.18a22.07,22.07,0,0,1,5.55-3.43c.89-.27,2.41-.21,2.88.59a9.06,9.06,0,0,1,.55,1.42,25.13,25.13,0,0,0,1.17,3,3.53,3.53,0,0,0-1.37-.15h0a15,15,0,0,0-3,1.28Zm3-.25.33.73a1.8,1.8,0,0,0-.62.27,1.55,1.55,0,0,0-.27.24l-.26-.93a7.3,7.3,0,0,1,.82-.31Zm1.93,3.52a1.37,1.37,0,0,1-1.9-.33,1.43,1.43,0,0,1-.13-.28l0-.1a1,1,0,0,1,.39-1,.7.7,0,0,1,1,.17h0l.53-.38-.39-.9-.29-.64a2.43,2.43,0,0,1,1.28.92l.09.13,0,.05a1.83,1.83,0,0,1-.55,2.36Z"/><path id="Path_53873" data-name="Path 53873" class="cls-1" d="M27.64,51.58h0a1.92,1.92,0,0,1-.48-.15,1.7,1.7,0,0,1-1.09-1.51c0-.2-.07-.44-.1-.66s0-.35-.06-.49a.37.37,0,0,0-.3-.36.38.38,0,0,0-.15,0s0,0-.05.08l-.35.87c-.28.69-.24.72,0,.87l.15.09v0a.19.19,0,0,1,0,.18.16.16,0,0,1-.12.09h0l-.89-.4c-.31-.12-.61-.24-.93-.35h0a.18.18,0,0,1,0-.16.18.18,0,0,1,.11-.13h0l.17.05.21,0c.12,0,.21-.1.43-.63l1-2.5c.27-.67.27-.7,0-.84l-.18-.1v0a.2.2,0,0,1,0-.17.14.14,0,0,1,.11-.09h0a16.93,16.93,0,0,1,1.6.59,3,3,0,0,1,1.23.78,1.22,1.22,0,0,1,.2,1.29,1.32,1.32,0,0,1-1.3.78v.11A7.8,7.8,0,0,0,27.33,51a.94.94,0,0,0,.36.38h0v0a.21.21,0,0,1-.06.21Zm-1.25-5.44c-.06,0-.09,0-.17.24l-.58,1.42c-.08.18-.08.18.2.29A.86.86,0,0,0,27,47.8a.85.85,0,0,0,.11-.26,1,1,0,0,0-.42-1.28l-.08,0A1.21,1.21,0,0,0,26.39,46.14Z"/><path id="Path_53874" data-name="Path 53874" class="cls-1" d="M31.91,52.28h0c-.33-.06-.67-.1-1-.15l-1-.1h0a.14.14,0,0,1-.06-.12.24.24,0,0,1,.07-.18h.21c.34,0,.4,0,.49-.78l.33-2.83c.09-.78,0-.78-.29-.88l-.18,0v0a.23.23,0,0,1,0-.2.19.19,0,0,1,.09-.11h0c.32.06.67.1,1,.15l1,.1h0a.13.13,0,0,1,.06.12.22.22,0,0,1-.06.18h-.22c-.34,0-.39,0-.48.78L31.51,51c-.1.78,0,.78.28.88L32,52v0a.2.2,0,0,1,0,.2.14.14,0,0,1-.09.11Z"/><path id="Path_53875" data-name="Path 53875" class="cls-1" d="M35.85,52.31h0a.19.19,0,0,1-.09-.14.21.21,0,0,1,0-.17h0l.32-.07c.33-.06.39-.07.3-.85l-.33-3.3c0-.28,0-.28-.1-.28h-.08l-.43,0c-.67.06-.86.15-1.08.78h0a.16.16,0,0,1-.14.05.21.21,0,0,1-.2-.08v0c.08-.41.15-.89.18-1.17v0a.13.13,0,0,1,.12-.06.14.14,0,0,1,.12,0v0c0,.09.06.12.22.12l.41,0,3.11-.31c.38,0,.46-.07.52-.23h0a.22.22,0,0,1,.11,0,.18.18,0,0,1,.14,0l0,0v0a4.9,4.9,0,0,0,0,1.21v0a.21.21,0,0,1-.2.1l-.12,0h0v0c-.12-.47-.24-.62-.71-.62-.12,0-.25,0-.37,0l-.44,0c-.15,0-.15,0-.12.3l.33,3.3c.08.78.13.78.47.78h.31a.23.23,0,0,1,.06.18.16.16,0,0,1-.06.12h0L37,52.15l-1.18.15Z"/><path id="Path_53876" data-name="Path 53876" class="cls-1" d="M42,51.14a.16.16,0,0,1-.14-.14h0l0,0c.06-.22.22-.8.31-1.32l.54-2.91c.06-.29.11-.59.14-.88a.64.64,0,0,0-.18.06l-.82.35c-.52.22-.78.4-.87.62a1.86,1.86,0,0,0-.08.62v0a.24.24,0,0,1-.32.06v0h0l-.06-.42c0-.29-.08-.56-.14-.84v0a.16.16,0,0,1,.19-.07h0a.14.14,0,0,0,.12.06h0a2.49,2.49,0,0,0,.6-.2l1.77-.76a7.12,7.12,0,0,0,.74-.35h0a.16.16,0,0,1,.15.12v0c-.11.25-.33,1.48-.41,1.88l-.39,2.11a7.6,7.6,0,0,0-.17,1.08h0a.37.37,0,0,0,.15,0c.15,0,.32-.11.79-.31a2.66,2.66,0,0,0,1.07-.64,1.37,1.37,0,0,0,.18-.89v0a.25.25,0,0,1,.2-.09.17.17,0,0,1,.12.05v0a3.41,3.41,0,0,1,.15,1.27v0h0c-.4.15-.79.31-1.26.51l-1.75.75a6.29,6.29,0,0,0-.7.32Z"/></g></g></svg>