<?xml version="1.0" encoding="utf-8"?>
<svg xmlns="http://www.w3.org/2000/svg" width="16.795" height="13.65" viewBox="0 0 16.795 13.65">
    <path id="Path_102" data-name="Path 102" d="M23.932,135.839a9.737,9.737,0,0,0,9.8-9.8q0-.224-.01-.445a7.015,7.015,0,0,0,1.719-1.784,6.885,6.885,0,0,1-1.979.542,3.457,3.457,0,0,0,1.515-1.906,6.9,6.9,0,0,1-2.188.836,3.449,3.449,0,0,0-5.872,3.143,9.783,9.783,0,0,1-7.1-3.6,3.448,3.448,0,0,0,1.067,4.6,3.422,3.422,0,0,1-1.561-.431c0,.014,0,.029,0,.044a3.447,3.447,0,0,0,2.765,3.378,3.447,3.447,0,0,1-1.556.059,3.45,3.45,0,0,0,3.219,2.393,6.915,6.915,0,0,1-4.28,1.475,7.04,7.04,0,0,1-.822-.048,9.758,9.758,0,0,0,5.282,1.548" transform="translate(-18.65 -122.189)" fill="#fff"/>
</svg>
