<?xml version="1.0" encoding="utf-8"?>
<svg xmlns="http://www.w3.org/2000/svg" width="65.636" height="4.67" viewBox="0 0 65.636 4.67">
    <g id="Group_1171" data-name="Group 1171" transform="translate(-658 -1051.451)">
        <path id="Path_54012" data-name="Path 54012"
              d="M165.643,191.5c.726.057,3.547,0,3.547,0,1.331,0,.807-.72.648-.9a9.625,9.625,0,0,0-9.683-3.541c-1.068.165-.711.765-.4,1C161.163,189.127,164.1,191.472,165.643,191.5Z"
              transform="translate(498.562 864.6)" fill="#666"/>
        <path id="Path_54013" data-name="Path 54013"
              d="M195.91,191.5c.726.057,3.55,0,3.55,0,1.331,0,.807-.72.648-.9a9.625,9.625,0,0,0-9.683-3.541c-1.068.165-.711.765-.4,1C191.43,189.127,194.378,191.472,195.91,191.5Z"
              transform="translate(479.292 864.6)" fill="#666"/>
        <path id="Path_54014" data-name="Path 54014"
              d="M226.16,191.5c.726.057,3.55,0,3.55,0,1.331,0,.807-.72.648-.9a9.625,9.625,0,0,0-9.683-3.541c-1.068.165-.711.765-.4,1C221.683,189.127,224.631,191.472,226.16,191.5Z"
              transform="translate(460.042 864.6)" fill="#666"/>
        <path id="Path_54015" data-name="Path 54015"
              d="M256.413,191.5c.726.057,3.547,0,3.547,0,1.331,0,.807-.72.648-.9a9.625,9.625,0,0,0-9.683-3.541c-1.068.165-.711.765-.4,1C251.945,189.127,254.884,191.472,256.413,191.5Z"
              transform="translate(440.792 864.6)" fill="#666"/>
        <path id="Path_54016" data-name="Path 54016"
              d="M286.676,191.5c.726.057,3.547,0,3.547,0,1.331,0,.807-.72.648-.9a9.625,9.625,0,0,0-9.683-3.541c-1.064.165-.711.765-.4,1C282.2,189.127,285.143,191.472,286.676,191.5Z"
              transform="translate(421.528 864.6)" fill="#666"/>
        <path id="Path_54017" data-name="Path 54017"
              d="M316.923,191.5c.726.057,3.547,0,3.547,0,1.331,0,.807-.72.648-.9a9.625,9.625,0,0,0-9.683-3.541c-1.068.165-.711.765-.4,1C312.446,189.127,315.394,191.472,316.923,191.5Z"
              transform="translate(402.281 864.6)" fill="#666"/>
    </g>
</svg>
