<?xml version="1.0" encoding="utf-8"?>
<svg xmlns="http://www.w3.org/2000/svg" width="134.768" height="102.001" viewBox="0 0 134.768 102.001">
    <g id="Layer_2" data-name="Layer 2" transform="translate(0 0.028)">
        <g id="Layer_10" data-name="Layer 10" transform="translate(0 -0.028)">
            <path id="Path_53849" data-name="Path 53849"
                  d="M164.863,190.912c.634.05,3.1,0,3.1,0,1.164,0,.705-.629.566-.786a8.415,8.415,0,0,0-8.465-3.1c-.933.144-.621.669-.351.876C160.946,188.841,163.518,190.891,164.863,190.912Z"
                  transform="translate(-117.64 -137.859)" fill="#fff"/>
            <path id="Path_53850" data-name="Path 53850"
                  d="M195.13,190.912c.634.05,3.1,0,3.1,0,1.164,0,.705-.629.566-.786a8.415,8.415,0,0,0-8.465-3.1c-.933.144-.621.669-.351.876C191.214,188.841,193.791,190.891,195.13,190.912Z"
                  transform="translate(-139.975 -137.859)" fill="#fff"/>
            <path id="Path_53851" data-name="Path 53851"
                  d="M225.38,190.912c.634.05,3.1,0,3.1,0,1.164,0,.705-.629.566-.786a8.415,8.415,0,0,0-8.465-3.1c-.933.144-.621.669-.351.876C221.466,188.841,224.043,190.891,225.38,190.912Z"
                  transform="translate(-162.294 -137.859)" fill="#fff"/>
            <path id="Path_53852" data-name="Path 53852"
                  d="M255.633,190.912c.634.05,3.1,0,3.1,0,1.164,0,.705-.629.566-.786a8.415,8.415,0,0,0-8.465-3.1c-.933.144-.621.669-.351.876C251.727,188.841,254.3,190.891,255.633,190.912Z"
                  transform="translate(-184.614 -137.859)" fill="#fff"/>
            <path id="Path_53853" data-name="Path 53853"
                  d="M285.9,190.912c.634.05,3.1,0,3.1,0,1.164,0,.705-.629.566-.786a8.415,8.415,0,0,0-8.465-3.1c-.931.144-.621.669-.351.876C281.979,188.841,284.556,190.891,285.9,190.912Z"
                  transform="translate(-206.944 -137.859)" fill="#fff"/>
            <path id="Path_53854" data-name="Path 53854"
                  d="M316.143,190.912c.634.05,3.1,0,3.1,0,1.164,0,.705-.629.566-.786a8.415,8.415,0,0,0-8.465-3.1c-.933.144-.621.669-.351.876C312.229,188.841,314.806,190.891,316.143,190.912Z"
                  transform="translate(-229.261 -137.859)" fill="#fff"/>
            <path id="Path_53855" data-name="Path 53855"
                  d="M284.4,114.376c1.869,1.523,4.354,3.272,4.874,5.529s.06,3.408-.328,4.011a3.99,3.99,0,0,0-1.738.281,2.714,2.714,0,0,1-1.573.32c-.524-.168-.456-.3-.456-.3a3.674,3.674,0,0,0,1.29-3.395c-.438-2.019-2.061-2.936-2.884-3.78-2.795-2.359-4.292-4.546-4.213-6.751,0-3.652,2.412-5.767,4.234-5.9a3.117,3.117,0,0,1,2.781-1.78c1.408,0,2.184,1.287,2.184,2.826s.3,4.792,3.02,3.807c-.467,1.279-2.49,1.927-3.051,1.927s-2.666.2-3.707-3.319c-.241-.763-.524-1.974-1.232-1.974C281.532,105.835,278.454,109.544,284.4,114.376Z"
                  transform="translate(-206.13 -75.703)" fill="#fff"/>
            <path id="Path_53856" data-name="Path 53856"
                  d="M150.87,39.453a4.719,4.719,0,0,0-3.652-3.618,10.225,10.225,0,0,1-.189-1.88,10.657,10.657,0,0,1,1.345.155c.409.1,1.049.524,1.2.225s-.149-.262-.149-.556.5-.06.5-.493-.5-.168-.5-.482.391-.385.191-.661-.786.236-1.237.312a9.043,9.043,0,0,1-1.311.058V32.5a8.157,8.157,0,0,1,.06-1.311c.079-.446.629-1.064.307-1.243s-.349.191-.661.191-.055-.5-.474-.5-.181.5-.493.5-.294-.33-.561-.155.121.786.225,1.206a10.557,10.557,0,0,1,.157,1.34h-.037a8.819,8.819,0,0,1-1.311-.058c-.446-.076-1.03-.6-1.248-.312s.2.351.2.661-.5.058-.5.482.5.176.5.493-.32.288-.152.556.786-.121,1.2-.225a10.562,10.562,0,0,1,1.342-.155,10.867,10.867,0,0,1-.228,1.869,4.719,4.719,0,0,0-3.728,3.592c-.244.089-.49.32-.524.889a.868.868,0,0,0,.475.936,4.719,4.719,0,0,0,9.288-.016.925.925,0,0,0,.435-.92A.847.847,0,0,0,150.87,39.453Zm-1.363,1.387h-6.554a.448.448,0,0,1,0-.9h2.54a.315.315,0,0,0,.3-.338V37.164a.448.448,0,1,1,.9,0v2.441a.322.322,0,0,0,.312.346h2.5a.448.448,0,0,1,0,.9Z"
                  transform="translate(-104.138 -21.855)" fill="#fff"/>
            <path id="Path_53857" data-name="Path 53857"
                  d="M206.163,129.664a8.41,8.41,0,0,1,5.414-2.307,11.312,11.312,0,0,0,3.238-.239c1.064-.262,2.278-.912,2.475-.619a12.832,12.832,0,0,0,2.456,3.791,23.456,23.456,0,0,1,4.368,6.077,8.314,8.314,0,0,1,.894,4.719c-.128.5-1.049.742-1.439.842a3.271,3.271,0,0,1-2.066-.343,8.516,8.516,0,0,0-3.382-.328c-.718.045-1.735.212-1.885.045a10.262,10.262,0,0,0-2.082-2.228c-1.447-1.1-4.037-2.142-5.243-3.041a7.1,7.1,0,0,1-2.491-2.705c-.32-1.106-.842-1.091-1.384-1.049-.38.039-.991.262-1.172-.11A9.529,9.529,0,0,1,206.163,129.664Z"
                  transform="translate(-150.415 -93.275)" fill="#fff"/>
            <path id="Path_53858" data-name="Path 53858"
                  d="M242.15,13.672c-.3.123-.826-.676-.737-1.877s.21-1.243.357-1.528c.22-.43.823-1,.608-1.248s-.459-.066-.8-.155-.726-1.715-.556-2.226.608-1.1.419-1.282c-.322-.325-.9.223-.988-.262-.06-.338-.262-.6-.094-.842a1.746,1.746,0,0,0,.191-.881c-.1-.414-.551-.123-.933-.414s-1.646-1.715-1.982-1.88-1.46-.343-1.709-.6-.364-.616-.944-.43c-.409.131-.682.341-.96.244s-.634-.524-1-.2c-.241.186-.446.582-.745.54a3.651,3.651,0,0,0-1.9.464c-.233.186-.317.524-.076.482.564-.081,1.167-.018.954.451-.134.291-.5.362-1.049.592-.262.1-.713.281-1.049.4A2.668,2.668,0,0,0,227.923,4.1c-.3.524-3.377,1.458-4.016,1.775s-1.017.472-1.091.8-.231.65-.016.991.016.454-.042.786a1.789,1.789,0,0,0,.907,1.494,2.093,2.093,0,0,0,1.738.1c.752-.309,2.2-.907,2.734-.616s.661,1.185.467,1.945a.682.682,0,0,1-.9.451c-.215-.039-.472-.729-.978-.983s-1.5-.312-4.525-.262c-1.924.045-1.783-.5-1.809-.786s-.157-.451-.5-.322a1.161,1.161,0,0,0-.645,1.756c.4.76,2.2.422,2.674.262a11.362,11.362,0,0,1,3.644-.333c.572.225.372.786-.039.786-.325,0-.545-.556-1-.422s-.262.524-.645.915a1.093,1.093,0,0,0,.147,1.6,3.068,3.068,0,0,0,1.109.556.585.585,0,0,1,.461.482c.042.2.44.2.582.031.262-.3.973-1.206,1.869-1.206s1.159-.076,1.455.176a2.183,2.183,0,0,0,1.371.419,11.477,11.477,0,0,0,3.89-.288c1.025-.425,2.994-1.861,3.332-1.636s.322.38.364.9-.024,4.748,1.269,5.049,1.7-.32,1.835-.558c.212-.37-.058-.207-.38-.561-.262-.3-.543-1.41-.089-1.819s1.387-.826,1.528-1.463C242.727,13.638,242.352,13.588,242.15,13.672ZM230.065,6.578a.786.786,0,0,1-.813-.747.821.821,0,0,1,1.636,0A.786.786,0,0,1,230.065,6.578Z"
                  transform="translate(-161.628 0.028)" fill="#fff"/>
            <path id="Path_53859" data-name="Path 53859"
                  d="M245.9,68.51c-.126-.178.063-.454.724-.991a5.381,5.381,0,0,1,3.974-1.712,14.374,14.374,0,0,0,4.593-.312c1.6-.545,2.325-1.594,2.776-1.371s.469,1.148.066,2.144c-.569,1.376-2.622,2.207-5.382,2.144-3.015-.068-3.877-.126-4.677-.042C246.393,68.525,245.973,68.628,245.9,68.51Z"
                  transform="translate(-181.406 -47.283)" fill="#fff"/>
            <path id="Path_53860" data-name="Path 53860"
                  d="M177.047,56.977c.1.351.246.307.524.569s.4,1.468.64,1.851.771.052,1.127.215.186.59.469.786.524,0,.855,0,.218.32.443.48.991.163,1.285.354.873.71,1.311-.118a12.318,12.318,0,0,1,1.935-1.851c.275-.191.708-.454.325-.9s-3.067-.9-3.67-1.117-1.775-2.168-2.252-2.394a8.947,8.947,0,0,0-3.015-.611c-1,.034-1.049.3-1.049.3-.286.422.06.734.262.959A6.655,6.655,0,0,1,177.047,56.977Z"
                  transform="translate(-129.761 -40.013)" fill="#fff"/>
            <path id="Path_53861" data-name="Path 53861"
                  d="M216.214,74.774a46.636,46.636,0,0,1-4.824-.451c-2.433-.231-3.715,1.271-4.428,1.754s-.509.786-.509.786c.228.393,1.819-.081,2.884-.016a18.017,18.017,0,0,0,3.565.477c2.089-.029,3.594-1.979,3.82-2.231S216.754,74.677,216.214,74.774Z"
                  transform="translate(-152.31 -54.813)" fill="#fff"/>
            <path id="Path_53862" data-name="Path 53862"
                  d="M220.725,67.24a9.758,9.758,0,0,1,2.59.094,11.987,11.987,0,0,0,3.571.087c.865-.16,2.273-.786,1.948-1.114s-.737.134-1.851-.225a10.208,10.208,0,0,0-2.926-.674c-2.755-.262-4.548,1.311-4.457,1.552C219.726,67.25,220.214,67.269,220.725,67.24Z"
                  transform="translate(-162.028 -48.231)" fill="#fff"/>
            <path id="Path_53863" data-name="Path 53863"
                  d="M240.934,55.222c.37.113,1.154.22,2.38.558a15.156,15.156,0,0,0,5.665.545,5.439,5.439,0,0,0,4.195-2.262,1.715,1.715,0,0,0-.029-1.8c-.228-.223-.354-.317-.936.066a9.709,9.709,0,0,1-4.318,1.19,16.942,16.942,0,0,0-5.262.262c-1.73.262-2.949.994-2.847,1.188S240.515,55.094,240.934,55.222Z"
                  transform="translate(-176.918 -38.411)" fill="#fff"/>
            <path id="Path_53864" data-name="Path 53864"
                  d="M241.457,78.691c-.147-.291-1.348.49-2.388.857a11.73,11.73,0,0,1-4.792.469,18.247,18.247,0,0,0-6.339.309c-2.865.6-5.094,3.458-4.761,3.744.189.165.734-.288,1.361-.6a12.181,12.181,0,0,1,4.195-.7,48.133,48.133,0,0,1,4.965.7,6.851,6.851,0,0,0,5.44-1.442C241.056,80.689,241.609,78.987,241.457,78.691Z"
                  transform="translate(-164.645 -58.007)" fill="#fff"/>
            <path id="Path_53865" data-name="Path 53865"
                  d="M161.769,91.913c1.8.073,2.158.328,2.543-.354s.168-1.486,1.23-2.477c.687-.637,1.1-.855.679-1.159s-1.628.4-2.784.262a28.649,28.649,0,0,0-4.016-.037,45.043,45.043,0,0,0-4.981.98,24.357,24.357,0,0,1-2.884-.461,11.059,11.059,0,0,0-2.378-.052,28,28,0,0,1-3,.341c-.475-.089-1.193-.084-1.311.294-.157.5.191.475.881.907s1.667,2.1,2.433,2.564,2.721.2,3.248.037a15.1,15.1,0,0,1,3.122-.186,31.873,31.873,0,0,0,3.741-.385A13.485,13.485,0,0,1,161.769,91.913Z"
                  transform="translate(-106.86 -64.809)" fill="#fff"/>
            <path id="Path_53866" data-name="Path 53866"
                  d="M198.724,107.538c.485-1.009.933-1.256.834-1.638-.073-.307-2.593.294-3.5,1.02a4.8,4.8,0,0,0-1.715,2.9c-.086.944-.7,1.2-.393,1.589s1.447-.244,2.813-1.269A5.516,5.516,0,0,0,198.724,107.538Z"
                  transform="translate(-143.044 -78.069)" fill="#fff"/>
            <path id="Path_53867" data-name="Path 53867"
                  d="M203.2,115.7c-.173-.176-1.185.262-2.241.965a6.876,6.876,0,0,0-2.241,2.38,4.859,4.859,0,0,1-1.311,1.717c-.294.165-.451.194-.414.357.05.244,1.725.317,2.936-.357a4.7,4.7,0,0,0,1.932-2.441,10.747,10.747,0,0,1,1.219-2C203.434,115.971,203.266,115.774,203.2,115.7Z"
                  transform="translate(-145.347 -85.333)" fill="#fff"/>
            <path id="Path_53868" data-name="Path 53868"
                  d="M227.907,98.142c-1.088-.073-3.3-.362-5.421-.653a9.373,9.373,0,0,0-5.707,1.253c-1.311.8-2.761,2.91-2.491,3.146.165.157.383.092.928-.191a7.568,7.568,0,0,1,2.252-.739,25.67,25.67,0,0,1,4.944.207,12.161,12.161,0,0,0,6.5-1.366c1.8-.842,2.59-1.877,2.4-2.186C231.181,97.4,229.991,98.265,227.907,98.142Z"
                  transform="translate(-158.086 -71.876)" fill="#fff"/>
            <path id="Path_53869" data-name="Path 53869"
                  d="M227.3,112.1a26.407,26.407,0,0,1-4.425.184c-2.952-.068-4.042.815-4.813,1.465s-1.68,2.433-1.408,2.535c.359.134.931-1,2.359-1.012a21.451,21.451,0,0,0,3.626.336,8.947,8.947,0,0,0,4.042-1.471c1.675-1.387,3.109-2.22,3.07-2.588S229.062,111.954,227.3,112.1Z"
                  transform="translate(-159.818 -82.229)" fill="#fff"/>
            <path id="Path_53870" data-name="Path 53870" d="M155.28,268.19" transform="translate(-114.572 -197.874)"
                  fill="#fff"/>
            <path id="Path_53871" data-name="Path 53871" d="M358.3,268.19" transform="translate(-264.369 -197.874)"
                  fill="#fff"/>
            <path id="Path_53872" data-name="Path 53872"
                  d="M173.269,228.252h0v-.021l-.039-.068a31.389,31.389,0,0,1-2.844-6.454,11.834,11.834,0,0,0-.849-2.147c-1.022-1.788-3.759-1.9-5.377-1.4a28.806,28.806,0,0,0-6.774,3.932,2.553,2.553,0,0,0-.262-1.523,25.783,25.783,0,0,1-2.268-5.83,10.09,10.09,0,0,0-.857-2.4c-.763-1.337-2.567-1.874-5.361-1.6a32.568,32.568,0,0,0-6.845,1.806c-.865.294-1.762.6-2.622.863-.695.212-1.332.412-1.927.6a28.452,28.452,0,0,1-9.338,1.819c-3.529.066-5.469-.558-8.675-1.6-.758-.246-1.615-.524-2.564-.815-.855-.262-1.749-.566-2.622-.863a32.25,32.25,0,0,0-6.845-1.806c-2.795-.262-4.6.262-5.361,1.6a10.576,10.576,0,0,0-.857,2.4,25.792,25.792,0,0,1-2.265,5.825,2.551,2.551,0,0,0-.262,1.528,28.554,28.554,0,0,0-6.774-3.932c-1.618-.5-4.354-.393-5.377,1.4a11.832,11.832,0,0,0-.849,2.144,31.382,31.382,0,0,1-2.831,6.454l-.037.066v.021h0a3.765,3.765,0,0,0,1.135,4.86,3.115,3.115,0,0,0,1.8.577,3.15,3.15,0,0,0,.54-.047,3.117,3.117,0,0,0,2.032-1.285,2.621,2.621,0,0,0,.33-.648h0a2.619,2.619,0,0,0,.092-.322l.865-3.067,1.088.524a29.5,29.5,0,0,0,6.093,2.5,6.844,6.844,0,0,0,4.821-.553,2.965,2.965,0,0,0,1.311-1.937.844.844,0,0,1,.029-.163h0a.975.975,0,0,1,.021-.149,21.718,21.718,0,0,0,.246-2.6,15.5,15.5,0,0,1,.894-5.151,14.519,14.519,0,0,1,3.544,1.709c4.719,2.978,12.112,6.53,20.482,6.53s15.758-3.552,20.488-6.533a14.5,14.5,0,0,1,3.539-1.707,15.5,15.5,0,0,1,.894,5.151,21.719,21.719,0,0,0,.246,2.6.382.382,0,0,0,.021.152h0a.684.684,0,0,0,.029.163,2.965,2.965,0,0,0,1.311,1.937,6.856,6.856,0,0,0,4.821.553,29.5,29.5,0,0,0,6.093-2.5l1.088-.524.863,3.065a2.623,2.623,0,0,0,.092.325h0a2.622,2.622,0,0,0,.33.648,3.117,3.117,0,0,0,2.032,1.285,3.16,3.16,0,0,0,.54.047,3.114,3.114,0,0,0,1.8-.577,3.765,3.765,0,0,0,1.167-4.858Zm-86.04,2.839-.039.139a1.31,1.31,0,0,1-.178.372,1.835,1.835,0,0,1-2.553.438,2.454,2.454,0,0,1-.739-3.169l.037-.066a1.843,1.843,0,0,1,.113-.178,3.222,3.222,0,0,1,1.72-1.23l-.524,1.14h0l-.045.107-.021.047h0l-.333.786.713.5a.933.933,0,0,1,1.311-.225A1.332,1.332,0,0,1,87.229,231.091Zm.59-2.1a2.645,2.645,0,0,0-.37-.32,2.242,2.242,0,0,0-.828-.362l.443-.98a8.739,8.739,0,0,1,1.106.419Zm13.648-.705c-.018.1-.031.207-.052.307a1.675,1.675,0,0,1-.758,1.109,5.667,5.667,0,0,1-3.833.367,28.328,28.328,0,0,1-5.767-2.4,18.988,18.988,0,0,0-4.016-1.694H87a4.535,4.535,0,0,0-1.835.189,33.694,33.694,0,0,0,1.573-4.048,11.077,11.077,0,0,1,.742-1.906c.619-1.083,2.671-1.159,3.854-.786a29.327,29.327,0,0,1,7.464,4.606c2.323,1.932,2.761,3.364,2.669,4.252Zm.262-3.08a9.643,9.643,0,0,0-.713-.868h0c-1.19-1.413-1.573-2.692-1-3.343a2.976,2.976,0,0,1,2.593-.5,15.627,15.627,0,0,0-.881,4.706Zm45.977-3.812c-4.577,2.884-11.724,6.329-19.782,6.329s-15.205-3.442-19.777-6.326c-2.742-1.762-5.427-2.527-7.3-2.2a29.434,29.434,0,0,0,1.405-4.1,9.884,9.884,0,0,1,.731-2.1c.477-.834,1.893-1.161,4.095-.944a31.491,31.491,0,0,1,6.554,1.743c.876.3,1.78.606,2.653.873.939.288,1.791.564,2.543.81a23.985,23.985,0,0,0,9.1,1.665,29.764,29.764,0,0,0,9.7-1.877c.592-.186,1.227-.385,1.919-.6.873-.262,1.777-.577,2.653-.873a31.569,31.569,0,0,1,6.554-1.743c2.2-.218,3.618.108,4.095.944a9.879,9.879,0,0,1,.734,2.1A29.453,29.453,0,0,0,155,219.2c-1.872-.325-4.556.44-7.293,2.2Zm5.537-.9a2.96,2.96,0,0,1,2.59.5c.572.65.186,1.929-1,3.343h0a9.722,9.722,0,0,0-.716.868,15.608,15.608,0,0,0-.876-4.7Zm11.559,7.17a28.95,28.95,0,0,1-5.767,2.4,5.652,5.652,0,0,1-3.833-.367,1.675,1.675,0,0,1-.773-1.109c-.021-.1-.034-.2-.052-.307-.089-.889.349-2.307,2.705-4.271a29.054,29.054,0,0,1,7.456-4.6c1.182-.364,3.232-.288,3.854.786a11.083,11.083,0,0,1,.742,1.906,33.745,33.745,0,0,0,1.573,4.048,4.53,4.53,0,0,0-1.835-.189h-.039a19.818,19.818,0,0,0-4.032,1.709Zm3.98-.341.443.98a2.241,2.241,0,0,0-.828.362,2.654,2.654,0,0,0-.37.32l-.349-1.243a8.809,8.809,0,0,1,1.1-.417Zm2.6,4.719a1.835,1.835,0,0,1-2.548-.44,1.311,1.311,0,0,1-.178-.375l-.039-.136a1.332,1.332,0,0,1,.524-1.345.933.933,0,0,1,1.311.225l.713-.5-.524-1.214-.385-.855a3.227,3.227,0,0,1,1.72,1.227,1.849,1.849,0,0,1,.113.178l.037.063a2.451,2.451,0,0,1-.745,3.167Z"
                  transform="translate(-60.601 -155.44)" fill="#fff"/>
            <path id="Path_53873" data-name="Path 53873"
                  d="M206.893,240.14h-.029a2.832,2.832,0,0,1-.642-.2,2.31,2.31,0,0,1-1.463-2.037c-.052-.262-.089-.582-.126-.883-.029-.239-.058-.461-.089-.655-.05-.315-.118-.372-.4-.488a.837.837,0,0,0-.2-.068c-.013,0-.026.018-.066.115L203.4,237.1c-.378.928-.32.959.052,1.169l.212.121v.021a.288.288,0,0,1-.034.246.207.207,0,0,1-.155.11h-.034c-.393-.181-.786-.357-1.2-.524s-.821-.322-1.243-.474h-.018v-.013a.236.236,0,0,1-.031-.22.239.239,0,0,1,.157-.17h.018l.231.06a1.187,1.187,0,0,0,.278.052c.17,0,.283-.128.579-.855l1.361-3.356c.362-.891.364-.933.013-1.122l-.249-.136v-.024a.278.278,0,0,1,.021-.236.215.215,0,0,1,.147-.115h.031a22.739,22.739,0,0,1,2.142.786,4.117,4.117,0,0,1,1.639,1.049,1.618,1.618,0,0,1,.262,1.736,1.782,1.782,0,0,1-1.751,1.049v.142a11.125,11.125,0,0,0,.637,2.934,1.193,1.193,0,0,0,.485.509h.018v.018a.262.262,0,0,1-.076.283Zm-1.678-7.3c-.079,0-.115.066-.22.322l-.786,1.9c-.1.244-.1.244.262.4a1.168,1.168,0,0,0,1.746-.737,1.282,1.282,0,0,0-.671-1.772A1.252,1.252,0,0,0,205.215,232.841Z"
                  transform="translate(-148.259 -170.899)" fill="#fff"/>
            <path id="Path_53874" data-name="Path 53874"
                  d="M237.5,247.244h-.016c-.443-.073-.9-.136-1.353-.191s-.941-.1-1.382-.131h-.031a.21.21,0,0,1-.081-.17.294.294,0,0,1,.092-.236l.018-.013h.262c.454,0,.524,0,.648-1.049l.446-3.8c.123-1.049.055-1.049-.385-1.172l-.244-.063-.013-.018a.294.294,0,0,1-.034-.262.207.207,0,0,1,.118-.147h.031c.438.073.9.136,1.374.191s.918.1,1.361.128h.029a.207.207,0,0,1,.081.17.294.294,0,0,1-.092.236l-.018.013h-.262c-.454,0-.524,0-.648,1.049l-.448,3.8c-.123,1.049-.055,1.049.385,1.172l.244.063.013.018a.294.294,0,0,1,.034.262.21.21,0,0,1-.118.147Z"
                  transform="translate(-173.125 -177.067)" fill="#fff"/>
            <path id="Path_53875" data-name="Path 53875"
                  d="M258.967,246.1h-.016a.228.228,0,0,1-.123-.184.246.246,0,0,1,.052-.223l.029-.016.425-.094c.443-.084.524-.1.4-1.146l-.44-4.428c-.037-.372-.052-.372-.139-.372h-.11l-.574.058c-.9.092-1.156.207-1.444,1.049l-.016.024a.262.262,0,0,1-.191.066.278.278,0,0,1-.262-.118v-.045c.115-.553.2-1.193.241-1.573v-.024a.2.2,0,0,1,.16-.087.194.194,0,0,1,.165.055v.024c.037.118.076.17.3.17.128,0,.309-.018.548-.042l4.176-.425c.511-.052.613-.1.7-.3v-.018h.018a.343.343,0,0,1,.147-.063.225.225,0,0,1,.2.06l.018.021v.029a7.132,7.132,0,0,0,0,1.623v.042a.283.283,0,0,1-.262.131.288.288,0,0,1-.155-.042l-.021-.013v-.024c-.173-.632-.328-.831-.957-.831a4.99,4.99,0,0,0-.5.031l-.585.06c-.212.021-.212.021-.173.406l.451,4.423c.108,1.049.176,1.049.627,1.049h.4l.018.016a.293.293,0,0,1,.087.236.21.21,0,0,1-.084.168h-.031c-.627.042-1.078.079-1.5.123s-.883.1-1.573.191Z"
                  transform="translate(-189.301 -175.877)" fill="#fff"/>
            <path id="Path_53876" data-name="Path 53876"
                  d="M291.195,238.463a.194.194,0,0,1-.181-.178h0l.018-.068c.079-.294.291-1.07.417-1.775l.726-3.906a10.8,10.8,0,0,0,.183-1.188,1.237,1.237,0,0,0-.241.087l-1.093.464c-.7.3-1.049.548-1.167.836a2.254,2.254,0,0,0-.118.836v.039a.312.312,0,0,1-.427.073l-.016-.016v-.024c-.029-.186-.052-.372-.079-.556-.052-.391-.1-.76-.178-1.125v-.042a.207.207,0,0,1,.246-.1l.029.021a.183.183,0,0,0,.157.079h0a2.776,2.776,0,0,0,.8-.275l2.383-1.015a10.289,10.289,0,0,0,1-.467h.052a.207.207,0,0,1,.2.165v.047c-.142.33-.446,1.982-.548,2.525l-.524,2.826a10.4,10.4,0,0,0-.223,1.452s0,.018.052.018a.705.705,0,0,0,.2-.05c.2-.073.417-.155,1.049-.427a3.549,3.549,0,0,0,1.444-.849,1.836,1.836,0,0,0,.239-1.193v-.042a.333.333,0,0,1,.262-.126.212.212,0,0,1,.168.068l.013.026a4.945,4.945,0,0,1,.2,1.7v.039l-.037.013c-.524.2-1.049.414-1.68.684l-2.359,1a9.577,9.577,0,0,0-.931.427Z"
                  transform="translate(-213.266 -169.814)" fill="#fff"/>
            <path id="Path_53877" data-name="Path 53877" d="M257.54,276.38" transform="translate(-190.024 -203.917)"
                  fill="#fff"/>
            <path id="Path_53878" data-name="Path 53878" d="M257.54,276.38" transform="translate(-190.024 -203.917)"
                  fill="#fff"/>
            <path id="Path_53879" data-name="Path 53879" d="M258.33,281.69" transform="translate(-190.607 -207.835)"
                  fill="#fff"/>
            <path id="Path_53880" data-name="Path 53880" d="M254.85,277.55h0Z" transform="translate(-188.039 -204.781)"
                  fill="#fff"/>
            <path id="Path_53881" data-name="Path 53881" d="M254.84,277.56h0Z" transform="translate(-188.032 -204.788)"
                  fill="#fff"/>
            <path id="Path_53882" data-name="Path 53882" d="M2.289,362.4H0V361.23H5.854V362.4H3.565v6.03H2.289Z"
                  transform="translate(0 -266.523)" fill="#fff"/>
            <path id="Path_53883" data-name="Path 53883"
                  d="M37.61,361.23h1.266v3h3.445v-3h1.266v7.212H42.321V365.4H38.879v3.041H37.61Z"
                  transform="translate(-27.75 -266.523)" fill="#fff"/>
            <path id="Path_53884" data-name="Path 53884"
                  d="M77.7,361.23h5.348v1.133H78.969v1.874h3.618v1.127H78.969V367.3H83.1v1.133H77.7Z"
                  transform="translate(-57.33 -266.523)" fill="#fff"/>
            <path id="Path_53885" data-name="Path 53885"
                  d="M133.86,361.23h3.214a2.883,2.883,0,0,1,2.082.721,2.181,2.181,0,0,1,.6,1.557v.021a2.163,2.163,0,0,1-1.72,2.184l1.948,2.732h-1.494l-1.772-2.514h-1.586v2.514h-1.266Zm3.122,3.576c.907,0,1.484-.474,1.484-1.206v-.021c0-.773-.556-1.2-1.494-1.2h-1.835v2.422Z"
                  transform="translate(-98.767 -266.523)" fill="#fff"/>
            <path id="Path_53886" data-name="Path 53886" d="M172.77,361.23h1.266v7.212H172.77Z"
                  transform="translate(-127.477 -266.523)" fill="#fff"/>
            <path id="Path_53887" data-name="Path 53887" d="M195.5,362.4H193.21V361.23h5.854V362.4h-2.289v6.03H195.5Z"
                  transform="translate(-142.558 -266.523)" fill="#fff"/>
            <path id="Path_53888" data-name="Path 53888"
                  d="M229.37,367.5l4.255-5.151H229.5V361.23h5.767v.939l-4.255,5.151h4.255v1.122h-5.9Z"
                  transform="translate(-169.239 -266.523)" fill="#fff"/>
            <path id="Path_53889" data-name="Path 53889" d="M290.13,361.23h1.277v6.059H295.2v1.153h-5.06Z"
                  transform="translate(-214.07 -266.523)" fill="#fff"/>
            <path id="Path_53890" data-name="Path 53890"
                  d="M321.88,364.647v-.016a3.772,3.772,0,0,1,7.542-.021v.021a3.772,3.772,0,0,1-7.542.021Zm6.213,0v-.016a2.471,2.471,0,0,0-2.451-2.567,2.425,2.425,0,0,0-2.42,2.54v.026a2.471,2.471,0,0,0,2.454,2.567,2.431,2.431,0,0,0,2.42-2.551Z"
                  transform="translate(-237.496 -266.315)" fill="#fff"/>
            <path id="Path_53891" data-name="Path 53891"
                  d="M366.73,361.23H367.9l3.864,4.981V361.23h1.248v7.212h-1.049l-3.977-5.13v5.13h-1.248Z"
                  transform="translate(-270.589 -266.523)" fill="#fff"/>
            <path id="Path_53892" data-name="Path 53892"
                  d="M408,361.23h2.69a3.6,3.6,0,0,1,3.833,3.586v.024a3.616,3.616,0,0,1-3.833,3.607H408Zm2.69,6.059a2.35,2.35,0,0,0,2.5-2.433v-.016a2.366,2.366,0,0,0-2.5-2.451h-1.423v4.9Z"
                  transform="translate(-301.039 -266.523)" fill="#fff"/>
            <path id="Path_53893" data-name="Path 53893"
                  d="M445.235,364.845v-.016a3.772,3.772,0,0,1,7.537-.026v.026a3.772,3.772,0,0,1-7.542.021Zm6.213,0v-.016a2.471,2.471,0,0,0-2.454-2.567,2.437,2.437,0,0,0-2.433,2.546v.021a2.452,2.452,0,1,0,4.9.016Z"
                  transform="translate(-328.509 -266.512)" fill="#fff"/>
            <path id="Path_53894" data-name="Path 53894"
                  d="M490.1,361.23h1.174l3.864,4.981V361.23h1.245v7.212h-1.049l-3.977-5.13v5.13H490.1Z"
                  transform="translate(-361.616 -266.523)" fill="#fff"/>
        </g>
    </g>
</svg>
