<?xml version="1.0" encoding="utf-8"?>
<svg id="Layer_2" data-name="Layer 2" xmlns="http://www.w3.org/2000/svg" xmlns:xlink="http://www.w3.org/1999/xlink"
     width="114.056" height="53.505" viewBox="0 0 114.056 53.505">
    <defs>
        <clipPath id="clip-path">
            <rect id="Rectangle_1484" data-name="Rectangle 1484" width="1.652" height="1.652" fill="#fff"/>
        </clipPath>
    </defs>
    <g id="Layer_1" data-name="Layer 1">
        <path id="Path_53903" data-name="Path 53903"
              d="M40.017,87.589l2.508,4.6a1.773,1.773,0,0,0,.465.53H41.385a.6.6,0,0,0-.033-.582l-.465-.865H38.1l-.5.973a.419.419,0,0,0,0,.465h-1.07a1.568,1.568,0,0,0,.372-.465l2.5-4.653Zm-1.633,3.164h2.229l-1.1-2.164ZM69.146,88a5.258,5.258,0,0,0-2.257-.465,4.188,4.188,0,0,0-2.61.758,2.229,2.229,0,0,0-.931,1.819,2.452,2.452,0,0,0,.931,1.824,4.486,4.486,0,0,0,4.886.256v-2.1H68.048a1.014,1.014,0,0,1,.181.7v1.154a2.555,2.555,0,0,1-1.308.27,2.648,2.648,0,0,1-2.015-.726,1.908,1.908,0,0,1-.582-1.4,1.815,1.815,0,0,1,.619-1.349,2.722,2.722,0,0,1,1.978-.675,3.722,3.722,0,0,1,1.945.5,3.54,3.54,0,0,1,.316.219V88m-66.247.135H4.048c.433,0,.768.028.931.2v-.749H0v.749c.144-.172.517-.2.931-.2H2.01v3.755a1.568,1.568,0,0,1-.177.824H3.1a1.461,1.461,0,0,1-.163-.824Zm90.058,0h1.112c.433,0,.768.028.931.2v-.749H90.058v.749c.144-.172.517-.2.931-.2h1.1v3.755a1.559,1.559,0,0,1-.177.824h1.266a1.461,1.461,0,0,1-.163-.824Zm-75.7,4c-.288,0-1.48,0-1.522-.023V90.223a15.559,15.559,0,0,1,2.838.158v-.875a11.037,11.037,0,0,1-2.838.158V88.143a27.605,27.605,0,0,1,3.225.084.968.968,0,0,1,.288.121v-.763H14.676a1.456,1.456,0,0,1,.163.824V91.9a1.545,1.545,0,0,1-.168.824h4.69l.181-.8a5.037,5.037,0,0,1-2.238.237m15.993,0c-.288,0-1.48,0-1.522-.023V90.223a15.559,15.559,0,0,1,2.838.158v-.875a11.037,11.037,0,0,1-2.838.158V88.143A27.607,27.607,0,0,1,35,88.226a.963.963,0,0,1,.289.121v-.763H30.683a1.456,1.456,0,0,1,.163.824V91.9a1.549,1.549,0,0,1-.168.824h4.686l.158-.8a5.028,5.028,0,0,1-2.238.237m66.205,0c-.288,0-1.48,0-1.522-.023V90.223a15.559,15.559,0,0,1,2.838.158v-.875a11.037,11.037,0,0,1-2.838.158V88.143a27.614,27.614,0,0,1,3.225.084.968.968,0,0,1,.288.121s0-.763,0-.763H96.875a1.466,1.466,0,0,1,.163.824V91.9a1.545,1.545,0,0,1-.168.824h4.686l.168-.814a5.028,5.028,0,0,1-2.238.237m-87.48-3.723a1.48,1.48,0,0,1,.177-.824H10.916a1.456,1.456,0,0,1,.163.824V89.7H7.845V88.4a1.48,1.48,0,0,1,.181-.824H6.756a1.47,1.47,0,0,1,.163.824v3.485a1.568,1.568,0,0,1-.177.824H8a1.456,1.456,0,0,1-.163-.824V90.251H11.1v1.643a1.563,1.563,0,0,1-.177.824h1.266a1.47,1.47,0,0,1-.163-.824Zm68.146,0a1.489,1.489,0,0,1,.177-.824H79.062a1.461,1.461,0,0,1,.163.824V89.7H75.991V88.4a1.484,1.484,0,0,1,.177-.824H74.916a1.461,1.461,0,0,1,.163.824v3.485a1.573,1.573,0,0,1-.177.824h1.266a1.461,1.461,0,0,1-.163-.824V90.251h3.257v1.643a1.573,1.573,0,0,1-.177.824h1.266a1.456,1.456,0,0,1-.163-.824Zm5.467-.921a3.6,3.6,0,0,1,2.578.931,2.424,2.424,0,0,1,.637,1.694,2.717,2.717,0,0,1-.633,1.624,3.187,3.187,0,0,1-2.583,1.07,3.336,3.336,0,0,1-2.6-1.075,2.559,2.559,0,0,1-.6-1.647,2.368,2.368,0,0,1,.717-1.67,3.35,3.35,0,0,1,2.476-.931M83.4,90.1a2.075,2.075,0,0,0,.749,1.694,2.233,2.233,0,0,0,1.466.465,2.085,2.085,0,0,0,1.489-.465,2.206,2.206,0,0,0,.745-1.684,1.9,1.9,0,0,0-.786-1.67,2.82,2.82,0,0,0-2.871,0,2.01,2.01,0,0,0-.791,1.68m28.431-2.578c-1.214-.028-2.266.312-2.364,1.289a1.019,1.019,0,0,0,.219.754c.661.8,2.406.852,3.1,1.4a.661.661,0,0,1,.284.582c-.065.582-.8.735-1.712.712a2.987,2.987,0,0,1-2.01-.689c0,.033.028.828.028.828a5.97,5.97,0,0,0,1.982.377c1.4.033,2.583-.326,2.69-1.433a1.214,1.214,0,0,0-.223-.833,4.479,4.479,0,0,0-2-.931c-.768-.256-1.4-.358-1.368-.879,0-.465.726-.633,1.363-.624a4.034,4.034,0,0,1,1.484.265,1.4,1.4,0,0,1,.521.307v-.791a6.979,6.979,0,0,0-1.992-.344Zm-58.365.865a1.494,1.494,0,0,1,.177-.824H52.381a1.47,1.47,0,0,1,.163.824v3.508a1.568,1.568,0,0,1-.177.824h1.266a1.456,1.456,0,0,1-.168-.824Zm54.759,3.508a5.037,5.037,0,0,1-2.238.237h-.931V88.431a1.489,1.489,0,0,1,.177-.824h-1.266a1.466,1.466,0,0,1,.163.824v3.485a1.568,1.568,0,0,1-.177.824h4.081Zm-78.964,0a5.037,5.037,0,0,1-2.238.237H26.1V88.431a1.489,1.489,0,0,1,.177-.824H25.029a1.466,1.466,0,0,1,.163.824v3.485a1.573,1.573,0,0,1-.177.824H29.1Zm31.953-3.508a1.536,1.536,0,0,1,.158-.824h-.884a1.684,1.684,0,0,1,.158.824V91.54l-3.336-3.965H56.089a1.577,1.577,0,0,1,.168.828v3.485a1.545,1.545,0,0,1-.149.824h.879a1.652,1.652,0,0,1-.168-.824V88.482l3.536,4.244h.865V88.4m-13.96-.814H44.522a1.442,1.442,0,0,1,.149.819v3.508a1.568,1.568,0,0,1-.177.824h2.792c1.6,0,3.034-.842,3.034-2.624-.009-2.145-1.708-2.527-3.043-2.527Zm0,4.551h-1.6v-4h1.591c1.433,0,2.071.689,2.071,1.964a1.851,1.851,0,0,1-2.061,2.029m36.849,4.951H82.45a.879.879,0,0,1,.1.5v2.108a.93.93,0,0,1-.107.5h1.675A1.626,1.626,0,0,0,85.949,98.6c0-1.28-1.028-1.512-1.833-1.512Zm0,2.75h-.968V97.421h.963c.865,0,1.252.419,1.252,1.187a1.117,1.117,0,0,1-1.247,1.228m-15.677-2.8a2.2,2.2,0,0,1,1.573.563,1.48,1.48,0,0,1,.386,1.033,1.652,1.652,0,0,1-.386.991,1.945,1.945,0,0,1-1.563.661,2.033,2.033,0,0,1-1.587-.656,1.563,1.563,0,0,1-.368-1.005,1.442,1.442,0,0,1,.437-1.019,2.043,2.043,0,0,1,1.508-.568m-1.345,1.591a1.266,1.266,0,0,0,.465,1.033,1.363,1.363,0,0,0,.893.275,1.275,1.275,0,0,0,.931-.279,1.349,1.349,0,0,0,.465-1.028,1.159,1.159,0,0,0-.465-1.019,1.726,1.726,0,0,0-1.75,0,1.224,1.224,0,0,0-.465,1.024M29.534,97.026a2.2,2.2,0,0,1,1.573.563,1.48,1.48,0,0,1,.386,1.033,1.657,1.657,0,0,1-.386.991,1.945,1.945,0,0,1-1.563.661,2.033,2.033,0,0,1-1.587-.656,1.554,1.554,0,0,1-.368-1.005,1.447,1.447,0,0,1,.437-1.019,2.043,2.043,0,0,1,1.508-.568m-1.345,1.591a1.266,1.266,0,0,0,.465,1.033,1.368,1.368,0,0,0,.893.275,1.275,1.275,0,0,0,.931-.279,1.349,1.349,0,0,0,.465-1.028,1.159,1.159,0,0,0-.465-1.019,1.722,1.722,0,0,0-1.75,0,1.228,1.228,0,0,0-.465,1.024M80.77,99.738a3.043,3.043,0,0,1-1.349.144h-.554V97.631a.893.893,0,0,1,.107-.5h-.763a.879.879,0,0,1,.1.5v2.1a.931.931,0,0,1-.107.5h2.462ZM43.223,97.449h.516c.261,0,.465,0,.554.121V97.1H41.3v.465a.81.81,0,0,1,.554-.121h.665V99.72a.931.931,0,0,1-.107.5h.768a.884.884,0,0,1-.1-.5Zm10.646,2.42h-.931v-1.14a8.431,8.431,0,0,1,1.717.1V98.3a6.842,6.842,0,0,1-1.717.1v-.931a16.685,16.685,0,0,1,1.95.051.572.572,0,0,1,.172.074s0-.465,0-.465H52.269a.879.879,0,0,1,.1.5v2.108a.931.931,0,0,1-.1.5H55.1l.1-.493a3.01,3.01,0,0,1-1.354.14m-4.188-2.257a.9.9,0,0,1,.107-.5h-.907a.875.875,0,0,1,.1.5v.772H47v-.772a.9.9,0,0,1,.107-.5H46.36a.884.884,0,0,1,.1.5v2.113a.931.931,0,0,1-.107.5h.763a.884.884,0,0,1-.1-.5v-.991H48.97v.991a.931.931,0,0,1-.107.5h.763a.879.879,0,0,1-.1-.5ZM34.466,99.743V98.729a8.882,8.882,0,0,1,1.754.1v-.535a7.162,7.162,0,0,1-1.754.1v-.931a16.316,16.316,0,0,1,1.912.047.567.567,0,0,1,.172.074v-.465H33.684a.88.88,0,0,1,.1.5v2.113a.931.931,0,0,1-.1.5h.754a.749.749,0,0,1-.107-.465m41.255.172c-.312-.419-.558-.828-.721-1.028-.084-.1-.172-.214-.251-.214a.819.819,0,0,0,.852-.782c0-.772-.9-.772-1.931-.772H72.5a.749.749,0,0,1,.121.5v2.108a.786.786,0,0,1-.135.5h.856a.735.735,0,0,1-.126-.5V98.71a3.751,3.751,0,0,1,.693.042c.247.074.4.261.689.717s.493.717.493.717h.819a1.726,1.726,0,0,1-.307-.307m-1.214-1.512a5.208,5.208,0,0,1-.749.028h-.423v-.986h.437a4.654,4.654,0,0,1,.735.037c.228.042.465.163.465.419s-.112.423-.465.5Zm-9.306-1.284h-.586s.107.074-.047.442L63.725,99.3l-1.042-2.261h-.107l-1,2.327s-.633-1.619-.726-1.861c-.126-.307,0-.423,0-.423h-.824c.1.088.13.154.251.437l1.121,2.694h.158l.973-2.164,1.052,2.164h.107l1.14-2.69a1.247,1.247,0,0,1,.261-.465"
              transform="translate(0 -46.781)" fill="#fff" fill-rule="evenodd"/>
        <path id="Path_53904" data-name="Path 53904"
              d="M110.178,0l-.028.047a4.1,4.1,0,0,0-.335,1.945s-.023,9.227-.023,9.306h1.573c1.536,0,3.15.233,3.844-.465h.051l-.572,1.517a31.731,31.731,0,0,0-3.322-.2c-1.1,0-1.959.028-3.476.135h-.07v-.051a4.486,4.486,0,0,0,.33-1.945V2a4.188,4.188,0,0,0-.284-1.95L107.842,0Zm7.636,6.049V6.1a7.751,7.751,0,0,1,.563,3.6s-.116,6.021-.116,6.1a44.545,44.545,0,0,0-7.343-.735,42.027,42.027,0,0,0-7.329.735V9.7a7.971,7.971,0,0,1,.619-3.592l.028-.051h-3.294V6.1a7.768,7.768,0,0,1,.558,3.6V24.936a8.278,8.278,0,0,1-.61,3.583v.051H104.2v-.047a7.752,7.752,0,0,1-.563-3.6V17.319a32.791,32.791,0,0,1,7.329-.768,34.08,34.08,0,0,1,7.343.768c0,.056.112,7.608.112,7.608a8.354,8.354,0,0,1-.54,3.583v.051h3.22l-.023-.047a7.752,7.752,0,0,1-.563-3.6V9.674a7.891,7.891,0,0,1,.624-3.592l.028-.047Zm-6.635,13.387-2.722,8.483c-.228-.786-1.633-5.933-1.861-6.687a6.371,6.371,0,0,1-.2-1.2,1.4,1.4,0,0,1,.1-.619l.042-.093s-.656.084-1.1.154c-.372.056-1.061.181-1.061.181l.074.074a3.942,3.942,0,0,1,.633,1.563L108,31.144h.181l2.741-8.4,2.829,8.4h.168l2.964-9.832a4.546,4.546,0,0,1,.7-1.6l.056-.056c-.088-.028-.4-.1-.768-.186s-.749-.144-.749-.144l.047.112a1.01,1.01,0,0,1,.088.465,6.128,6.128,0,0,1-.251,1.4s-1.861,6.463-1.9,6.659l-2.843-8.52Z"
              transform="translate(-53.944)" fill="#fff"/>
        <path id="Path_53905" data-name="Path 53905"
              d="M109.386,73.1a.582.582,0,0,0,.065.33h-.5a.633.633,0,0,0,.07-.33V71.618h-.433c-.154,0-.3,0-.358.084v-.3h1.964v.3c-.056-.07-.191-.084-.363-.084h-.437Zm-5.663.093h-.6v-.745a5.454,5.454,0,0,1,1.121.06v-.372a4.527,4.527,0,0,1-1.126.065v-.586a10.7,10.7,0,0,1,1.275.033.326.326,0,0,1,.116.047v-.3H102.69a.572.572,0,0,1,.065.326v1.4a.614.614,0,0,1-.065.326h1.861l.065-.321a1.987,1.987,0,0,1-.884.093m3.625-1.671a2.713,2.713,0,0,0-.8-.13c-.465,0-.893.126-.931.512a.428.428,0,0,0,.088.307c.288.326.931.33,1.228.54a.247.247,0,0,1,.116.219c-.023.233-.316.288-.679.279a1.2,1.2,0,0,1-.8-.251s0,.326,0,.326a2.327,2.327,0,0,0,.786.144c.544,0,1.019-.135,1.061-.572a.465.465,0,0,0-.088-.33,1.792,1.792,0,0,0-.791-.363c-.289-.1-.544-.14-.544-.344s.288-.251.54-.251a1.624,1.624,0,0,1,.586.1.582.582,0,0,1,.209.121v-.312m4.118.931a.2.2,0,1,0-.056.141.2.2,0,0,0,.056-.141m1.791.968a.465.465,0,0,1-.084-.3V71.39l-.465.209a.33.33,0,0,1,.126.288V73.14a.465.465,0,0,1-.084.293Zm1.563-.214a.866.866,0,0,1-.428-.112l.1.307a1.648,1.648,0,0,0,.3.033,1.1,1.1,0,0,0,.833-.3,1.294,1.294,0,0,0,.33-.893.772.772,0,0,0-.828-.856.763.763,0,0,0-.842.707.61.61,0,0,0,.684.619.991.991,0,0,0,.526-.116.665.665,0,0,1-.684.61m.275-.745a.417.417,0,0,1-.465-.377.465.465,0,0,1,.465-.465c.228,0,.4.163.433.465a1.919,1.919,0,0,1,0,.261.7.7,0,0,1-.465.126m1.75.959h1.456l.126-.326a.791.791,0,0,1-.321.06h-.731l.344-.247c.326-.228.661-.53.661-.9s-.288-.614-.865-.614a1.861,1.861,0,0,0-.591.084l-.033.335a.982.982,0,0,1,.554-.191c.349,0,.549.172.549.437s-.288.577-.828.907l-.321.186Zm2.671-1.508a.465.465,0,0,0,.349.465c-.261.1-.465.284-.465.526s.3.554.931.554.968-.251.968-.619-.54-.54-.54-.54c.251-.1.409-.265.409-.437,0-.247-.219-.493-.786-.493-.465,0-.852.219-.852.563m.247.959c0-.149.181-.34.414-.4,0,0,.7.126.7.409s-.237.34-.512.34-.6-.074-.6-.349m1.056-.991c0,.2-.344.293-.344.293-.261-.056-.563-.135-.563-.33s.2-.275.428-.275c.368,0,.5.135.465.307"
              transform="translate(-54.906 -38.171)" fill="#fff" fill-rule="evenodd"/>
        <rect id="Rectangle_1483" data-name="Rectangle 1483" width="1.652" height="1.652"
              transform="translate(86.935 50.268)" fill="#fff"/>
        <g id="Group_1154" data-name="Group 1154" transform="translate(86.935 50.268)" clip-path="url(#clip-path)">
            <path id="Path_53906" data-name="Path 53906"
                  d="M187.432,108.543h.163a.419.419,0,0,1,.144,0,.126.126,0,0,1,.084.116.121.121,0,0,1-.047.1.289.289,0,0,1-.168.037h-.172Zm0,.768v-.368h.084a.182.182,0,0,1,.116.033.7.7,0,0,1,.149.2l.079.14h.177l-.107-.172a1.065,1.065,0,0,0-.13-.177.256.256,0,0,0-.074-.047.275.275,0,0,0,.186-.079.237.237,0,0,0,.028-.3.223.223,0,0,0-.112-.084.726.726,0,0,0-.228-.023h-.3v.889Zm.558-1.056a.628.628,0,0,1,.256.256.675.675,0,0,1,0,.684.647.647,0,0,1-.256.256.689.689,0,0,1-.684,0,.647.647,0,0,1-.256-.256.684.684,0,0,1,0-.689.628.628,0,0,1,.256-.256.7.7,0,0,1,.34-.088.712.712,0,0,1,.34.088m-.745-.121a.777.777,0,0,0-.307.307.828.828,0,0,0,0,.824.772.772,0,0,0,.307.307.828.828,0,0,0,.824,0,.763.763,0,0,0,.3-.307.828.828,0,0,0,0-.824.773.773,0,0,0-.307-.307.833.833,0,0,0-.81,0"
                  transform="translate(-186.827 -108.027)" fill="#fff"/>
        </g>
    </g>
</svg>
