<?xml version="1.0" encoding="utf-8"?>
<svg xmlns="http://www.w3.org/2000/svg" width="54.483" height="76.638" viewBox="0 0 54.483 76.638">
    <g id="Layer_2" transform="translate(0 -0.1)">
        <g id="Layer_1-2" transform="translate(0 0.1)">
            <path id="Path_53907" data-name="Path 53907"
                  d="M72.654,19.6a6.566,6.566,0,0,0-2.5-.16,3.949,3.949,0,0,0-2.077,1.971c-.16.16-.266.373-.479.373-.373-.586.213-1.172.479-1.651A2.66,2.66,0,0,1,70.417,18.8a3.49,3.49,0,0,1,2.237.8"
                  transform="translate(-31.539 -8.841)" fill="#fff"/>
            <path id="Path_53908" data-name="Path 53908"
                  d="M17.2,19.921a5.54,5.54,0,0,0,.373,3.089l-.053.107a2.415,2.415,0,0,0-1.118-.8l.479-.107c-.16-.373-.639-.373-.852-.639l.692-.053c-.16-.32-.586-.266-.852-.373.213-.586,1.172.266.959-.692-.479-.213-.959.107-1.331.32-.959.746-.959,1.917-1.438,2.769-.373-.426,0-.905,0-1.385.533-1.172,1.6-2.716,3.142-2.237"
                  transform="translate(-6.492 -9.323)" fill="#fff"/>
            <path id="Path_53909" data-name="Path 53909"
                  d="M15.617,25.2a4.833,4.833,0,0,0-.586,2.237c-.053.905.8,1.225,1.225,1.917-.266.373-.533-.16-.8-.213a2.692,2.692,0,0,1-.746-2.716,2.262,2.262,0,0,1,.905-1.225"
                  transform="translate(-6.829 -11.832)" fill="#fff"/>
            <path id="Path_53910" data-name="Path 53910"
                  d="M64.005,35.308a1.735,1.735,0,0,1-.426,1.012c-.266.107-.426-.213-.479-.373V34.51c.266.053.266.426.479.479.266-.479-.266-.959.16-1.385.107.107.107.213.213.266a2.633,2.633,0,0,0,.852-1.012l.213-.959c.852,1.331-.746,2.29-1.012,3.408"
                  transform="translate(-29.494 -14.964)" fill="#fff"/>
            <path id="Path_53911" data-name="Path 53911"
                  d="M34.1,43.073v.266a.677.677,0,0,1-.8-.533V42.7a1.811,1.811,0,0,1,.8.373"
                  transform="translate(-15.565 -20.012)" fill="#fff"/>
            <path id="Path_53912" data-name="Path 53912"
                  d="M50.389,50.772a5.637,5.637,0,0,1-1.544,1.172c-.533-.373-1.012-.746-1.544-1.118A7.087,7.087,0,0,1,48.9,49.6a16.044,16.044,0,0,1,1.491,1.172M48.9,50.079c-.32.266-.852.426-1.012.8.426.107.852.959,1.331.373H49c-.107-.107-.266-.16-.266-.32.16-.107.266-.373.479-.266.107.107.426.373.266.426l.266-.16c-.053-.426-.533-.533-.852-.852"
                  transform="translate(-22.109 -23.237)" fill="#fff"/>
            <path id="Path_53913" data-name="Path 53913"
                  d="M45.64,51.013c.16.32-.213.533-.373.639s-.373-.107-.479-.213A.591.591,0,0,1,45,50.853a.493.493,0,0,1,.639.16"
                  transform="translate(-20.928 -23.798)" fill="#fff"/>
            <path id="Path_53914" data-name="Path 53914"
                  d="M55.4,51.635a.955.955,0,0,1-.266.373.506.506,0,0,1-.533-.213.618.618,0,0,1,.213-.533c.32-.16.533.16.586.373"
                  transform="translate(-25.521 -23.994)" fill="#fff"/>
            <path id="Path_53915" data-name="Path 53915"
                  d="M40.871,51.479a1.963,1.963,0,0,1,.053.8,2.273,2.273,0,0,1-2.077.426.979.979,0,0,1-.213-1.065c.586-.426,1.651-.852,2.237-.16m-1.758.586a.374.374,0,0,0,.213.479h.053c.533-.107,1.491-.053,1.065-.852-.426-.107-1.278-.213-1.331.373m1.065.107c-.107.266-.373.107-.533.16l-.107-.16c.107-.373.639-.426.639,0"
                  transform="translate(-18.023 -23.944)" fill="#fff"/>
            <path id="Path_53916" data-name="Path 53916"
                  d="M36.352,53.119c.053.213-.16.266-.213.373a.543.543,0,0,1-.639-.32c.053-.373.746-.586.852-.053"
                  transform="translate(-16.594 -24.733)" fill="#fff"/>
            <path id="Path_53917" data-name="Path 53917"
                  d="M59.993,52.529a.975.975,0,0,1-.692.905,1.427,1.427,0,0,1-1.385-.213.826.826,0,0,1-.213-1.065c.533-.905,1.811-.479,2.29.373m-1.651-.479a.439.439,0,0,0-.373.533h0c.053.692.905.373,1.385.426a.625.625,0,0,0,.266-.586,1.429,1.429,0,0,0-1.278-.373m0,.479c0,.053,0,.213.107.213.213-.053.426.107.533-.16a.43.43,0,0,0-.479-.213l-.16.16"
                  transform="translate(-26.92 -24.196)" fill="#fff"/>
            <path id="Path_53918" data-name="Path 53918"
                  d="M55.139,53.4c.107.213-.107.266-.213.373-.266.107-.373-.213-.533-.32-.053-.213.213-.373.32-.373.213-.107.426.16.426.32"
                  transform="translate(-25.422 -24.852)" fill="#fff"/>
            <path id="Path_53919" data-name="Path 53919"
                  d="M64.259,53.82a.906.906,0,0,1-.32.533.543.543,0,0,1-.639-.32c.107-.213.107-.479.373-.533a1.052,1.052,0,0,1,.586.32"
                  transform="translate(-29.588 -25.06)" fill="#fff"/>
            <path id="Path_53920" data-name="Path 53920"
                  d="M37.04,54.706c0,.16.053.373-.107.426a.582.582,0,0,1-.639-.213c-.053-.213.266-.373.373-.426s.213.16.373.213"
                  transform="translate(-16.962 -25.52)" fill="#fff"/>
            <path id="Path_53921" data-name="Path 53921"
                  d="M63.674,55.835c-.053.107-.213.373-.373.266-.213.107-.32-.107-.426-.213-.213-.533.852-.692.8-.053"
                  transform="translate(-29.376 -25.957)" fill="#fff"/>
            <path id="Path_53922" data-name="Path 53922"
                  d="M67.973,56.72c-.053.107-.16.053-.213.053l-.16-.107.213-.266c.107.107.213.213.16.32"
                  transform="translate(-31.598 -26.416)" fill="#fff"/>
            <path id="Path_53923" data-name="Path 53923"
                  d="M25.247,29.392c-.426.746.426.533.8.8.053-.266.586-.692.373-1.012-.373.053-1.065-.533-1.172.213m.426.32c.107.107.213.213.32.16s.213-.16.16-.266a.246.246,0,0,0-.479.107m9.64-28.067c.426.107,1.012-.586,1.491,0,.533.266.852-.533,1.385-.692a3.666,3.666,0,0,1,3.249,0c1.917.905,1.491,3.036,2.024,4.687.053,2.077-2.184,3.249-2.237,5.326-.053.692-.905,1.331-.479,2.077a24.2,24.2,0,0,1-1.385,5.113c.639.373-.32.959.213,1.331l.213-.266a.407.407,0,0,0,.266.107c-.213-2.823,1.651-4.74,2.769-6.977l.373.16c.692-1.6,2.077-3.515,4.048-3.568A4.559,4.559,0,0,1,51.716,11.5a5.3,5.3,0,0,1-.32,3.408l.107.053a4.282,4.282,0,0,0,.852-2.769c.746-.8,1.6.107,2.29.373,1.544,1.172.479,2.982.8,4.58a3.132,3.132,0,0,1-2.5,2.13c-.746,1.438-2.982.746-3.3,2.5a4.427,4.427,0,0,1-2.5-.852c-1.172,1.012-2.4,2.29-3.888,2.077a8.852,8.852,0,0,0,1.864-1.012c-.266-.16-.692,0-.959-.213.533-.266,1.331-.107,1.544-.692l-1.172-.053c.32-.533,1.118-.266,1.651-.533-.373-.107-.852-.053-1.012-.373.16-.266.639-.107.639-.479-.107-.053-.213-.213-.32-.107l-.053.053c-.107-.107-.213-.16-.16-.32.8-.373,0-1.651.692-2.13a3.131,3.131,0,0,1,1.278-1.065c.16.373-.426.586-.533,1.012a2.793,2.793,0,0,0,.16,2.876,3.117,3.117,0,0,0,2.343,1.225c.266-.533,1.012-.959.852-1.7.107-.053.107-.213.213-.16.266.16.213.426.373.639.852-.266-.213-2.4.852-1.065a1.311,1.311,0,0,0,.053.639c.373.053.266-.373.373-.533a2.394,2.394,0,0,0-.213-1.225c.373-.107.533.426.692.692.107.16-.053.479.213.533.426-.639-.213-1.172-.107-1.864.266-.107.533.32.692.533s.107.639.32.852a1.051,1.051,0,0,0,.266-1.172,9.258,9.258,0,0,0-.692-.8c.107-.053.16-.213.266-.16l1.012,1.172c.373-.479-.053-.959-.213-1.385l-.266-.32c.266-.373.533.213.852.266.266-.266-.213-.479-.16-.692a4.226,4.226,0,0,0-1.331-.8c.213-.266.8-.16,1.118,0s.373.373.639.479a1.355,1.355,0,0,0-.213-.905c-.266-.373-.746-.213-1.118-.479.213-.266.586-.16.852-.266-.266-.639-.959-.692-1.491-.852a11.045,11.045,0,0,0-.533,1.758c-.373,1.331-1.758,2.237-2.556,3.249-.107-.107-.373-.053-.32-.266l1.438-1.544a2.676,2.676,0,0,0-.639-1.491c.213-.16.426.16.639.213.107-.479-.373-.905-.692-1.331.266-.213.533.107.746.266.107-.479-.426-.852-.692-1.172l.639-.107c-.107-1.278-1.491-2.024-2.556-2.343a4.223,4.223,0,0,0-4.42,1.7c-1.6,1.651-.16,4.1-.639,6.125-.107.053-.213.266-.373.213-.16-1.278-.266-2.556-.32-3.781,0-.266.373-.586.16-.852-.8,2.4-3.622,4.633-2.024,7.4a1.948,1.948,0,0,1-.16,1.331h-.16a9.519,9.519,0,0,0-.692-2.077c-.266.32-.053,1.118-.639,1.118.053.852-.692,1.331-.639,2.13a2.827,2.827,0,0,1,1.864.16c.32-.692,1.278-1.278,1.012-2.237.426.107.266.959,1.012.8.8-1.065,1.118-2.29,2.024-3.3-.213-1.7-1.172-4.207.852-5.432a2.74,2.74,0,0,1,2.4-.533l.266.213-.16.16c-.586.053-1.385-.107-1.864.373a3.29,3.29,0,0,0-1.065,3.462c1.172,1.864-1.438,3.142-1.864,4.793-.959.586.266,1.651-.426,2.4.692-.16,1.651.426,2.024-.639.107-.053.213-.266.373-.213.266.479-.586.692-.639,1.172-.266.426.16.852-.107,1.225-1.172.533-.959,1.811-1.065,2.716a2.031,2.031,0,0,0,2.184-.533,2.814,2.814,0,0,0-1.331,0,12.257,12.257,0,0,1,1.278-2.663c.373.213.533.8.746,1.172.266-.533-.266-1.651.852-1.544a3.914,3.914,0,0,1,1.118,1.172c-1.172.533-.373,1.917-1.544,2.343-.533.692-1.651,1.438-1.118,2.4l.053.107c-.479.373-1.651.373-1.385,1.385a1.128,1.128,0,0,1-1.438.692h-.053l.053-.266c-.213.533.692.746.16,1.331.107.107.213.266.373.426a7.627,7.627,0,0,1,3.462-.32c.533.213.373.692.213,1.118.32.852.213,1.917.852,2.663a1.453,1.453,0,0,1-.8,1.758,4.228,4.228,0,0,1-1.438.533c-.426-.373-.639-1.438-1.278-1.172-.426.32-.852.692-1.278,1.012l1.331,3.089a3.385,3.385,0,0,1-.32.959c-1.331-.692-1.225-2.29-2.077-3.3l-2.982,1.065a12.666,12.666,0,0,0-1.544-2.716c-.533.107-.639.8-1.012,1.172l-.959.959c-.16,1.758.479,4.048-.852,5.166-1.065-1.491-.266-3.515-.373-5.219a7.053,7.053,0,0,1-1.544-2.45h-.213a11.243,11.243,0,0,0-1.758,3.089,34.273,34.273,0,0,1-3.249-1.278c-.905.905-.905,2.61-2.29,2.823-.266-.107-.213-.533-.107-.746a15.165,15.165,0,0,0,1.491-2.929,18.466,18.466,0,0,0-1.544-1.331c-.373.533-.213,1.278-.692,1.651a3.046,3.046,0,0,1-2.45-1.544c-.053-.373-.266-.746-.107-1.172,1.172-.852.959-2.4,1.385-3.622,1.225-.905,2.61,0,3.728.426A3.04,3.04,0,0,0,27,32.427c-.426-.32-1.065-.213-1.331-.8.053-.479.373-1.278-.479-1.225-1.331.053-.053-1.065-.533-1.7s-.586-1.491-1.225-2.077c.107-.639-.586-.959-.8-1.438a6.688,6.688,0,0,1,1.172-1.278c.479.373.266,1.172.479,1.7.426-.266.586-.852.959-1.225.639.692.692,1.758,1.331,2.556-.479.32-1.118-.266-1.651-.053.107.373.586.426.959.639h1.491a17.993,17.993,0,0,0-1.118-3.089c.639-.8-.852-1.278-.32-2.024l-1.811-2.13c-.8.213-1.491.746-2.343.533-.053-.426-.107-.959-.586-1.172a4.475,4.475,0,0,1-2.876-2.024.988.988,0,0,1,.213-1.118,2.671,2.671,0,0,0,1.225,2.077c.8.373,2.13.533,2.184,1.7.426.266.8-.16,1.172-.32.266-.266.053-.8.213-1.172.266.266.107.8.373,1.012.373-.373.213-1.118.16-1.6l.053-.107c.266.107.373.479.533.639a7.214,7.214,0,0,0-.32-2.184c.692.373.586,1.172.959,1.7a3.069,3.069,0,0,0-1.544-3.3l-.16-.16c.8-.16,1.491.8,1.917,1.385.213.266.16.692.479.959a1.752,1.752,0,0,0,.053-1.544A3.76,3.76,0,0,0,23.7,14a3.313,3.313,0,0,1,2.61,1.385,1.751,1.751,0,0,0-.266-1.172A3.732,3.732,0,0,0,24.661,13.2c.266-.266.692.16,1.065.213.213.16.32.373.533.479a3.129,3.129,0,0,0-1.544-1.651c-.32-.107-.586-.16-.959-.266.746-.479,1.385.266,2.024.479l.533.533c.16-1.118-1.278-1.278-2.024-1.7-.107-.053-.266.053-.32-.107.8-.266,1.438.213,2.077.479.213-.586-.639-.852-1.012-1.172a3.015,3.015,0,0,0-1.385-.16,2.3,2.3,0,0,1,1.438-.32c-.746-.586-1.917-.213-2.769-.213a4.01,4.01,0,0,1,2.716-.32c2.077,1.065,2.077,3.515,1.864,5.645-.639,1.6,1.118,2.556,1.438,3.941.266.586,1.012,1.172.533,1.864-1.012-1.278-1.065-3.089-2.4-4.207-.586.533.373.852.426,1.331a19.4,19.4,0,0,1,1.331,3.036c.692-.107.959.426,1.331.852.266.426.213,1.118.426,1.6a1.608,1.608,0,0,1,1.331-.905c.373-.16,1.012.959,1.012,0-.8-.107-.107-1.172-.8-1.172-.16.16-.213.479-.426.533,0-.746.639-1.758.053-2.556-.426.639-.426,1.491-.8,2.077-.32-1.172.533-2.184.373-3.3-.533.053-.639.8-1.012,1.065-.586-1.012,1.544-1.864.213-2.556-.373.266-.213.692-.426,1.012-.373-.266,0-.692,0-1.065a.723.723,0,0,0,.107-.852c-.107-.16-.053-.533-.373-.479-.266.213-.213.692-.426.852-.373-.692.746-1.385-.053-2.024-.479.746-.373,1.864-.692,2.716a4.26,4.26,0,0,1-.16-2.45c.107-.586.479-1.544,0-2.024-.32.107.053.533-.266.692A3.706,3.706,0,0,0,26.312,9.58a5.2,5.2,0,0,0-3.888-.533,3.37,3.37,0,0,0-2.237,2.663,7.385,7.385,0,0,0,1.172,4.633l-.053.107c-1.385-1.651-2.237-4.367-1.118-6.444a3.8,3.8,0,0,1,3.2-1.6,5.174,5.174,0,0,1,3.994,1.758c.426.586.373,1.385.959,1.917-.053.213.107.32.16.479l.32-.32a5.314,5.314,0,0,1,.533,1.544c.852,1.6,1.971,3.142,1.917,4.953.746.533.586,1.758,1.012,2.556l.107.426c.107-1.172-.426-2.343-.426-3.462.426-.16.213-.639.16-.959a33.869,33.869,0,0,1-1.331-4.527c.373-.8-.692-1.012-.639-1.651l.266-.107c.107-.8-.692-1.331-.16-2.13-.373-.639-1.278-.959-1.491-1.7A4.3,4.3,0,0,1,28.975,3.4c.8-.852,1.811-1.6,2.876-1.278.16-.053.266.107.373.107v.107a3.117,3.117,0,0,0-2.876,1.438c-.426,1.065-.639,2.663.213,3.568.266.959,2.61.746,1.172,1.864-.053.852.479,1.544.107,2.343,1.172,1.278,2.45,2.29,3.622,3.462-.053.107.053.266-.107.32a24.07,24.07,0,0,1-2.929-2.4h-.053c.533,1.491.8,3.3,1.225,5.006a9.687,9.687,0,0,1,1.917,2.237l-.16.16c-.586-.639-1.278-1.278-1.917-1.864.746,2.5-.16,5.006.479,7.669.266.107.586-.107.852-.32a1.184,1.184,0,0,0,.426-.692c-.266-.107-.639.16-.905.373a6.345,6.345,0,0,1-.32-2.823c.426-.533.852.586,1.385.479a2.1,2.1,0,0,0-.639-1.278c.373-.479.852,0,1.225-.373a3.155,3.155,0,0,0-.852-2.823c.266-.373.533.266.852.373a2.133,2.133,0,0,0-.639-1.544l.107-.107.692.533c.107-.639-.426-1.225-.692-1.864.107-.213.213-.053.373,0s.16.266.266.266a3.269,3.269,0,0,0-1.065-3.036c.107-.266.373-.16.533-.053l.479.533c.266-.692-.586-1.172-1.012-1.651.266-.266.426.213.692.107.213.107.213.373.373.373a1.465,1.465,0,0,0-.266-1.225c-1.118-.905-2.982-1.012-3.249-2.716a2.257,2.257,0,0,1,.213-1.758h.16c.053,1.065.053,2.29,1.172,2.769a25.253,25.253,0,0,1,2.716,1.278c.266-.746,1.172-.639,1.385-1.385.426.16.053.852.639.692.586-.373.107-1.225.479-1.7.533.16.213,1.438.852.746.266-.586-.16-1.065-.213-1.6.107-.107.16-.213.266-.16.426.32.373.905.692,1.172a2.32,2.32,0,0,0-.373-1.864c-.32-.692-1.065-.426-1.385-.905.586-.479,1.118.107,1.6.373.639.533.692,1.331,1.118,2.024.533-.16.266-.852.213-1.225-.16-.533-1.012-.905-.692-1.438A3.447,3.447,0,0,1,41.81,7.5c.32.107.107-.32.266-.373.213-1.012-.692-1.6-1.385-2.024-.107,0-.213-.16-.32-.213.692-.266,1.331.373,1.917.746.266-.373-.107-.692-.213-1.012l-1.012-.746c.107-.266.479-.16.692-.266a3.148,3.148,0,0,0-3.2-.639l-.053.107a.213.213,0,0,1-.107-.213c1.065-.959,2.4-.266,3.462.053.213-.426-.266-.692-.533-1.012-.426-.266-.959-.107-1.438-.373l.373-.32a2.871,2.871,0,0,0-2.982.8,4.358,4.358,0,0,0-1.012,2.556c-.107.053-.16-.107-.266-.107-.107-.905.586-1.758,0-2.556-.266-.107-.533.266-.533.479-.053,2.024.426,4.048.107,5.858-.426-.266-.213-.905-.639-1.225-.16-.053-.426.213-.533-.107.053-.373.639-.533.533-.905l-1.065-.107c.053-.692,2.024-.586.639-1.331a2.233,2.233,0,0,0-1.172.266c-.213-.426.32-.639.639-.746a2.345,2.345,0,0,0,.852-.107.934.934,0,0,0-1.065-.533c-.107,0-.266.053-.32-.053a.972.972,0,0,1,1.172-.213.1.1,0,0,0,.16.053c.266-.426-.426-.746-.692-1.012l-.905-.32c.213-.586,1.012.213,1.172-.266a3.292,3.292,0,0,0-3.568-.533,2.928,2.928,0,0,0-1.651,1.811.474.474,0,0,1-.426-.266C29.081,1.112,30.786.26,32.277.1a4.054,4.054,0,0,1,3.036,1.544m5.432,7.829c-1.118.8-2.077,1.971-3.568,1.917-.32.107-.266.533-.373.852.053,3.2-.373,6.338-.213,9.48.266-.107.373.213.533.32a3.567,3.567,0,0,1-.852,1.438,3,3,0,0,0,.639-.213c.373-.107.8-.8,1.172-.266.213,1.012-.32,1.7-.16,2.716-.479.426-1.012-.32-1.544-.479-.053.373.373.479.479.8.373.107.692.533,1.065.373.266-1.278.16-2.716.373-4.048-.266-.053-.426.213-.639-.107a3.2,3.2,0,0,0,.692-1.331c-.266-.107-.692.852-1.012.16,0-.426.533-.746.8-1.012.16-.479.852-.533.852-1.065-.746.213-1.331,1.012-1.864,1.6-.213.107-.213-.16-.373-.213a5.994,5.994,0,0,1,2.077-2.237v-.107c-.266.107-.692.373-.959-.107.426-.639,1.331-.852,1.331-1.6-.373.107-.586.479-.959.533-.32-.692.852-.852,1.065-1.438a3.545,3.545,0,0,0-1.065.639c-.213,0-.32.373-.533.107.32-1.065,1.811-1.278,2.024-2.45a8.017,8.017,0,0,0-1.172.586c-.533.266-1.012,1.331-1.6.852.16-.426.692-.8,1.012-1.172.586-.639,1.864-.426,2.024-1.438-.8.053-1.331.746-2.024,1.065l-.213-.213a3.411,3.411,0,0,1,1.544-1.331,2.63,2.63,0,0,0,1.065-.959,10,10,0,0,0-1.6.639c-.479.053-.852.8-1.331.533a3.825,3.825,0,0,1,1.971-1.438,1.852,1.852,0,0,0,1.331-1.385M35.952,11.71a90.757,90.757,0,0,1-.266,10.066h0c.266-3.2.426-6.87.373-10.066Zm-9.959,5.965-1.331,2.077.213.426c.852,1.118,1.544,2.5,2.929,2.929.639-.905-.692-.905-.905-1.544.213-.479.692,0,.905-.107-.373-.533-1.118-.213-1.385-.852.213-.426.692-.107,1.012-.16,0-.8-.959-.373-1.225-1.012.16-.266.533-.266.692-.373-.16-.533-.373-1.225-.905-1.385m2.663,3.941-.16.32c.053.8-.533,1.864.426,2.343.266.213.266.746.692.639.692.053.266-.639.852-.852.586-.426,1.225.053,1.491.533a1.281,1.281,0,0,0,.213-.852c-.107-.533-.692-.586-1.172-.533-.852.107-.533,1.118-1.225,1.491l-.213-.213a2.758,2.758,0,0,0-.905-2.876m13.314.533c-.8.8-.639,1.917-.852,2.929a.275.275,0,0,0,.373.16,3.641,3.641,0,0,0,.8-3.089Zm-7.35.107a9.912,9.912,0,0,1,.533,1.331c.639.266.852-.8,1.331-1.225Zm-1.012.852.107,1.758.905-.426c.213-.746-.852-.692-1.012-1.331m5.379.426c-.053.373-.213.692,0,1.012a.466.466,0,0,0,.479-.266.911.911,0,0,1,1.065.266,1.963,1.963,0,0,0-.053-.8,1.276,1.276,0,0,0-1.491-.213m-1.6.107c-.32.426-1.385.266-1.065,1.012.373,0,.586.373.959.426a4.379,4.379,0,0,0,.107-1.438m-10.172.16a.826.826,0,0,0-.533.905c.16.16.107.533.479.373-.053-.266.266-.533.533-.692a1.824,1.824,0,0,1,1.172.266,2.391,2.391,0,0,0-1.651-.852m8.2.266a.4.4,0,0,0-.266.373c0,.213.213.16.32.16.266.107.213-.213.213-.373-.107-.053-.16-.213-.266-.16M23.7,24.492l-.533.533c-.107.426.32.639.373.959.639-.266.107-1.118.16-1.491m6.977.213c.426.266,0,.692.16.959a.506.506,0,0,0,.586-.213c.852-.266.053.533.373.8.213.053.32.213.533.16l.053-1.758a8.192,8.192,0,0,1-.692.639c-.16-.533-.746-1.172-1.012-.586m4.314.373a2.952,2.952,0,0,1-2.556,1.864c-.959.053-1.7-.852-2.237-1.491a2.137,2.137,0,0,0-.8.16c.373,1.012-.586,1.544-1.172,2.077a2.577,2.577,0,0,1-2.556.053c-.426-.053-.639-.533-1.118-.426a3.328,3.328,0,0,0,.533,1.172l1.491.213c.692.426-.266,1.278-.053,1.758a18.941,18.941,0,0,1,6.018-1.544l-.266-.266c0-.213-.053-.373.107-.479a.6.6,0,0,1,.852.107v.053a.618.618,0,0,1-.213.533,25.97,25.97,0,0,1,7.935,1.012c.959.32,2.024.905,2.876,1.118L43.3,29.871c.639-.426,1.491-.266,2.077-.959.213-.373.905-.8.533-1.225a2.5,2.5,0,0,1-1.544.852,3.117,3.117,0,0,1-3.249-1.385,1.3,1.3,0,0,1,.213-1.172c-.266,0-.533-.266-.852-.053-.213,1.118-1.544.905-2.4,1.172a2.63,2.63,0,0,1-2.024-1.118c-.266-.373-.266-1.225-1.065-.959m7.243.586v.373c-1.065,1.172.852-.107.852.852a.77.77,0,0,1,.107-.373c-.692-.107-.32-1.065-.959-.852m-.692,1.225.213.639c.373.16.586-.373.8-.479-.373.266-.692-.16-1.012-.16m1.438.32c-.053.32-.533.373-.533.639.16.053.266.213.426.16Zm2.13,2.556a8.513,8.513,0,0,0-1.118.266c0,.107-.053.32.053.426.107.852.746.053,1.172.053ZM25.14,24.971c-.107.373-.479.639-.373,1.118.107.586.852.426,1.278.639-.32-.479-.426-1.331-.905-1.758m2.716,0c-.107.213,0,.479-.266.639-.053-.107-.16-.053-.213-.053l.266.8c.213.053.32-.213.479-.32.213.107.533.107.8.213v-.426c-.213-.426-.479-1.012-1.065-.852M23.969,26.09l-.053.692.586.107.107-.373c-.16-.213-.373-.533-.639-.426M27.91,27c-.053.16,0,.426.213.32V27.1c0-.107-.16-.107-.213-.107m-1.758,4.154v.426a1.169,1.169,0,0,0,1.065.373.6.6,0,0,0-.16-.426c.639-.959,1.864-1.065,2.823-1.438A19.638,19.638,0,0,1,43.3,31.629c.266.266-.053.586-.213.692H43.3c.266-.213.746-.426.639-.852-5.113-2.663-12.622-2.876-17.788-.32m6.924-1.012c.213,2.663.266,5.645.213,8.415.213.586.373,1.278.959,1.6.32-.533-.266-.905-.373-1.385.107-.426.426.053.639-.213l-.533-1.012c.107-.266.266-.053.426-.107.107-.586-.746-.959-.8-1.6.266-.107.533.266.8.373a2.97,2.97,0,0,0-.533-1.491c.266-.426.426.213.8.16-.107-.533-.8-1.065-.32-1.544l.213.213v-.692c-.426-.479-1.331-.852-1.012-1.491.32.213.639.586,1.012.639.053-.266-.373-.373-.373-.639l.32-.266c.053.107.16.053.213.053.053-.32-.533-.746,0-.959.107-.053.32,0,.213-.213-.639.053-1.225.053-1.864.16m2.343.213a.4.4,0,0,1,.533-.053l.107.107c.213,3.515-.373,6.657-.373,10.066.8-.8,1.7-1.758,1.331-3.089l-.533.053c-1.172-.905.586-1.438.533-2.343-1.278-.213.426-.905.053-1.385-.213.053-.426.266-.639.107a2.111,2.111,0,0,0,.639-1.225c-.373-.16-.692.533-.959,0,.213-.639,1.172-.692,1.118-1.385l-.479.16a1.761,1.761,0,0,1-.373-1.225c-.373.107-.959-.213-.959.213m-5.059.213a14.522,14.522,0,0,1-1.331,5.006,2.085,2.085,0,0,0,.533.426c.426.32.586-.373.8-.639a.527.527,0,0,0-.213-.746h0c.16-.053.213-.32.373-.213.32,0,.373-.266.32-.533h-.373c-.053-.053-.213-.107-.16-.213a1.25,1.25,0,0,0,1.012-1.172,6.382,6.382,0,0,1-.639.586l-.16-.16c.373-.959,1.864-1.6,1.6-2.61l-1.012.905-.213-.053c.053-.373.533-.533.533-.852a2.424,2.424,0,0,0-1.065.266m7.989-.213a11.108,11.108,0,0,1,.692,2.61c.479.053.852.533,1.118.852l-.213.16a3.671,3.671,0,0,0-.8-.373c.32.905.32,1.917.692,2.823-.8.639-.533-1.065-1.278-.639a2.655,2.655,0,0,0-1.225,2.4c2.823-.16,4.527-3.142,7.19-3.728.533-.053,1.225-.266,1.651.16-.426.852.8,1.811-.16,2.4L44.633,36c.053.373.586.852.213,1.172-.746.053-1.278.746-1.864,1.172a4.852,4.852,0,0,0-1.172-1.758l.213-.266c.586-.053,1.118-1.331,1.651-.32-.32.32-.692,0-1.012.32a.519.519,0,0,0,.213.479c.266.16.373-.32.533-.32l.107.16c.053.16.266.266,0,.373-.107-.213-.213.053-.373.053.32,1.278.639-.426,1.278-.266l-.373-1.118c-.16,0-.373.053-.479-.053.692-1.438,1.6.373,2.237.373a1.372,1.372,0,0,0-.533-1.012c.053-.107.213-.107.16-.266-3.089.16-5.006,3.2-7.722,3.941a5.824,5.824,0,0,1,1.331,2.024c.639.053,1.065-.373,1.7-.426,2.184-.852,3.568-3.622,6.178-3.249l-.533-2.4.16-.16c-3.142-.959-5.113,1.811-7.509,3.142-.426.213-1.012.692-1.385,0-.107-.586.373-.959.8-1.331.213-.053.426-.426.639-.053a.643.643,0,0,1-.373.373c-.213.107-.586.426-.32.746a8.218,8.218,0,0,0,2.237-1.385,21.8,21.8,0,0,1-.8-5.326Zm-5.752.266a32.006,32.006,0,0,0-1.544,4.846,2.852,2.852,0,0,1,1.7,1.118c-.213-.373.107-.692-.053-1.012-.266.053-.692.213-.852-.053.213-.32.533-.266.8-.373l-1.225-.16a1.913,1.913,0,0,1,1.278-.692,28.509,28.509,0,0,1-.107-3.675m5.166,0c-.053,1.438.053,2.982-.053,4.261l1.172.32L38.4,33.173c0-.32-.692-.586-.213-.905a1.776,1.776,0,0,0-.426-1.651M27.7,32.108a1.883,1.883,0,0,0,1.065.852l.32-1.438c.213-.373.959-.16.8-.8-.8.373-2.343.16-2.184,1.385m7.456-1.118c-.053,4.687-.426,9.427-.639,14.167.107.213.107.586.32.692.213-4.9.426-9.853.692-14.646.053-.213-.266-.053-.373-.213m5.432,0c-.32,1.385.266,2.769.533,4.1,0-1.438-.586-2.663-.373-4.1h-.16Zm.692.692L41.65,35.3a3.9,3.9,0,0,0,1.225-.852l-.053-.107a.987.987,0,0,0-.373.107c-.266-.32.32-.692.213-1.172-.426-.426-.479.586-.959.692l-.107-.107a9.7,9.7,0,0,1,.8-1.438c.053,0,.213,0,.213.107-.213-.266.266-.479.266-.8-.479-.213-.692.373-.905.639l-.266-.213a.982.982,0,0,0,.266-.852c-.32-.107-.373.373-.692.373M28.6,35.144h.266a13.432,13.432,0,0,0,.852-3.568A25.32,25.32,0,0,0,28.6,35.144M27.537,32.96a3.121,3.121,0,0,0-.107,1.385c.266.16.426.426.8.373a1.824,1.824,0,0,0,.266-1.172,2.229,2.229,0,0,0-.959-.586m-3.515.426c-.107.213-.426-.053-.373.213,2.769.053,4.74,2.024,6.817,3.888.639.426,1.385,1.118,2.237.639a1.948,1.948,0,0,0-.479-1.491.83.83,0,0,1,.16.639c-.16.213-.266.639-.639.639-2.663-1.225-4.527-4.474-7.722-4.527m-.373.533a13.167,13.167,0,0,0-.586,2.5,3.434,3.434,0,0,1,1.065.16c2.4.905,3.994,3.888,6.71,3.994a5.617,5.617,0,0,0,1.225-1.917c-2.929-1.278-4.9-4.846-8.415-4.74m.373.373a1.871,1.871,0,0,1-.479,1.864c.373.053.692.32,1.012.213a1.848,1.848,0,0,1,.426-1.864.8.8,0,0,0-.959-.213m1.811,1.172a1.2,1.2,0,0,0-.479,1.225c.32.905,1.278,1.012,1.971,1.278a2.927,2.927,0,0,0,.373-.479c-.533-.053-1.331.16-1.7-.426a.841.841,0,0,1,.16-1.172,3.238,3.238,0,0,1,1.012.053,2,2,0,0,1,.959,1.118c.053-.107.213-.213.213-.373-.746-.692-1.491-1.544-2.5-1.225m11.5.053c-.266.479-.8.586-.8,1.172.8.746.8-.852,1.544-1.065Zm-6.657.32c0,.373-.586.533-.266.959a2.129,2.129,0,0,0,1.385.533c.266-.107.107-.373.16-.533-.373-.373-.692-1.065-1.278-.959M24.874,37.38c-.746-.426-1.917-.852-2.61-.213a1.747,1.747,0,0,0,.213,1.544c.533.373,1.172.905,1.758.692-.639-.32-1.6-.852-1.6-1.7a.906.906,0,0,1,1.065-.533c2.45.959,4.207,3.941,6.977,4.048v-.266c-2.29-.213-3.835-2.4-5.805-3.568m16.616-.426-.692.533a2.647,2.647,0,0,1,1.065,1.544l.692-.586a3.351,3.351,0,0,1-1.065-1.491m-12.569.053a3.334,3.334,0,0,1-1.172,1.758c.213.107.426.373.692.373l.373-.639a1.623,1.623,0,0,1,.852.426,1.623,1.623,0,0,1-.426.852l.053.053c1.012.692.959-1.225,1.864-1.385-.266-.107-.479-.426-.8-.533l-.16.479c-.053.266-.32.213-.533.213-.16-.213-.533-.213-.533-.533.107-.266.213-.533.533-.533-.053-.213-.479-.32-.746-.533m15.445,1.118a10.734,10.734,0,0,1-5.006,3.089v.053h.053c2.823-.053,4.261-3.462,7.03-3.568a1.089,1.089,0,0,1,.533,1.438c.107-.053.16-.213.266-.213.107-.373.426-.852.107-1.225a4.158,4.158,0,0,0-2.982.426m-21.037-.32a.527.527,0,0,0,.213.746c.266.213.639.479.852.32a1.041,1.041,0,0,0,.213-.852c-.426-.053-.8-.479-1.278-.213m15.285,1.118a3.794,3.794,0,0,1,.959,1.438l.905-.426a1.25,1.25,0,0,0,.692-1.331c-.692-1.065-1.864-.266-2.556.32m7.03-.692c-.107.266-.586.053-.479.479.107.32.373.852.692.852a1.18,1.18,0,0,0,.692-1.012c-.107-.32-.533-.32-.905-.32m-5.059.746c.053.32-.053.692-.373.692s-.533-.479-.692-.746a.325.325,0,0,1,.16-.373h.053c.373-.053.8.053.852.426m1.971,1.438a8.219,8.219,0,0,0,1.491,3.249,18.462,18.462,0,0,0-1.225-3.249Zm.426-15.924c-.266.107-.692.213-.639.639.533-.16.746.533,1.012.8a.934.934,0,0,0,.533-1.065.9.9,0,0,0-.905-.373m-3.355.692c-.32.586-.692-.107-1.012-.16-.213.426.107,1.118-.266,1.491.426.213,0-.533.426-.639.32-.586.692-.213,1.118,0a4.5,4.5,0,0,1,.266-.905c-.213-.32-.586-.16-.533.213m7.243-.107c-.16.373.053.959-.16,1.438.426.107.426-.479.746-.533.32-.533-.373-.586-.586-.905m-1.438.692-.639,1.385.959.053c.32-.479-.16-1.065-.32-1.438m-6.338.586c.213,0,.479,0,.533-.16-.16-.107-.639-.266-.533.16m7.243.586-.053.426a.275.275,0,0,0,.373.16c.266-.107.107-.373.16-.533ZM36.7,30.35l.16.533c.16-.107.533-.213.373-.533Z"
                  transform="translate(-8.524 -0.1)" fill="#fff"/>
            <path id="Path_53924" data-name="Path 53924"
                  d="M14,106.369V103.6h1.065a.96.96,0,0,1,.533.107,1.412,1.412,0,0,1,.32.266.77.77,0,0,1,.107.373.757.757,0,0,1-.107.32.642.642,0,0,1-.266.266.616.616,0,0,1,.373.266.414.414,0,0,1,.107.426.906.906,0,0,1-.053.373.532.532,0,0,1-.213.266l-.32.16a1.323,1.323,0,0,1-.426.053Zm.373-1.6h.586a1.04,1.04,0,0,0,.373-.053c.107,0,.16-.053.213-.16a.32.32,0,0,0,.053-.213.48.48,0,0,0-.053-.266.735.735,0,0,0-.213-.16,1.173,1.173,0,0,0-.426-.053h-.533Zm0,1.331h.959c.053,0,.16-.053.213-.053l.16-.16a.32.32,0,0,0,.053-.213.4.4,0,0,0-.053-.266.735.735,0,0,0-.213-.16,1.038,1.038,0,0,0-.426-.053h-.639Z"
                  transform="translate(-6.544 -48.478)" fill="#fff"/>
            <path id="Path_53925" data-name="Path 53925"
                  d="M19.465,106.369V105.2L18.4,103.6h.426l.533.852a2.159,2.159,0,0,1,.266.479,2.5,2.5,0,0,1,.32-.479l.533-.8H20.9l-1.118,1.6v1.172h-.32Z"
                  transform="translate(-8.601 -48.478)" fill="#fff"/>
            <path id="Path_53926" data-name="Path 53926"
                  d="M24.7,106.369l1.065-2.769h.373l1.118,2.769H26.83l-.32-.852H25.392l-.32.852Zm.8-1.118h.959l-.266-.746a4.045,4.045,0,0,1-.213-.586c-.053.16-.107.373-.16.533Z"
                  transform="translate(-11.545 -48.478)" fill="#fff"/>
            <path id="Path_53927" data-name="Path 53927"
                  d="M30.1,106.369V103.6h1.491a.757.757,0,0,1,.32.107.532.532,0,0,1,.213.266.814.814,0,0,1-.16.959,1.12,1.12,0,0,1-.8.266H30.42v1.118Zm.373-1.438h.692a1.892,1.892,0,0,0,.533-.107.483.483,0,0,0,.16-.373.757.757,0,0,0-.107-.32.285.285,0,0,0-.213-.16H30.526v.959Z"
                  transform="translate(-14.069 -48.478)" fill="#fff"/>
            <path id="Path_53928" data-name="Path 53928"
                  d="M35,106.369V103.6h1.491a.757.757,0,0,1,.32.107.532.532,0,0,1,.213.266.814.814,0,0,1-.16.959,1.12,1.12,0,0,1-.8.266H35.32v1.118Zm.373-1.438h.692a1.892,1.892,0,0,0,.533-.107.483.483,0,0,0,.16-.373.391.391,0,0,0-.107-.32.285.285,0,0,0-.213-.16H35.373Z"
                  transform="translate(-16.36 -48.478)" fill="#fff"/>
            <path id="Path_53929" data-name="Path 53929"
                  d="M39.6,105.029a1.628,1.628,0,0,1,.373-1.065,1.111,1.111,0,0,1,.959-.373,1.474,1.474,0,0,1,.692.16,1.166,1.166,0,0,1,.479.533,1.82,1.82,0,0,1,0,1.491,1.045,1.045,0,0,1-.479.479,1.474,1.474,0,0,1-.692.16,1.07,1.07,0,0,1-.692-.213,1.166,1.166,0,0,1-.479-.533A1.136,1.136,0,0,1,39.6,105.029Zm.373,0a1.435,1.435,0,0,0,.266.8.932.932,0,0,0,1.331,0h0a1.173,1.173,0,0,0,.266-.852,1.914,1.914,0,0,0-.107-.586.749.749,0,0,0-.32-.373.859.859,0,0,0-.479-.16,1.122,1.122,0,0,0-.692.266,1.148,1.148,0,0,0-.266.905Z"
                  transform="translate(-18.51 -48.469)" fill="#fff"/>
            <path id="Path_53930" data-name="Path 53930" d="M45.6,106.369V103.6h.373v2.769Z"
                  transform="translate(-21.314 -48.478)" fill="#fff"/>
            <path id="Path_53931" data-name="Path 53931"
                  d="M47.5,106.369V103.6h.373l1.438,2.184V103.6h.373v2.769h-.373l-1.438-2.184v2.184Z"
                  transform="translate(-22.203 -48.478)" fill="#fff"/>
            <path id="Path_53932" data-name="Path 53932" d="M53.305,106.369v-2.45H52.4v-.32h2.184v.32h-.905v2.45Z"
                  transform="translate(-24.493 -48.478)" fill="#fff"/>
            <path id="Path_53933" data-name="Path 53933"
                  d="M57.2,106.369V103.6h.533l.639,1.971a1.646,1.646,0,0,1,.107.426,3.669,3.669,0,0,0,.16-.426l.639-1.917h.479v2.769h-.373v-2.343l-.746,2.343h-.32l-.8-2.343v2.343H57.2Z"
                  transform="translate(-26.737 -48.478)" fill="#fff"/>
            <path id="Path_53934" data-name="Path 53934"
                  d="M63.3,106.369V103.6h1.971v.32h-1.6v.852h1.544v.32H63.673v.959h1.7v.32Z"
                  transform="translate(-29.588 -48.478)" fill="#fff"/>
            <path id="Path_53935" data-name="Path 53935"
                  d="M68.1,106.369V103.6h.373l1.438,2.184V103.6h.373v2.769h-.373l-1.438-2.184v2.184Z"
                  transform="translate(-31.832 -48.478)" fill="#fff"/>
            <path id="Path_53936" data-name="Path 53936" d="M73.905,106.369v-2.45H73v-.32h2.184v.32h-.905v2.45Z"
                  transform="translate(-34.122 -48.478)" fill="#fff"/>
            <path id="Path_53937" data-name="Path 53937" d="M80.105,106.369v-2.45H79.2v-.32h2.184v.32h-.905v2.45Z"
                  transform="translate(-37.02 -48.478)" fill="#fff"/>
            <path id="Path_53938" data-name="Path 53938"
                  d="M83.7,105.029a1.628,1.628,0,0,1,.373-1.065,1.111,1.111,0,0,1,.959-.373,1.474,1.474,0,0,1,.692.16,1.166,1.166,0,0,1,.479.533,1.82,1.82,0,0,1,0,1.491,1.045,1.045,0,0,1-.479.479,1.474,1.474,0,0,1-.692.16,1.07,1.07,0,0,1-.692-.213,1.166,1.166,0,0,1-.479-.533A1.136,1.136,0,0,1,83.7,105.029Zm.373,0a1.435,1.435,0,0,0,.266.8.932.932,0,0,0,1.331,0h0a1.173,1.173,0,0,0,.266-.852,1.915,1.915,0,0,0-.107-.586.749.749,0,0,0-.32-.373.859.859,0,0,0-.479-.16,1.122,1.122,0,0,0-.692.266,1.148,1.148,0,0,0-.266.905Z"
                  transform="translate(-39.123 -48.469)" fill="#fff"/>
            <path id="Path_53939" data-name="Path 53939"
                  d="M1.3,115.169V112.4h.373v1.118H3.111V112.4h.373v2.769H3.111v-1.278H1.673v1.331Z"
                  transform="translate(-0.608 -52.592)" fill="#fff"/>
            <path id="Path_53940" data-name="Path 53940"
                  d="M6.5,115.169V112.4H7.725a2.184,2.184,0,0,1,.586.053,1.412,1.412,0,0,1,.32.266,1,1,0,0,1,.107.426.578.578,0,0,1-.213.479.855.855,0,0,1-.586.266.735.735,0,0,1,.213.16,2.316,2.316,0,0,1,.32.373l.479.746H8.471l-.373-.586a3.632,3.632,0,0,0-.266-.373c-.053-.053-.107-.16-.213-.16a.2.2,0,0,0-.16-.053H6.873v1.225Zm.373-1.544h.8a.79.79,0,0,0,.373-.053.735.735,0,0,0,.213-.16.4.4,0,0,0,.053-.266.575.575,0,0,0-.16-.373.478.478,0,0,0-.479-.107h-.8Z"
                  transform="translate(-3.038 -52.592)" fill="#fff"/>
            <path id="Path_53941" data-name="Path 53941"
                  d="M11.8,115.169V112.4h.373v1.118h1.438V112.4h.373v2.769h-.373v-1.278H12.173v1.331Z"
                  transform="translate(-5.516 -52.592)" fill="#fff"/>
            <path id="Path_53942" data-name="Path 53942" d="M19.405,115.169v-2.45H18.5v-.32h2.184v.32h-.905v2.45Z"
                  transform="translate(-8.647 -52.592)" fill="#fff"/>
            <path id="Path_53943" data-name="Path 53943"
                  d="M23.4,115.169V112.4h.373v1.118h1.438V112.4h.373v2.769h-.373v-1.278H23.773v1.331Z"
                  transform="translate(-10.938 -52.592)" fill="#fff"/>
            <path id="Path_53944" data-name="Path 53944"
                  d="M28.6,115.169V112.4h2.024v.32H28.973v.852h1.544v.32H28.973v.959h1.7v.32Z"
                  transform="translate(-13.368 -52.592)" fill="#fff"/>
            <path id="Path_53945" data-name="Path 53945"
                  d="M35.5,115.169V112.4h1.491a.757.757,0,0,1,.32.107.532.532,0,0,1,.213.266.814.814,0,0,1-.16.959,1.12,1.12,0,0,1-.8.266H35.82v1.118Zm.373-1.491h.692a1.892,1.892,0,0,0,.533-.107.484.484,0,0,0,.16-.373.757.757,0,0,0-.107-.32.285.285,0,0,0-.213-.16H35.926v.959Z"
                  transform="translate(-16.594 -52.592)" fill="#fff"/>
            <path id="Path_53946" data-name="Path 53946"
                  d="M40.3,115.169V112.4h1.225a2.184,2.184,0,0,1,.586.053,1.412,1.412,0,0,1,.32.266,1,1,0,0,1,.107.426.578.578,0,0,1-.213.479.855.855,0,0,1-.586.266.735.735,0,0,1,.213.16.955.955,0,0,1,.266.373l.479.746h-.426l-.373-.586a3.632,3.632,0,0,0-.266-.373c-.053-.053-.107-.16-.16-.16a.2.2,0,0,0-.16-.053h-.639v1.225Zm.373-1.544h.8a.79.79,0,0,0,.373-.053.735.735,0,0,0,.213-.16.4.4,0,0,0,.053-.266.38.38,0,0,0-.16-.32.414.414,0,0,0-.426-.107h-.852Z"
                  transform="translate(-18.837 -52.592)" fill="#fff"/>
            <path id="Path_53947" data-name="Path 53947" d="M45.7,115.169V112.4h.373v2.769Z"
                  transform="translate(-21.361 -52.592)" fill="#fff"/>
            <path id="Path_53948" data-name="Path 53948"
                  d="M47.6,115.169V112.4h.373l1.438,2.184V112.4h.373v2.769h-.373l-1.438-2.184v2.184Z"
                  transform="translate(-22.249 -52.592)" fill="#fff"/>
            <path id="Path_53949" data-name="Path 53949"
                  d="M54.73,114.111l.373.107a1.184,1.184,0,0,1-.426.692.954.954,0,0,1-.746.213,1.7,1.7,0,0,1-.746-.16,1.063,1.063,0,0,1-.426-.533,1.82,1.82,0,0,1,0-1.491,1.045,1.045,0,0,1,.479-.479,1.474,1.474,0,0,1,.692-.16,1.07,1.07,0,0,1,.692.213A1.013,1.013,0,0,1,55,113.1l-.373.107a1.16,1.16,0,0,0-.266-.426.859.859,0,0,0-.479-.16.9.9,0,0,0-.533.16.828.828,0,0,0-.32.426,1.892,1.892,0,0,0-.107.533,2.673,2.673,0,0,0,.107.639.563.563,0,0,0,.32.373.791.791,0,0,0,.479.107.9.9,0,0,0,.533-.16A.807.807,0,0,0,54.73,114.111Z"
                  transform="translate(-24.586 -52.545)" fill="#fff"/>
            <path id="Path_53950" data-name="Path 53950"
                  d="M58.1,115.169V112.4h2.024v.32H58.473v.852h1.544v.32H58.473v.959h1.7v.32Z"
                  transform="translate(-27.157 -52.592)" fill="#fff"/>
            <path id="Path_53951" data-name="Path 53951"
                  d="M64.8,113.729a1.628,1.628,0,0,1,.373-1.065,1.111,1.111,0,0,1,.959-.373,1.474,1.474,0,0,1,.692.16,1.166,1.166,0,0,1,.479.533,1.82,1.82,0,0,1,0,1.491,1.045,1.045,0,0,1-.479.479,1.474,1.474,0,0,1-.692.16,1.07,1.07,0,0,1-.692-.213,1.166,1.166,0,0,1-.479-.533A1.024,1.024,0,0,1,64.8,113.729Zm.373,0a1.12,1.12,0,0,0,.266.8.932.932,0,0,0,1.331,0h0a1.173,1.173,0,0,0,.266-.852,1.915,1.915,0,0,0-.107-.586.749.749,0,0,0-.32-.373.859.859,0,0,0-.479-.16,1.122,1.122,0,0,0-.692.266,1.148,1.148,0,0,0-.266.905Z"
                  transform="translate(-30.289 -52.536)" fill="#fff"/>
            <path id="Path_53952" data-name="Path 53952"
                  d="M70.7,115.169V112.4h1.864v.32H71.073v.852h1.278v.32H71.073v1.278Z"
                  transform="translate(-33.047 -52.592)" fill="#fff"/>
            <path id="Path_53953" data-name="Path 53953"
                  d="M77.346,115.169,76.6,112.4h.373l.426,1.811a2.265,2.265,0,0,1,.107.586c.053-.32.107-.479.107-.533l.533-1.864h.426L79,113.785a6.193,6.193,0,0,1,.213.959c.053-.16.107-.373.16-.586L79.8,112.4h.373l-.746,2.769H79.05l-.586-2.13a2.094,2.094,0,0,1-.107-.32c-.053.107-.053.213-.107.32l-.586,2.13Z"
                  transform="translate(-35.805 -52.592)" fill="#fff"/>
            <path id="Path_53954" data-name="Path 53954"
                  d="M83.2,115.169l1.065-2.769h.373l1.118,2.769H85.33l-.32-.852H83.892l-.32.852ZM84,114h.959l-.266-.746a4.046,4.046,0,0,1-.213-.586c-.053.16-.107.373-.16.533Z"
                  transform="translate(-38.89 -52.592)" fill="#fff"/>
            <path id="Path_53955" data-name="Path 53955" d="M88.6,115.169V112.4h.373v2.45h1.385v.32Z"
                  transform="translate(-41.414 -52.592)" fill="#fff"/>
            <path id="Path_53956" data-name="Path 53956"
                  d="M92.7,115.169V112.4h2.024v.32H93.073v.852h1.544v.32H93.073v.959h1.7v.32Z"
                  transform="translate(-43.33 -52.592)" fill="#fff"/>
            <path id="Path_53957" data-name="Path 53957"
                  d="M97.3,114.264l.373-.053a.757.757,0,0,0,.107.32.532.532,0,0,0,.266.213,1.254,1.254,0,0,0,.426.107.906.906,0,0,0,.373-.053.735.735,0,0,0,.213-.16.4.4,0,0,0,.107-.213c0-.107,0-.16-.053-.213a.453.453,0,0,0-.266-.16,1.555,1.555,0,0,0-.479-.107c-.16-.053-.373-.107-.533-.16a1.412,1.412,0,0,1-.32-.266.706.706,0,0,1,0-.746.955.955,0,0,1,.373-.266,1.385,1.385,0,0,1,1.065,0,.716.716,0,0,1,.373.32.6.6,0,0,1,.16.426h-.373a.484.484,0,0,0-.213-.426.543.543,0,0,0-.479-.107,1.555,1.555,0,0,0-.479.107.322.322,0,0,0-.16.32c0,.107.053.16.107.266a1.6,1.6,0,0,0,.533.213l.639.16a.955.955,0,0,1,.373.266.987.987,0,0,1,.107.373,1.253,1.253,0,0,1-.107.426,1.084,1.084,0,0,1-.373.32,1.892,1.892,0,0,1-.533.107,2.673,2.673,0,0,1-.639-.107.828.828,0,0,1-.426-.32A1.616,1.616,0,0,1,97.3,114.264Z"
                  transform="translate(-45.48 -52.592)" fill="#fff"/>
            <path id="Path_53958" data-name="Path 53958"
                  d="M0,122.964l.32-.053a.757.757,0,0,0,.107.32.532.532,0,0,0,.266.213,1.254,1.254,0,0,0,.426.107.906.906,0,0,0,.373-.053c.107-.053.16-.107.266-.16a.4.4,0,0,0,.107-.213c0-.107,0-.16-.053-.213a.453.453,0,0,0-.266-.16,1.693,1.693,0,0,0-.479-.16c-.16-.053-.373-.107-.533-.16a1.114,1.114,0,0,1-.32-.213.706.706,0,0,1,0-.746,1.412,1.412,0,0,1,.32-.266,1.892,1.892,0,0,1,.533-.107,1.892,1.892,0,0,1,.533.107.716.716,0,0,1,.373.32.6.6,0,0,1,.16.426h-.32a.484.484,0,0,0-.213-.426.543.543,0,0,0-.479-.107,1.555,1.555,0,0,0-.479.107.322.322,0,0,0-.16.32c0,.107.053.16.107.266a1.6,1.6,0,0,0,.533.213c.213.053.426.107.586.16a.955.955,0,0,1,.373.266.987.987,0,0,1,.107.373,1.253,1.253,0,0,1-.107.426,1.084,1.084,0,0,1-.373.32,1.892,1.892,0,0,1-.533.107,1.351,1.351,0,0,1-.639-.107.828.828,0,0,1-.426-.32A2.265,2.265,0,0,1,0,122.964Z"
                  transform="translate(0 -56.658)" fill="#fff"/>
            <path id="Path_53959" data-name="Path 53959"
                  d="M6.958,121.1H7.33v1.6a2.673,2.673,0,0,1-.107.639.828.828,0,0,1-.32.426,1.418,1.418,0,0,1-.639.16,1.074,1.074,0,0,1-.586-.16,1.244,1.244,0,0,1-.373-.373A1.462,1.462,0,0,1,5.2,122.7v-1.6h.373v1.6a1.812,1.812,0,0,0,.053.533.532.532,0,0,0,.213.266,1,1,0,0,0,.426.107,1.074,1.074,0,0,0,.586-.16.848.848,0,0,0,.16-.692V121.1Z"
                  transform="translate(-2.431 -56.658)" fill="#fff"/>
            <path id="Path_53960" data-name="Path 53960"
                  d="M10.3,123.869V121.1h1.491a.757.757,0,0,1,.32.107.532.532,0,0,1,.213.266.814.814,0,0,1-.16.959,1.12,1.12,0,0,1-.8.266h-.692v1.118Zm.373-1.438h.746a1.272,1.272,0,0,0,.479-.107.483.483,0,0,0,.16-.373.757.757,0,0,0-.107-.32.285.285,0,0,0-.213-.16H10.673Z"
                  transform="translate(-4.814 -56.658)" fill="#fff"/>
            <path id="Path_53961" data-name="Path 53961"
                  d="M15.2,123.869V121.1h1.491a.757.757,0,0,1,.32.107.532.532,0,0,1,.213.266.814.814,0,0,1-.16.959,1.12,1.12,0,0,1-.8.266H15.52v1.118Zm.373-1.438h.746a1.892,1.892,0,0,0,.533-.107.483.483,0,0,0,.16-.373.391.391,0,0,0-.107-.32.285.285,0,0,0-.213-.16H15.679Z"
                  transform="translate(-7.105 -56.658)" fill="#fff"/>
            <path id="Path_53962" data-name="Path 53962" d="M20,123.869V121.1h.373v2.45h1.385v.32Z"
                  transform="translate(-9.348 -56.658)" fill="#fff"/>
            <path id="Path_53963" data-name="Path 53963" d="M24.2,123.869V121.1h.373v2.769Z"
                  transform="translate(-11.312 -56.658)" fill="#fff"/>
            <path id="Path_53964" data-name="Path 53964"
                  d="M26.1,123.869V121.1h2.024v.32H26.473v.852h1.544v.32H26.473v.959h1.7v.32Z"
                  transform="translate(-12.2 -56.658)" fill="#fff"/>
            <path id="Path_53965" data-name="Path 53965"
                  d="M31,123.869V121.1h1.225a2.184,2.184,0,0,1,.586.053,1.412,1.412,0,0,1,.32.266,1,1,0,0,1,.107.426.578.578,0,0,1-.213.479.855.855,0,0,1-.586.266.735.735,0,0,1,.213.16,2.316,2.316,0,0,1,.32.373l.479.746h-.479l-.373-.586a3.63,3.63,0,0,0-.266-.373c-.053-.053-.107-.16-.16-.16a.2.2,0,0,0-.16-.053h-.639v1.225Zm.373-1.544h.8a.79.79,0,0,0,.373-.053.735.735,0,0,0,.213-.16.4.4,0,0,0,.053-.266.38.38,0,0,0-.16-.32.414.414,0,0,0-.426-.107H31.32Z"
                  transform="translate(-14.49 -56.658)" fill="#fff"/>
            <path id="Path_53966" data-name="Path 53966"
                  d="M36,122.964l.373-.053a.757.757,0,0,0,.107.32.532.532,0,0,0,.266.213,1.254,1.254,0,0,0,.426.107.906.906,0,0,0,.373-.053c.107-.053.16-.107.266-.16a.4.4,0,0,0,.107-.213c0-.107,0-.16-.053-.213a.453.453,0,0,0-.266-.16,1.555,1.555,0,0,0-.479-.107c-.16-.053-.373-.107-.533-.16a1.412,1.412,0,0,1-.32-.266.706.706,0,0,1,0-.746.956.956,0,0,1,.373-.266,1.385,1.385,0,0,1,1.065,0,.716.716,0,0,1,.373.32.6.6,0,0,1,.16.426h-.373a.484.484,0,0,0-.213-.426.543.543,0,0,0-.479-.107,1.555,1.555,0,0,0-.479.107.322.322,0,0,0-.16.32c0,.107.053.16.107.266a1.6,1.6,0,0,0,.533.213l.639.16a.956.956,0,0,1,.373.266.987.987,0,0,1,.107.373,1.253,1.253,0,0,1-.107.426,1.084,1.084,0,0,1-.373.32,1.893,1.893,0,0,1-.533.107,2.674,2.674,0,0,1-.639-.107.828.828,0,0,1-.426-.32A1.122,1.122,0,0,1,36,122.964Z"
                  transform="translate(-16.827 -56.658)" fill="#fff"/>
            <path id="Path_53967" data-name="Path 53967"
                  d="M42.9,122.529a1.628,1.628,0,0,1,.373-1.065,1.111,1.111,0,0,1,.959-.373,1.474,1.474,0,0,1,.692.16,1.166,1.166,0,0,1,.479.533,1.82,1.82,0,0,1,0,1.491,1.045,1.045,0,0,1-.479.479,1.475,1.475,0,0,1-.692.16,1.07,1.07,0,0,1-.692-.213,1.166,1.166,0,0,1-.479-.533A1.265,1.265,0,0,1,42.9,122.529Zm.373,0a1.435,1.435,0,0,0,.266.8.932.932,0,0,0,1.331,0h0a1.173,1.173,0,0,0,.266-.852,1.915,1.915,0,0,0-.107-.586.749.749,0,0,0-.32-.373.859.859,0,0,0-.479-.16,1.122,1.122,0,0,0-.692.266,1.148,1.148,0,0,0-.266.905Z"
                  transform="translate(-20.052 -56.649)" fill="#fff"/>
            <path id="Path_53968" data-name="Path 53968"
                  d="M48.8,123.869V121.1h1.864v.32H49.173v.852h1.278v.32H49.173v1.278Z"
                  transform="translate(-22.81 -56.658)" fill="#fff"/>
            <path id="Path_53969" data-name="Path 53969"
                  d="M55.2,123.869V121.1h1.065a.96.96,0,0,1,.533.107,1.412,1.412,0,0,1,.32.266.77.77,0,0,1,.107.373.757.757,0,0,1-.107.32.642.642,0,0,1-.266.266.616.616,0,0,1,.373.266.414.414,0,0,1,.107.426.507.507,0,0,1-.107.373.532.532,0,0,1-.213.266l-.32.16a1.324,1.324,0,0,1-.426.053Zm.373-1.6h.586a1.04,1.04,0,0,0,.373-.053c.107,0,.16-.053.213-.16a.32.32,0,0,0,.053-.213.48.48,0,0,0-.053-.266.735.735,0,0,0-.213-.16,1.173,1.173,0,0,0-.426-.053h-.533Zm0,1.278h.959c.053,0,.16-.053.213-.053l.16-.16a.32.32,0,0,0,.053-.213c0-.107,0-.213-.107-.266a.735.735,0,0,0-.213-.16,1.038,1.038,0,0,0-.426-.053h-.639Z"
                  transform="translate(-25.802 -56.658)" fill="#fff"/>
            <path id="Path_53970" data-name="Path 53970"
                  d="M59.5,123.869l1.065-2.769h.373l1.118,2.769H61.63l-.32-.852H60.139l-.32.852Zm.8-1.172h.959l-.266-.746a4.046,4.046,0,0,1-.213-.586c-.053.16-.107.373-.16.533Z"
                  transform="translate(-27.812 -56.658)" fill="#fff"/>
            <path id="Path_53971" data-name="Path 53971"
                  d="M64.9,123.869V121.1h.373l1.438,2.184V121.1h.373v2.769h-.373l-1.438-2.184v2.184Z"
                  transform="translate(-30.336 -56.658)" fill="#fff"/>
            <path id="Path_53972" data-name="Path 53972"
                  d="M72.237,123.5a2.16,2.16,0,0,0,.479.266l-.107.266a5.81,5.81,0,0,1-.586-.32,1.474,1.474,0,0,1-.692.16,1.64,1.64,0,0,1-.692-.16,1.166,1.166,0,0,1-.479-.533,1.82,1.82,0,0,1,0-1.491,1.166,1.166,0,0,1,.479-.533,1.58,1.58,0,0,1,1.385,0,1.166,1.166,0,0,1,.479.533,1.7,1.7,0,0,1,.16.746,2.673,2.673,0,0,1-.107.639A2.954,2.954,0,0,1,72.237,123.5Zm-.852-.426a1.666,1.666,0,0,1,.533.266,1.126,1.126,0,0,0,.32-.905,1.914,1.914,0,0,0-.107-.586.749.749,0,0,0-.32-.373.972.972,0,0,0-1.172.16.982.982,0,0,0-.266.852,1.253,1.253,0,0,0,.266.852.693.693,0,0,0,.692.266.906.906,0,0,0,.373-.053,2.6,2.6,0,0,0-.373-.16Z"
                  transform="translate(-32.72 -56.611)" fill="#fff"/>
            <path id="Path_53973" data-name="Path 53973"
                  d="M77.711,121.1h.373v1.6a1.351,1.351,0,0,1-.107.639.828.828,0,0,1-.32.426,1.418,1.418,0,0,1-.639.16,2.673,2.673,0,0,1-.639-.107,1.244,1.244,0,0,1-.373-.373,3.117,3.117,0,0,1-.107-.692v-1.6h.373v1.6a1.812,1.812,0,0,0,.053.533.532.532,0,0,0,.213.266,1,1,0,0,0,.426.107,1.074,1.074,0,0,0,.586-.16.848.848,0,0,0,.16-.692Z"
                  transform="translate(-35.477 -56.658)" fill="#fff"/>
            <path id="Path_53974" data-name="Path 53974"
                  d="M81.1,123.869V121.1h2.024v.32H81.473v.852h1.544v.32H81.473v.959h1.7v.32Z"
                  transform="translate(-37.908 -56.658)" fill="#fff"/>
            <path id="Path_53975" data-name="Path 53975" d="M86.505,123.869v-2.45H85.6v-.32h2.184v.32h-.905v2.45Z"
                  transform="translate(-40.011 -56.658)" fill="#fff"/>
            <path id="Path_53976" data-name="Path 53976" d="M90.5,123.869V121.1h.373v2.769Z"
                  transform="translate(-42.302 -56.658)" fill="#fff"/>
            <path id="Path_53977" data-name="Path 53977"
                  d="M92.4,123.869V121.1h.373l1.438,2.184V121.1h.373v2.769h-.373l-1.438-2.184v2.184Z"
                  transform="translate(-43.19 -56.658)" fill="#fff"/>
            <path id="Path_53978" data-name="Path 53978"
                  d="M98.931,122.757v-.32H100.1v1.012a1.105,1.105,0,0,1-.533.32,2.265,2.265,0,0,1-.586.107,1.7,1.7,0,0,1-.746-.16.936.936,0,0,1-.479-.533,1.82,1.82,0,0,1,0-1.491,1.166,1.166,0,0,1,.479-.533,1.7,1.7,0,0,1,.746-.16,1.893,1.893,0,0,1,.533.107.955.955,0,0,1,.373.266,1.6,1.6,0,0,1,.213.426l-.32.107-.16-.32a.532.532,0,0,0-.266-.213.906.906,0,0,0-.373-.053,1.038,1.038,0,0,0-.426.053,1.114,1.114,0,0,0-.32.213c-.053.107-.16.16-.16.266a1.892,1.892,0,0,0-.107.533,2.673,2.673,0,0,0,.107.639.643.643,0,0,0,.373.373.96.96,0,0,0,.533.107,1.555,1.555,0,0,0,.479-.107,1.335,1.335,0,0,0,.373-.213v-.533Z"
                  transform="translate(-45.62 -56.611)" fill="#fff"/>
            <path id="Path_53979" data-name="Path 53979"
                  d="M4.7,132.569,5.765,129.8h.373l1.118,2.769H6.83l-.32-.852H5.392l-.32.852Zm.8-1.118h.959l-.266-.746a4.045,4.045,0,0,1-.213-.586c-.053.16-.107.373-.16.533Z"
                  transform="translate(-2.197 -60.725)" fill="#fff"/>
            <path id="Path_53980" data-name="Path 53980"
                  d="M10.1,132.569V129.8h.373l1.438,2.184V129.8h.373v2.769h-.373l-1.438-2.184v2.184Z"
                  transform="translate(-4.721 -60.725)" fill="#fff"/>
            <path id="Path_53981" data-name="Path 53981"
                  d="M15.3,132.569V129.8h.959a1.474,1.474,0,0,1,.479.053,1.6,1.6,0,0,1,.426.213.776.776,0,0,1,.32.479,2.673,2.673,0,0,1,.107.639,1.642,1.642,0,0,1-.053.533,1.594,1.594,0,0,1-.213.426c-.053.107-.16.16-.266.266l-.32.16a1.324,1.324,0,0,1-.426.053Zm.373-.32h.586a1.173,1.173,0,0,0,.426-.053.71.71,0,0,0,.266-.16.858.858,0,0,0,.213-.373,1.812,1.812,0,0,0,.053-.533,1.64,1.64,0,0,0-.16-.692.622.622,0,0,0-.32-.32,1.474,1.474,0,0,0-.479-.053h-.586Z"
                  transform="translate(-7.152 -60.725)" fill="#fff"/>
            <path id="Path_53982" data-name="Path 53982"
                  d="M24.43,131.658l.373.107a1.184,1.184,0,0,1-.426.692,1.272,1.272,0,0,1-.746.266,1.7,1.7,0,0,1-.746-.16,1.063,1.063,0,0,1-.426-.533,1.82,1.82,0,0,1,0-1.491,1.045,1.045,0,0,1,.479-.479,1.474,1.474,0,0,1,.692-.16,1.07,1.07,0,0,1,.692.213,1.013,1.013,0,0,1,.373.586l-.373.107a1.16,1.16,0,0,0-.266-.426.859.859,0,0,0-.479-.16.9.9,0,0,0-.533.16.828.828,0,0,0-.32.426,1.892,1.892,0,0,0-.107.533,2.673,2.673,0,0,0,.107.639.563.563,0,0,0,.32.373.792.792,0,0,0,.479.107.9.9,0,0,0,.533-.16C24.324,132.03,24.43,131.871,24.43,131.658Z"
                  transform="translate(-10.424 -60.772)" fill="#fff"/>
            <path id="Path_53983" data-name="Path 53983"
                  d="M27.3,132.569l1.065-2.769h.373l1.118,2.769H29.43l-.32-.852H27.992l-.32.852Zm.8-1.118h.959l-.32-.746a4.045,4.045,0,0,1-.213-.586c-.053.16-.107.373-.16.533Z"
                  transform="translate(-12.761 -60.725)" fill="#fff"/>
            <path id="Path_53984" data-name="Path 53984" d="M32.705,132.569v-2.45H31.8v-.32h2.184v.32h-.905v2.45Z"
                  transform="translate(-14.864 -60.725)" fill="#fff"/>
            <path id="Path_53985" data-name="Path 53985"
                  d="M36.6,132.569V129.8h2.024v.32H36.973v.852h1.544v.32H36.973v.959h1.7v.32Z"
                  transform="translate(-17.108 -60.725)" fill="#fff"/>
            <path id="Path_53986" data-name="Path 53986"
                  d="M41.5,132.569V129.8h1.225a2.184,2.184,0,0,1,.586.053,1.411,1.411,0,0,1,.32.266,1,1,0,0,1,.107.426.578.578,0,0,1-.213.479.855.855,0,0,1-.586.266.736.736,0,0,1,.213.16,2.318,2.318,0,0,1,.32.373l.479.746h-.479l-.373-.586a3.63,3.63,0,0,0-.266-.373c-.053-.053-.107-.16-.16-.213a.2.2,0,0,0-.16-.053h-.639v1.225Zm.373-1.544h.8a.79.79,0,0,0,.373-.053.736.736,0,0,0,.213-.16.4.4,0,0,0,.053-.266.38.38,0,0,0-.16-.32.414.414,0,0,0-.426-.107H41.82v.905Z"
                  transform="translate(-19.398 -60.725)" fill="#fff"/>
            <path id="Path_53987" data-name="Path 53987" d="M46.8,132.569V129.8h.373v2.769Z"
                  transform="translate(-21.875 -60.725)" fill="#fff"/>
            <path id="Path_53988" data-name="Path 53988"
                  d="M48.8,132.569V129.8h.373l1.438,2.184V129.8h.373v2.769h-.373l-1.438-2.184v2.184Z"
                  transform="translate(-22.81 -60.725)" fill="#fff"/>
            <path id="Path_53989" data-name="Path 53989"
                  d="M55.285,131.458v-.32h1.172v1.012a1.105,1.105,0,0,1-.533.32,2.265,2.265,0,0,1-.586.107,1.7,1.7,0,0,1-.746-.16,1.283,1.283,0,0,1-.533-.533,1.82,1.82,0,0,1,0-1.491,1.166,1.166,0,0,1,.479-.533,1.7,1.7,0,0,1,.746-.16,1.892,1.892,0,0,1,.533.107.955.955,0,0,1,.373.266,1.316,1.316,0,0,1,.213.479l-.32.107-.16-.32a.532.532,0,0,0-.266-.213.906.906,0,0,0-.373-.053,1.038,1.038,0,0,0-.426.053,1.115,1.115,0,0,0-.32.213c-.053.107-.16.16-.16.266a1.892,1.892,0,0,0-.107.533,2.673,2.673,0,0,0,.107.639.643.643,0,0,0,.373.373.96.96,0,0,0,.533.107,1.555,1.555,0,0,0,.479-.107,1.335,1.335,0,0,0,.373-.213V131.4Z"
                  transform="translate(-25.194 -60.678)" fill="#fff"/>
            <path id="Path_53990" data-name="Path 53990"
                  d="M61.5,131.717l.373-.053a.757.757,0,0,0,.107.32.532.532,0,0,0,.266.213.6.6,0,0,0,.426.053.906.906,0,0,0,.373-.053.735.735,0,0,0,.213-.16.407.407,0,0,0,.107-.266c0-.107,0-.16-.053-.213a.453.453,0,0,0-.266-.16,1.555,1.555,0,0,0-.479-.107c-.16-.053-.373-.107-.533-.16a1.413,1.413,0,0,1-.32-.266.757.757,0,0,1-.107-.32.77.77,0,0,1,.107-.373.955.955,0,0,1,.373-.266,1.385,1.385,0,0,1,1.065,0,.716.716,0,0,1,.373.32.6.6,0,0,1,.16.426h-.373a.484.484,0,0,0-.213-.426.543.543,0,0,0-.479-.107,1.556,1.556,0,0,0-.479.107.322.322,0,0,0-.16.32c0,.107.053.16.107.266a1.6,1.6,0,0,0,.533.213c.213.053.426.107.586.16a.955.955,0,0,1,.373.266.988.988,0,0,1,.107.373,1.253,1.253,0,0,1-.107.426,1.084,1.084,0,0,1-.373.32,1.891,1.891,0,0,1-.533.107,2.673,2.673,0,0,1-.639-.107.828.828,0,0,1-.426-.32A2.344,2.344,0,0,1,61.5,131.717Z"
                  transform="translate(-28.747 -60.725)" fill="#fff"/>
            <path id="Path_53991" data-name="Path 53991"
                  d="M66.6,132.569V129.8h2.024v.32H66.973v.852h1.544v.32H66.973v.959h1.7v.32Z"
                  transform="translate(-31.13 -60.725)" fill="#fff"/>
            <path id="Path_53992" data-name="Path 53992"
                  d="M71.4,132.569V129.8h1.225a2.184,2.184,0,0,1,.586.053,1.411,1.411,0,0,1,.32.266,1,1,0,0,1,.107.426.578.578,0,0,1-.213.479.855.855,0,0,1-.586.266c.053.053.16.107.213.16a2.318,2.318,0,0,1,.32.373l.479.746h-.479L73,131.984a3.629,3.629,0,0,0-.266-.373c-.053-.053-.107-.16-.16-.213a.2.2,0,0,0-.16-.053h-.639v1.225Zm.373-1.544h.8a.79.79,0,0,0,.373-.053.736.736,0,0,0,.213-.16.4.4,0,0,0,.053-.266.38.38,0,0,0-.16-.32.414.414,0,0,0-.426-.107H71.72v.905Z"
                  transform="translate(-33.374 -60.725)" fill="#fff"/>
            <path id="Path_53993" data-name="Path 53993"
                  d="M77.065,132.569,76,129.8h.426l.692,2.024.16.479.16-.479.746-2.024h.373l-1.065,2.769Z"
                  transform="translate(-35.524 -60.725)" fill="#fff"/>
            <path id="Path_53994" data-name="Path 53994" d="M81.5,132.569V129.8h.373v2.769Z"
                  transform="translate(-38.095 -60.725)" fill="#fff"/>
            <path id="Path_53995" data-name="Path 53995"
                  d="M85.23,131.658l.373.107a1.184,1.184,0,0,1-.426.692,1.272,1.272,0,0,1-.746.266,1.7,1.7,0,0,1-.746-.16,1.063,1.063,0,0,1-.426-.533,1.819,1.819,0,0,1,0-1.491,1.045,1.045,0,0,1,.479-.479,1.474,1.474,0,0,1,.692-.16.982.982,0,0,1,.692.213,1.012,1.012,0,0,1,.373.586l-.373.107a1.16,1.16,0,0,0-.266-.426.859.859,0,0,0-.479-.16.9.9,0,0,0-.533.16.828.828,0,0,0-.32.426,1.893,1.893,0,0,0-.107.533,2.673,2.673,0,0,0,.107.639.563.563,0,0,0,.32.373.792.792,0,0,0,.479.107.9.9,0,0,0,.533-.16C85.124,132.03,85.23,131.871,85.23,131.658Z"
                  transform="translate(-38.843 -60.772)" fill="#fff"/>
            <path id="Path_53996" data-name="Path 53996"
                  d="M88.7,132.569V129.8h2.024v.32H89.073v.852h1.544v.32H89.073v.959h1.7v.32Z"
                  transform="translate(-41.46 -60.725)" fill="#fff"/>
            <path id="Path_53997" data-name="Path 53997"
                  d="M93.3,131.717l.373-.053a.757.757,0,0,0,.107.32.532.532,0,0,0,.266.213.6.6,0,0,0,.426.053.906.906,0,0,0,.373-.053.735.735,0,0,0,.213-.16.407.407,0,0,0,.107-.266c0-.107,0-.16-.053-.213a.453.453,0,0,0-.266-.16,1.555,1.555,0,0,0-.479-.107c-.16-.053-.373-.107-.533-.16a1.413,1.413,0,0,1-.32-.266.757.757,0,0,1-.107-.32.77.77,0,0,1,.107-.373.955.955,0,0,1,.373-.266,1.385,1.385,0,0,1,1.065,0,.716.716,0,0,1,.373.32.6.6,0,0,1,.16.426h-.373a.484.484,0,0,0-.213-.426.543.543,0,0,0-.479-.107,1.556,1.556,0,0,0-.479.107.322.322,0,0,0-.16.32c0,.107.053.16.107.266a1.6,1.6,0,0,0,.533.213l.639.16a.955.955,0,0,1,.373.266.988.988,0,0,1,.107.373,1.253,1.253,0,0,1-.107.426,1.084,1.084,0,0,1-.373.32,1.891,1.891,0,0,1-.533.107,2.673,2.673,0,0,1-.639-.107.828.828,0,0,1-.426-.32A1.191,1.191,0,0,1,93.3,131.717Z"
                  transform="translate(-43.611 -60.725)" fill="#fff"/>
            <path id="Path_53998" data-name="Path 53998" d="M19.405,141.369v-2.45H18.5v-.32h2.184v.32h-.905v2.45Z"
                  transform="translate(-8.647 -64.838)" fill="#fff"/>
            <path id="Path_53999" data-name="Path 53999"
                  d="M23.3,141.369V138.6h.373v1.118h1.438V138.6h.373v2.769h-.373v-1.278H23.673v1.278Z"
                  transform="translate(-10.891 -64.838)" fill="#fff"/>
            <path id="Path_54000" data-name="Path 54000"
                  d="M28.6,141.369V138.6h2.024v.32H28.973v.852h1.544v.32H28.973v.959h1.7v.32Z"
                  transform="translate(-13.368 -64.838)" fill="#fff"/>
            <path id="Path_54001" data-name="Path 54001"
                  d="M35.4,141.369V138.6h1.225a2.185,2.185,0,0,1,.586.053,1.412,1.412,0,0,1,.32.266,1,1,0,0,1,.107.426.578.578,0,0,1-.213.479.855.855,0,0,1-.586.266.735.735,0,0,1,.213.16,2.315,2.315,0,0,1,.32.373l.479.746h-.479L37,140.784a3.631,3.631,0,0,0-.266-.373c-.053-.053-.107-.16-.16-.213a.2.2,0,0,0-.16-.053h-.639v1.225Zm.373-1.544h.8a.79.79,0,0,0,.373-.053.736.736,0,0,0,.213-.16.4.4,0,0,0,.053-.266.38.38,0,0,0-.16-.32.414.414,0,0,0-.426-.107H35.72v.905Z"
                  transform="translate(-16.547 -64.838)" fill="#fff"/>
            <path id="Path_54002" data-name="Path 54002" d="M40.8,141.369V138.6h.373v2.769Z"
                  transform="translate(-19.071 -64.838)" fill="#fff"/>
            <path id="Path_54003" data-name="Path 54003" d="M43.205,141.369v-2.45H42.3v-.32h2.184v.32h-.905v2.45Z"
                  transform="translate(-19.772 -64.838)" fill="#fff"/>
            <path id="Path_54004" data-name="Path 54004"
                  d="M46.7,141.416v-.32l1.438-1.758a1.412,1.412,0,0,0,.266-.32H46.86v-.32H48.83v.32l-1.544,1.917-.16.213h1.758v.32Z"
                  transform="translate(-21.829 -64.885)" fill="#fff"/>
            <path id="Path_54005" data-name="Path 54005" d="M53.6,141.369V138.6h.373v2.45h1.385v.32Z"
                  transform="translate(-25.054 -64.838)" fill="#fff"/>
            <path id="Path_54006" data-name="Path 54006"
                  d="M57.482,139.929a1.628,1.628,0,0,1,.373-1.065,1.111,1.111,0,0,1,.959-.373,1.474,1.474,0,0,1,.692.16,1.166,1.166,0,0,1,.479.533,1.82,1.82,0,0,1,0,1.491,1.045,1.045,0,0,1-.479.479,1.474,1.474,0,0,1-.692.16,1.07,1.07,0,0,1-.692-.213,1.166,1.166,0,0,1-.479-.533A.628.628,0,0,1,57.482,139.929Zm.373,0a1.435,1.435,0,0,0,.266.8.932.932,0,0,0,1.331,0h0a1.12,1.12,0,0,0,.266-.8,1.914,1.914,0,0,0-.107-.586.749.749,0,0,0-.32-.373.859.859,0,0,0-.479-.16,1.122,1.122,0,0,0-.692.266.982.982,0,0,0-.266.852Z"
                  transform="translate(-26.859 -64.782)" fill="#fff"/>
            <path id="Path_54007" data-name="Path 54007"
                  d="M63.3,141.369V138.6h.373l1.438,2.184V138.6h.373v2.769h-.373l-1.438-2.184v2.184Z"
                  transform="translate(-29.588 -64.838)" fill="#fff"/>
            <path id="Path_54008" data-name="Path 54008"
                  d="M68.6,141.369V138.6h.959a1.475,1.475,0,0,1,.479.053,1.6,1.6,0,0,1,.426.213.776.776,0,0,1,.32.479,2.673,2.673,0,0,1,.107.639,2.184,2.184,0,0,1-.053.586,1.594,1.594,0,0,1-.213.426c-.053.107-.16.16-.266.266l-.32.16a1.323,1.323,0,0,1-.426.053H68.6Zm.373-.32h.586a1.172,1.172,0,0,0,.426-.053.709.709,0,0,0,.266-.16.46.46,0,0,0,.16-.32,1.812,1.812,0,0,0,.053-.533,1.64,1.64,0,0,0-.16-.692.563.563,0,0,0-.373-.32,1.474,1.474,0,0,0-.479-.053h-.586Z"
                  transform="translate(-32.065 -64.838)" fill="#fff"/>
            <path id="Path_54009" data-name="Path 54009"
                  d="M73.6,139.929a1.628,1.628,0,0,1,.373-1.065,1.111,1.111,0,0,1,.959-.373,1.474,1.474,0,0,1,.692.16,1.166,1.166,0,0,1,.479.533,1.82,1.82,0,0,1,0,1.491,1.045,1.045,0,0,1-.479.479,1.474,1.474,0,0,1-.692.16,1.07,1.07,0,0,1-.692-.213,1.166,1.166,0,0,1-.479-.533A1.024,1.024,0,0,1,73.6,139.929Zm.373,0a1.435,1.435,0,0,0,.266.8.932.932,0,0,0,1.331,0h0a1.12,1.12,0,0,0,.266-.8,1.914,1.914,0,0,0-.107-.586.749.749,0,0,0-.32-.373.859.859,0,0,0-.479-.16,1.122,1.122,0,0,0-.692.266,1.474,1.474,0,0,0-.266.852Z"
                  transform="translate(-34.402 -64.782)" fill="#fff"/>
            <path id="Path_54010" data-name="Path 54010"
                  d="M79.5,141.369V138.6h.373l1.438,2.184V138.6h.373v2.769h-.373l-1.438-2.184v2.184Z"
                  transform="translate(-37.16 -64.838)" fill="#fff"/>
        </g>
    </g>
</svg>
