<?xml version="1.0" encoding="utf-8"?>
<svg xmlns="http://www.w3.org/2000/svg" width="24.21" height="17.057" viewBox="0 0 24.21 17.057">
    <path id="Path_54011" data-name="Path 54011"
          d="M31.7,36.664a3.042,3.042,0,0,0-2.14-2.154C27.676,34,20.105,34,20.105,34s-7.571,0-9.459.509a3.042,3.042,0,0,0-2.14,2.154,34.248,34.248,0,0,0,0,11.73,3.042,3.042,0,0,0,2.14,2.154c1.888.509,9.459.509,9.459.509s7.571,0,9.459-.509a3.042,3.042,0,0,0,2.14-2.154,34.248,34.248,0,0,0,0-11.73ZM17.629,46.128v-7.2l6.328,3.6Z"
          transform="translate(-8 -34)" fill="#fff"/>
</svg>
