<?xml version="1.0" standalone="no"?>
<!DOCTYPE svg PUBLIC "-//W3C//DTD SVG 20010904//EN"
 "http://www.w3.org/TR/2001/REC-SVG-20010904/DTD/svg10.dtd">
<svg version="1.0" xmlns="http://www.w3.org/2000/svg"
 width="207.000000pt" height="207.000000pt" viewBox="0 0 207.000000 207.000000"
 preserveAspectRatio="xMidYMid meet">
<metadata>
Created by potrace 1.11, written by Peter Selinger 2001-2013
</metadata>
<g transform="translate(0.000000,207.000000) scale(0.100000,-0.100000)"
fill="#000000" stroke="none">
<path d="M1316 2045 c-6 -5 -20 -11 -31 -13 -67 -9 -85 -24 -43 -35 17 -5 19
-9 9 -20 -6 -8 -25 -17 -41 -20 -16 -4 -46 -22 -67 -40 -21 -19 -64 -44 -96
-56 -112 -41 -117 -45 -117 -101 0 -85 44 -108 143 -74 26 9 54 14 61 11 22
-9 31 -66 13 -84 -13 -13 -17 -13 -34 4 -30 30 -51 35 -155 38 -102 3 -118 7
-118 31 0 8 -6 14 -14 14 -22 0 -39 -28 -32 -54 7 -27 45 -40 86 -30 38 10
139 17 156 10 8 -3 12 -11 9 -17 -5 -8 -10 -8 -18 0 -18 18 -31 13 -49 -19
-22 -38 -10 -77 27 -86 14 -3 29 -14 34 -23 9 -14 13 -13 40 13 23 22 38 28
72 28 23 -1 47 -6 52 -11 6 -6 46 -11 88 -11 71 0 84 3 153 40 49 26 77 36 82
29 3 -6 8 -43 10 -81 7 -115 41 -166 94 -138 20 11 28 40 10 40 -5 0 -10 14
-10 31 0 22 10 40 37 65 l37 35 -24 12 c-35 18 -40 93 -10 142 12 19 19 36 16
36 -3 1 -11 2 -18 3 -19 2 -39 48 -34 76 11 58 10 65 -2 65 -21 0 -31 26 -21
52 7 19 5 25 -10 31 -11 4 -37 24 -60 45 -22 20 -43 37 -46 37 -3 0 -22 7 -43
16 -43 19 -120 24 -136 9z m-80 -200 c10 -24 -14 -47 -37 -34 -22 11 -25 35
-6 42 23 10 38 7 43 -8z"/>
<path d="M190 1749 c0 -6 -7 -8 -16 -5 -13 5 -14 1 -10 -22 16 -74 17 -72 -15
-72 -17 0 -39 4 -49 10 -15 8 -19 5 -22 -15 -3 -14 -3 -36 0 -50 3 -20 7 -23
22 -15 20 11 63 13 72 5 2 -3 3 -18 0 -34 -3 -23 -11 -31 -31 -36 -36 -8 -94
-68 -119 -124 l-19 -44 30 -61 c34 -68 44 -79 105 -107 33 -16 53 -19 85 -14
79 13 126 55 160 143 16 43 15 45 -10 98 -26 55 -66 95 -112 112 -18 6 -25 18
-28 44 l-3 36 37 -9 c46 -10 69 -11 60 -2 -4 3 -3 11 2 17 5 6 7 24 4 39 -4
21 -9 26 -22 21 -9 -4 -31 -9 -50 -12 l-34 -5 7 37 c4 21 10 45 13 53 5 12 2
15 -10 10 -9 -3 -19 -2 -22 3 -8 14 -25 13 -25 -1z m30 -325 l5 -59 55 0 c44
0 55 -3 58 -17 3 -16 -9 -18 -137 -18 -114 0 -141 3 -141 14 0 18 14 22 73 21
26 0 48 2 48 5 1 3 3 28 4 55 4 68 3 67 18 63 7 -3 14 -29 17 -64z"/>
<path d="M1479 1526 c-64 -33 -126 -46 -218 -46 -105 0 -227 -22 -249 -44 -12
-12 0 -17 84 -37 124 -30 292 -33 339 -7 48 26 85 68 85 97 0 42 -12 52 -41
37z"/>
<path d="M385 1510 c-35 -6 -35 -7 -1 -68 34 -61 40 -71 57 -107 8 -16 23 -30
32 -30 10 0 21 -6 26 -13 4 -7 14 -15 22 -16 15 -3 62 -22 91 -37 10 -5 19 -9
21 -9 1 0 29 25 61 56 69 66 66 73 -34 98 -56 15 -71 23 -107 65 -35 40 -51
50 -90 57 -26 6 -61 7 -78 4z"/>
<path d="M1480 1394 c-49 -34 -100 -46 -199 -46 -54 0 -97 -5 -116 -14 -34
-16 -105 -72 -105 -82 0 -8 287 -6 344 3 77 11 123 51 131 113 5 46 -14 54
-55 26z"/>
<path d="M855 1383 c-37 -16 -54 -29 -55 -44 0 -4 62 -10 138 -14 114 -6 144
-4 175 8 46 20 48 37 5 37 -18 0 -51 7 -73 15 -53 19 -140 18 -190 -2z"/>
<path d="M750 1291 c-48 -27 -96 -68 -89 -75 3 -4 48 -9 100 -12 178 -10 195
-8 231 17 62 44 71 71 23 74 -16 1 -75 5 -130 9 -89 6 -104 4 -135 -13z"/>
<path d="M1490 1253 c-76 -33 -125 -40 -265 -37 -162 4 -234 -10 -305 -58 -50
-34 -96 -85 -86 -96 4 -3 17 0 29 8 58 37 191 45 316 21 120 -24 197 -8 282
60 41 33 72 81 67 104 -2 11 -9 11 -38 -2z"/>
<path d="M836 1172 c-4 -3 -71 -7 -149 -8 -101 -2 -161 -8 -207 -21 -57 -16
-74 -17 -135 -7 -38 7 -97 10 -130 7 -33 -2 -81 -5 -106 -7 -26 -2 -52 -6 -58
-10 -6 -4 19 -36 61 -78 l71 -71 91 8 c50 4 123 8 161 10 39 2 84 6 100 10 17
4 77 8 135 10 58 2 108 4 112 4 4 1 12 19 18 41 6 23 24 53 40 67 17 14 30 30
30 34 0 10 -27 19 -34 11z"/>
<path d="M937 1070 c-81 -21 -150 -70 -182 -131 -20 -37 -10 -41 43 -17 50 21
90 23 245 15 107 -5 159 4 249 45 58 27 119 79 100 86 -7 2 -28 -2 -48 -8 -31
-11 -121 -8 -204 6 -59 9 -171 12 -203 4z"/>
<path d="M1617 1014 c-14 -8 -38 -26 -51 -39 -14 -14 -32 -25 -40 -25 -26 0
-88 -62 -108 -108 -21 -47 -25 -118 -9 -170 18 -58 69 -128 156 -210 47 -44
89 -93 95 -108 14 -36 5 -90 -22 -127 -16 -23 -18 -31 -8 -37 7 -5 20 -6 29
-4 9 2 37 9 64 16 53 13 62 28 60 109 -2 86 -27 121 -197 273 -99 88 -130 140
-124 205 5 55 32 98 67 107 35 10 54 -6 74 -62 27 -76 38 -93 75 -116 42 -26
106 -21 151 11 34 25 41 44 14 40 -52 -8 -83 28 -89 105 -9 97 -14 116 -40
132 -33 22 -64 25 -97 8z"/>
<path d="M728 995 c-2 -2 -15 -6 -30 -9 -70 -12 -120 -61 -144 -143 -22 -72
-20 -76 22 -58 20 8 53 29 74 45 46 36 115 156 95 164 -7 2 -15 3 -17 1z"/>
<path d="M1220 924 c-25 -8 -103 -16 -177 -18 -142 -5 -179 -15 -229 -64 -49
-50 -69 -118 -21 -75 19 18 23 18 178 13 74 -2 142 25 229 91 39 30 70 57 70
61 0 5 -1 8 -2 7 -2 -1 -23 -7 -48 -15z"/>
<path d="M744 870 c-51 -28 -74 -52 -139 -142 l-35 -48 32 0 c17 0 51 9 74 20
33 16 48 33 74 83 18 34 40 70 48 80 29 34 -1 38 -54 7z"/>
<path d="M1080 770 c-30 -9 -89 -18 -130 -19 -61 -1 -86 -7 -136 -31 -59 -29
-174 -127 -174 -149 0 -6 16 -11 35 -11 31 0 39 -5 64 -47 35 -57 95 -104 209
-164 50 -26 101 -62 125 -89 l42 -45 80 0 c44 0 108 -6 142 -14 56 -13 63 -13
88 3 26 17 27 21 22 76 -4 32 -14 78 -23 102 -24 61 -95 166 -163 241 -32 36
-71 88 -86 116 -16 28 -31 51 -34 50 -3 -1 -31 -9 -61 -19z"/>
<path d="M213 173 c-37 -7 -30 -21 32 -68 88 -67 110 -75 222 -81 54 -2 73 1
77 11 7 19 -75 92 -132 117 -46 21 -151 32 -199 21z"/>
<path d="M510 169 l-25 -10 45 -40 c25 -21 68 -50 95 -64 72 -35 225 -46 225
-15 0 16 -77 82 -124 107 -56 28 -173 40 -216 22z"/>
<path d="M828 173 c-28 -7 -21 -27 22 -62 77 -62 127 -81 219 -84 59 -1 85 2
88 10 6 18 -72 89 -125 114 -43 21 -158 33 -204 22z"/>
<path d="M1128 173 c-10 -3 -18 -10 -18 -17 0 -17 122 -105 162 -117 48 -14
171 -20 188 -9 23 14 -74 103 -141 128 -50 18 -143 25 -191 15z"/>
<path d="M1433 174 c-37 -8 -27 -28 40 -77 70 -53 107 -66 204 -72 96 -6 105
3 53 54 -69 68 -116 90 -201 95 -41 3 -84 2 -96 0z"/>
<path d="M1733 173 c-13 -2 -23 -10 -23 -17 0 -21 125 -108 175 -120 48 -13
174 -16 181 -5 8 14 -81 94 -135 120 -43 22 -148 33 -198 22z"/>
</g>
</svg>
